<?xml version="1.0" encoding="utf-8"?>
<!-- Generator: Adobe Illustrator 19.2.1, SVG Export Plug-In . SVG Version: 6.00 Build 0)  -->
<svg version="1.1" id="layer" xmlns="http://www.w3.org/2000/svg" xmlns:xlink="http://www.w3.org/1999/xlink" x="0px" y="0px"
	 viewBox="0 0 652 652" style="enable-background:new 0 0 652 652;" xml:space="preserve">
<style type="text/css">
	.st0{fill:#231815;}
	.st1{fill:#C81528;}
	.st2{fill:#5B0000;}
</style>
<g>
	<path class="st0" d="M379.6,421.7c1.5,5,4.5,7.2,9.8,7.2c4.4,0,8.3-2.5,8.3-7.2c0-3.9-1.6-5.8-9.3-8.6c-5.1-1.9-5.6-3.2-5.6-5
		c0-3.2,2.2-5,5.4-5c3.5,0,5.6,2.1,6.6,5.1l2.2-0.6c-1.2-4.2-4.4-6.5-8.8-6.5c-5.1,0-7.9,3-7.9,7c0,9,14.9,6.1,14.9,13.4
		c0,3.3-2.1,5.4-5.5,5.4c-4.3,0-6.8-1.8-7.8-5.9L379.6,421.7z M419.6,428.5v-2h-13.9v-11h9.5v-2h-9.5v-10h13.1v-2h-15.6v27H419.6z
		 M424.6,428.5h2.5v-27h-2.5V428.5z M432.3,403.5h8.1v25h2.5v-25h8.1v-2h-18.7V403.5z M476.5,428.5v-2h-4.6v-25.4h-1.6l-6.2,2v1.5
		l5.2-0.7v22.7h-4.7v2H476.5z M479.1,423.5c1.6,3.7,4.8,5.4,9.2,5.4c5.4,0,9.4-2.3,9.4-8c0-3.7-2.2-5.7-5.2-6.8
		c3.2-1.4,4.4-3.3,4.4-6.4c0-5.1-4.7-6.6-8.3-6.6c-3,0-5.7,1.2-8.3,4.3l1.8,1.3c1.9-2.4,3.7-3.5,6.3-3.5c3.7,0,6,1.4,6,4.8
		c0,3.6-2.6,5.3-7.5,5.3h-2v2h2.5c5.2,0,7.9,1.9,7.9,5.8c0,3.8-2.2,5.9-6.8,5.9c-3.6,0-5.7-1-7.3-4.5L479.1,423.5z M511.9,401.1
		c-5.2,0-8.6,2.3-8.6,6.8c0,3,1.8,5.1,5.2,6.3c-4.7,2.1-6.3,4.6-6.3,7.3c0,5.4,3.9,7.3,9.6,7.3c5.7,0,9.6-1.9,9.6-7.3
		c0-2.7-1.6-5.2-6.3-7.3c3.4-1.2,5.2-3.4,5.2-6.3C520.5,403.4,517.1,401.1,511.9,401.1 M504.8,421.6c0-2.9,2.7-4.4,7.1-6.2
		c4.5,1.8,7.1,3.3,7.1,6.2c0,3.7-3.1,5.3-7.1,5.3C507.9,426.9,504.8,425.2,504.8,421.6 M505.8,407.8c0-3.2,2.5-4.7,6.1-4.7
		c3.6,0,6.1,1.5,6.1,4.7c0,2.9-2.7,4.6-6.1,5.5C508.5,412.4,505.8,410.8,505.8,407.8 M542.9,403.4c-1.9-1.4-4.1-2.2-6.5-2.2
		c-7.7,0-10.9,8.1-10.9,14.9c0,6.2,1.8,12.9,9.4,12.9c5,0,9.3-3.2,9.3-8.4c0-5-3.2-8.9-8.8-8.9c-2.8,0-5.5,1.6-7.4,3.6
		c0-5.1,2.1-12.1,8.4-12.1c2.1,0,4,0.5,5.4,2.1L542.9,403.4z M541.7,420.1c0,4.2-2.4,6.8-6.7,6.8c-4.2,0-6.9-3.1-6.9-8
		c0-1,2.8-5.3,6.9-5.3C539.3,413.6,541.7,416.4,541.7,420.1"/>
	<path class="st0" d="M381.3,364.2h13.1l-14.3,23v2h17.6v-2h-14.5l14.3-22.9v-2.1h-16.2V364.2z M403.3,362.2v18.2
		c0,6.1,3.3,9.2,9.9,9.2c6.6,0,9.9-3.1,9.9-9.2v-18.2h-2.5v18.4c0,5.2-2.5,7-7.4,7c-4.9,0-7.4-1.8-7.4-7v-18.4H403.3z M430.7,389.2
		h2.5v-9l5.2-5.9l8.7,14.9h2.8l-9.9-16.7l8.8-10.3h-3.1l-12.5,14.7v-14.7h-2.5V389.2z M453.9,362.2v18.2c0,6.1,3.3,9.2,9.9,9.2
		c6.6,0,9.9-3.1,9.9-9.2v-18.2h-2.5v18.4c0,5.2-2.5,7-7.4,7c-4.9,0-7.4-1.8-7.4-7v-18.4H453.9z M481.3,389.2h2.5v-25h0.1l14.7,25
		h2.6v-27h-2.5v22.5h-0.1l-13-22.5h-4.2V389.2z M511.2,389.2v-13h9.9v-2h-9.9v-10h13.6v-2h-16.1v27H511.2z M527.2,364.2h8.1v25h2.5
		v-25h8.1v-2h-18.8V364.2z"/>
	<path class="st0" d="M385.6,350v-12.1h11V350h5.5v-28.2h-5.5v11.2h-11v-11.2h-5.5V350H385.6z M428.1,350v-4.5h-13.9v-7.9h9.8v-4.5
		h-9.8v-6.7h13.5v-4.5h-18.9V350H428.1z M438.9,321.8h-5.5V350h5.5V321.8z M445.9,350h9.5c7.6,0,12.8-4.1,12.8-14.1
		c0-10-5.3-14.1-12.8-14.1h-9.5V350z M451.3,326.4h3.7c6.3,0,7.7,4.5,7.7,9.6c0,5-1.5,9.6-7.7,9.6h-3.7V326.4z M491.9,350v-4.5H478
		v-7.9h9.8v-4.5H478v-6.7h13.5v-4.5h-18.9V350H491.9z M514.4,350v-4.5H502v-23.7h-5.5V350H514.4z M518.5,350h10.5
		c7.3,0,10.4-3,10.4-7.4c0-4.3-1.3-6-5-7.5c3.1-1.2,4.4-3.5,4.4-6.4c-0.3-5-4-6.9-9.7-6.9h-10.6V350z M524,337.4h5.5
		c3.2,0,4.6,1.4,4.6,4.1c0,2.7-1.4,4.1-4.6,4.1H524V337.4z M524,326.2h5.5c2.6,0,3.9,1.5,3.9,3.4c0,2-1.3,3.4-3.9,3.4H524V326.2z
		 M564.6,350v-4.5h-13.9v-7.9h9.8v-4.5h-9.8v-6.7h13.5v-4.5h-18.9V350H564.6z M574.6,350v-11.5h4.7l5.4,11.5h6.1l-6.3-12.6
		c3.5-1,5.3-3.8,5.2-7.3c0-4.7-2.7-8.4-9.1-8.4h-11.4V350H574.6z M574.6,326.2h5c3,0,4.6,1.3,4.6,4c0,2.7-1.3,4-5.6,4h-4V326.2z
		 M616,328.6c-1.3-4.1-4.7-7.2-10.4-7.2c-9.2,0-11.9,7.7-11.9,14.9c0,8,3.6,14.1,11.4,14.1c3,0,5.2-0.8,7.4-3.3v2.9h4v-14.3h-10.7
		v4.5h5.4c-0.1,3.3-2.4,5.6-6,5.6c-3.8,0-6.1-3.8-6.1-9.7c0-6.3,2-10.2,6-10.2c2.8,0,4.4,1.2,5.7,4L616,328.6z"/>
	<path class="st0" d="M396.6,299.3c0,4.6-1.8,6.2-5.5,6.2c-3.7,0-5.5-1.6-5.5-6.2v-17.9h-5.5v17.7c0,8.3,5.1,10.9,11,10.9
		c5.8,0,11-2.7,11-10.9v-17.7h-5.5V299.3z M413.8,309.7v-20.1h0.1l11.7,20.1h5.3v-28.2h-5.1v19.2h-0.1l-11.3-19.2h-5.7v28.2H413.8z
		 M443.3,281.5h-5.5v28.2h5.5V281.5z M455.2,309.7h6.1l7.6-28.2h-5.4l-5.3,20.8H458l-5.1-20.8h-5.4L455.2,309.7z M491.9,309.7v-4.5
		H478v-7.9h9.8v-4.5H478V286h13.5v-4.5h-18.9v28.2H491.9z M502,309.7v-11.5h4.7l5.4,11.5h6.1l-6.3-12.6c3.5-1,5.3-3.8,5.2-7.3
		c0-4.6-2.7-8.4-9.1-8.4h-11.4v28.2H502z M502,285.8h5c3,0,4.6,1.3,4.6,4c0,2.7-1.3,4-5.6,4h-4V285.8z M541.4,287.4
		c-1.7-4.1-5.5-6.4-10.1-6.4c-5,0-9.2,2.8-9.2,7.9c0,8.7,14.7,7.6,14.7,13.1c0,2.7-2.1,3.8-4.8,3.8c-3.2,0-4.9-1.8-6.2-4.4l-4.5,2
		c1.6,4.1,6,6.7,10.7,6.7c6.3,0,10-2.9,10-8.7c0-9.1-14.7-8.1-14.7-13c0-2.2,1.7-3.1,4.1-3.1c2.6,0,4.3,1.5,5.1,3.7L541.4,287.4z
		 M553.4,281.5h-5.5v28.2h5.5V281.5z M558,281.5v4.5h7.5v23.7h5.5V286h7.5v-4.5H558z M589.3,286.9L589.3,286.9l3.3,12.2h-6.7
		L589.3,286.9z M577.6,309.7h5.4l1.7-6.1h9l1.6,6.1h5.4l-8.1-28.2h-6.8L577.6,309.7z M583.1,279.5h4.8V275h-4.8V279.5z M590.6,279.5
		h4.7V275h-4.7V279.5z M599.9,281.5v4.5h7.5v23.7h5.5V286h7.5v-4.5H599.9z"/>
</g>
<rect x="357.1" y="166.6" class="st0" width="1" height="310.1"/>
<path class="st1" d="M177.6,166.8c-86.8,0-157.2,69.4-157.2,155.1c0,85.6,70.4,155.1,157.2,155.1c86.8,0,157.2-69.4,157.2-155.1
	C334.8,236.3,264.4,166.8,177.6,166.8"/>
<path class="st2" d="M177.7,166.7c-86.8,0-157.2,69.4-157.2,155.1c0,85.6,70.4,155.1,157.2,155.1c86.8,0,157.2-69.4,157.2-155.1
	C334.9,236.1,264.5,166.7,177.7,166.7 M194.6,200.9c1.4,0.2,2.7,0.4,4,0.6v8.9l-4-6.1V200.9z M200,433.5l-1.5,1.4v1.7h1.7v1.7h-1.7
	v1.7h-1.8v-1.7h-1.7v-1.7h1.7v-1.7h0l-1.5-1.4H190l-1.5,1.4h0v1.7h1.7v1.7h-1.7v1.7h-1.7v-1.7h-1.7v-1.7h1.7v-1.7l-1.5-1.4h-5.1
	l-1.5,1.4v1.7h1.7v1.7h-1.7v1.7h-1.8v-1.7h-1.7v-1.7h1.7v-1.7h0l-1.5-1.4h-5.2l-1.5,1.4v1.7h1.7v1.7h-1.7v1.7h-1.7v-1.7h-1.7v-1.7
	h1.7v-1.7l-1.5-1.4h-5.2l-1.5,1.4v1.7h1.7v1.7h-1.7v1.7h-1.8v-1.7h-1.7v-1.7h1.7v-1.7l-1.5-1.4h-15c0.6,0.6,5.2,4.6,7.6,6.7
	c-4.2-1-8.2-2.2-12.2-3.6c0,0,0,0,0,0l0-2.2l1-0.8l3-2.6h26.9c0.7,0.8,1.5,1.3,2.6,1.5c0.2,0,0.3,0,0.5,0c0.5,0,1.2-0.1,1.7-0.2
	c0.6-0.1,1-0.2,1.5-0.5c0.2-0.1,0.7-0.4,1.2-0.8l0.1-0.1h12.3c0.2,0.2,0.5,0.4,0.7,0.6c1.2,0.9,2.4,1.2,3.5,1.2h0
	c1.3,0,2.4-0.4,2.9-0.7c0.2-0.1,0.6-0.4,0.8-1h21.4l3.9,3.3v2.4c-0.2,0.1-0.5,0.2-0.8,0.3c-3.7,1.3-7.5,2.4-11.4,3.3
	c1.9-1.9,5.6-5.7,6.7-6.7H200z M201.9,441.4c-7.8,1.5-16,2.4-24.3,2.4c-8.3,0-16.4-0.8-24.3-2.4H201.9z M165.6,233.6l0,7.5h-15.1
	v-7.5H165.6z M156.6,231.9v-12.2c0-0.5,0.2-1,0.6-1.3c0.4-0.4,0.9-0.6,1.5-0.6c1.1,0,1.9,0.9,1.9,1.9v12.2H156.6z M162.4,219.7
	c0-0.6,0.2-1.1,0.5-1.4c0.3-0.3,0.6-0.5,1-0.5c0.4,0,0.8,0.2,1.1,0.5c0.3,0.4,0.6,0.8,0.6,1.4h0v12.2h-3.2L162.4,219.7L162.4,219.7z
	 M177.6,233.6L177.6,233.6h9.5v7.5h-18.8v-7.5H177.6z M168.2,231.9v-12.2h0c0-1.1,0.8-1.9,1.6-1.9c0.4,0,0.8,0.2,1.1,0.5
	c0.3,0.3,0.5,0.8,0.5,1.4v12.2H168.2z M173.2,231.9v-12.2c0-1.1,0.8-1.9,1.8-1.9c1,0,1.8,0.8,1.8,1.9h0v12.2H173.2z M178.5,231.9
	v-12.2h0c0-1.1,0.8-1.9,1.8-1.9c0.9,0,1.8,0.8,1.8,1.9v12.2H178.5z M177.7,290.2L177.7,290.2l-0.1,0v0c-1.8,0-3.6,0.2-5.3,0.6
	l5.4-8.1l5.4,8.1C181.3,290.4,179.5,290.2,177.7,290.2 M182.1,292.4v9.1c-1.2-0.3-2.3-0.4-3.6-0.5v-9
	C179.7,292,180.9,292.1,182.1,292.4 M176.8,291.9v9c-1.4,0.1-2.8,0.3-4.1,0.6v-9.1C174.1,292.2,175.4,292,176.8,291.9 M177.6,279.6
	l-7.9,11.9c-0.5,0.2-1.1,0.4-1.6,0.6v-3.2l9.4-14.3l9.4,14.1v3.3c-0.5-0.2-1-0.4-1.5-0.5L177.6,279.6z M177.7,266.7l9.4,14v4.9
	l-9.4-14.1l-9.4,14.3l0-4.8L177.7,266.7z M168.2,277.8v-24c0.1-1,1-1.8,2-1.8c1,0,1.9,0.9,1.9,1.9v18L168.2,277.8z M176.8,256.1v6.7
	h-3V254c0-0.8,0.3-1.3,1-1.8c0.5-0.3,1.2-0.6,2-0.7v1.9c-0.5,0.3-0.8,0.8-0.8,1.4C176,255.3,176.3,255.8,176.8,256.1 M176.5,265.4
	l-2.6,4v-5.5C174.5,264.4,175.5,265,176.5,265.4 M178.5,253.3v-1.8c0.7,0.1,1.4,0.4,1.9,0.7c0.7,0.5,1,1,1,1.8h0v8.8h-2.9v-6.7
	c0.5-0.3,0.8-0.8,0.8-1.4C179.3,254.1,179,253.6,178.5,253.3 M181.4,263.9v5.4l-2.6-3.9C179.8,265,180.8,264.4,181.4,263.9
	 M183.2,271.8V254c0-1,0.9-1.9,1.9-1.9c1,0,1.9,0.8,1.9,1.8v23.7L183.2,271.8z M183.8,292.7c1.2,0.3,2.4,0.7,3.5,1.2v9.5
	c-1.1-0.6-2.3-1.1-3.5-1.5V292.7z M187,231.9h-3.2v-12.2h0c0-0.6,0.2-1.1,0.5-1.4c0.3-0.3,0.6-0.5,1-0.5c0.4,0,0.8,0.2,1.2,0.5
	c0.3,0.3,0.6,0.8,0.6,1.4V231.9z M187,242.7v8.2c-0.6-0.4-1.2-0.6-1.9-0.6c-1.1,0-2.1,0.5-2.8,1.3c-0.3-0.3-0.6-0.6-0.9-0.9
	c-0.8-0.6-1.8-0.9-2.9-1v-0.9h1.5v-1.7h-1.5v-1.5h-1.7v1.5h-1.6v1.7h1.6v0.9c-1.1,0.1-2.1,0.4-3,1c-0.3,0.2-0.7,0.5-0.9,0.9
	c-0.7-0.8-1.6-1.3-2.7-1.3c-0.7,0-1.4,0.2-2,0.6l0-8.2H187z M171,292.9v9.2c-1.2,0.4-2.4,1-3.5,1.6v-9.6
	C168.7,293.6,169.8,293.2,171,292.9 M177.7,302.6c4.9,0,9.4,2,12.6,5.1c3.2,3.1,5.2,7.4,5.2,12c0,6.7-4.1,12.2-10.4,15.5
	c0-0.3,0.1-0.7,0.1-1.1c0.2-2.3,2.5-6.2,2.5-6.2s1.6,0.2,2.3-1c0.7-1.2,0.1-2.3,0.1-2.3s1.7-0.5,1.9-2c0.2-2.1-1.7-2.5-1.7-2.5
	s1-1,0.4-2.5c-0.7-1.7-2.6-1.4-2.6-1.4s0.3-1-1.1-1.8c-1.4-0.8-2.1-0.3-2.1-0.3s-0.3-0.7-1.1-1c-0.8-0.3-1.6-0.1-1.6-0.1
	s-0.4-0.5-1.2-0.6c-0.8-0.1-1.5,0.2-1.5,0.2s-0.9-0.8-1.8-0.8c-0.9,0-1.8,0.8-1.8,0.8s-0.3-0.4-1.2-0.4c-1,0-1.4,0.8-1.4,0.8
	s-0.7-0.4-1.6-0.1c-0.9,0.4-1.1,1.2-1.1,1.2s-0.6-0.6-2.1,0.3c-1.2,0.7-1,1.9-1,1.9s-1.2-0.3-2.3,0.9c-1.1,1.2,0,2.8,0,2.8
	s-1.8,0.4-1.6,2.3c0.2,1.9,1.9,2.4,1.9,2.4s-0.3,1.2,0.3,2.2c0.4,0.7,1.5,1,2.4,1c0.2,0.7,1.3,5.2,1.6,6.9c0,0,0,0,0,0
	c-1.1-0.7-2-1.3-2-1.3c-5.1-3.5-7.8-8.5-7.8-13.8c0-4.6,2-8.9,5.2-12C168.3,304.6,172.8,302.6,177.7,302.6 M214.7,254.9v-1.5H213
	v1.5h-1.6v1.7h1.6v5l-4.3,6.5v-32.7l10.1,15v17.4l-4.1-6.1v-5h1.5v-1.7H214.7z M213.9,263.4l4.9,7.4v4.3c-0.6-0.4-1.3-0.6-2-0.6
	c-1.2,0-2.3,0.5-3,1.3c-0.7-0.8-1.8-1.3-2.9-1.3c-0.8,0-1.5,0.2-2.1,0.6v-4L213.9,263.4z M218.8,277.9v39.7l-4.2-6.3v-33.2v0
	c0-1,1-1.9,2.1-1.9C217.8,276.2,218.7,277,218.8,277.9 M208.7,278.1c0-1,1-1.9,2.1-1.9c1.1,0,2.1,0.9,2.1,1.9v33.2l-4.2,6.3
	L208.7,278.1L208.7,278.1z M213.8,313.1l5,7.6v14.5c-0.6-0.4-1.3-0.6-2-0.6c-1.2,0-2.3,0.5-3,1.4c-0.7-0.9-1.9-1.4-3.1-1.4
	c-0.7,0-1.4,0.2-2,0.5v-14.4L213.8,313.1z M214.6,417.3v-37.9h4.2v26.7l-4,7.1v4.3C214.7,417.4,214.7,417.4,214.6,417.3
	 M214.8,426.4v1.9h-1.2c0.1-0.1,0.2-0.2,0.3-0.3C214.3,427.5,214.6,427,214.8,426.4 M214.6,375.5v-37.3v0c0-0.5,0.2-1,0.6-1.3
	c0.4-0.4,1-0.6,1.5-0.6c1.1,0,2,0.9,2,1.9h0v37.3H214.6z M210.7,336.3c0.6,0,1.1,0.2,1.6,0.6c0.4,0.4,0.7,0.8,0.7,1.3v37.3h-4.2
	v-37.8C208.9,336.9,209.7,336.3,210.7,336.3 M212.9,379.4v36.4c-0.2-0.2-0.4-0.3-0.5-0.5c-1.4-1.3-2.8-2.8-3.5-4.1l-0.1,0l0.1-0.1
	c0,0-0.1-0.1-0.1-0.1v-31.6H212.9z M211.2,416.6c1.3,1.1,2.5,2.2,3.2,2.8c-0.3,1.9-0.5,4-1,5.6c-0.2,0.8-0.5,1.5-0.9,1.9
	c-0.3,0.4-0.6,0.5-1.1,0.5c-0.5,0-0.8-0.2-1.1-0.5c-1-1.1-1.3-4.4-1.2-6v-1.6l0,0l0-0.1c-1.3-0.5-3-1-4.7-2.7
	c-1.7-1.7-3.4-4.7-4.3-10.6c-0.3-2-0.7-6.5-1.2-11c-0.5-4.5-1.2-9-2.2-11.5l-1.6,0.7c0.9,2,1.6,6.5,2.1,11c0.5,4.5,0.8,8.9,1.2,11.1
	c0.9,6.1,2.8,9.5,4.8,11.5c1.5,1.5,3.1,2.2,4.3,2.7c-0.5,0.4-0.9,1-1.4,1.7c-0.9,1.3-2.1,3-3.4,4.3c-1.3,1.3-2.6,2.2-3.6,2.2
	c-0.6,0-1.1-0.2-1.8-0.9c-2.7-2.8-5.7-4.2-8.5-4.2c-2,0-4,0.8-5.6,2.2c-0.9,0.8-1.9,1.3-2.9,1.3c-1,0-2.2-0.4-3.5-1.7
	c-0.5-0.4-1.6-1.4-1.4-1.3c0.2,0.2-1.2-1.2-2.3-1.6c-1-0.4-1.9-0.4-2.5-0.4c-0.7,0-1.7,0.1-3.1,0.6c-1.6,0.6-3.2,1.7-5.4,3.5
	c-1.5,1.3-2.9,1.7-4,1.7c-1.7,0-3.2-1-4.1-2.2c-0.8-1.1-1.5-1.8-2.2-2.2c-0.6-0.4-1.3-0.5-1.9-0.5c2.9-7.2,7.5-21,8.8-26.3
	c0.8-3.1,1.5-6.3,2.3-9.3c0.7-2.4,1.7-5.6,4.3-7.4c1.1-0.4,2.3-0.7,3.4-0.6c0.6,0,1.2,0.1,1.6,0.2c1.4,0.5,3.1,1.7,4.9,2.8
	c1.8,1.1,3.7,2.1,5.7,2.1c3.8,0,7.8-2.2,8.9-2.7c0.4-0.2,0.7-0.4,1.2-0.6c0.5-0.2,1-0.4,1.4-0.7c0.1,0,0.2-0.1,0.4-0.2
	c0.8-0.3,1.6-0.6,2.4-0.6c0.5,0,0.9,0.1,1.4,0.2c0.4,0.1,1,0.7,1.5,1.6c1.6,2.7,2.8,8.1,3.3,10.8c0.7,3.7,1.6,9.5,2.9,14.1
	c0.4,1.2,1,2.8,1.7,4.1c0.3,0.6,0.7,1.2,1,1.6c0.1,0.1,0.1,0.2,0.2,0.2C208.2,413.8,209.7,415.3,211.2,416.6 M209.3,428.3h-6.1
	c0.7-0.7,1.4-1.5,2.1-2.2c0.8-1,1.6-2.1,2.2-2.9c0.1,0.8,0.2,1.7,0.4,2.5c0.2,0.9,0.6,1.7,1.1,2.4
	C209.1,428.1,209.2,428.2,209.3,428.3 M195.5,428.3h-1.2c-0.1-0.4-0.3-0.9-0.6-1.4C194.3,427.3,194.9,427.8,195.5,428.3
	 M191.1,425.9c1.4,2,1.7,3.2,1.7,3.9c0,0.4-0.1,0.5-0.1,0.7c0,0.1-0.1,0.1-0.1,0.1c-0.3,0.2-1.1,0.5-2,0.5c-0.7,0-1.6-0.2-2.5-0.8
	c-1-0.7-1.8-1.8-2.3-2.7c-0.3-0.4-0.4-0.8-0.6-1c1.1-0.8,2.4-1.2,3.7-1.2c0.1,0,0.1,0,0.1,0l1.2,3.3l1.6-0.6L191.1,425.9z
	 M184.2,428.3h-1.9c0.5-0.2,1-0.5,1.5-0.8C183.9,427.8,184.1,428.1,184.2,428.3 M178.5,428.3h-3.2c0.1-0.5,0.1-1.2,0.1-1.8
	c0-0.1,0-0.2,0-0.3c0.1,0.1,0.2,0.1,0.2,0.2C176.7,427.4,177.6,428,178.5,428.3 M172.1,428.9l1.4-4.2l0.4,0.2c0,0.4,0,0.9-0.1,1.5
	c-0.1,1-0.2,2.3-0.2,2.5c0,0.1-0.3,0.4-0.6,0.7c-0.4,0.3-0.8,0.5-1.1,0.7c0,0-0.4,0.2-0.9,0.3c-0.5,0.1-1,0.2-1.4,0.2
	c-0.1,0-0.2,0-0.3,0c-0.5,0-1.3-0.6-1.9-1.4c-0.2-0.2-0.3-0.6-0.3-1.2c0-1.2,0.6-2.9,1.4-3.9c0.1-0.1,0.2-0.2,0.2-0.2
	c0.4-0.1,0.7-0.2,1-0.2l0.1,0c0.2,0,0.4,0,0.6,0c0.3,0,0.6,0,0.9,0.1l0.5,0.2l-1.5,4.4L172.1,428.9z M165.4,428.3H162
	c0.4-0.3,0.9-0.6,1.3-1c0.9-0.8,1.8-1.4,2.6-1.9c-0.3,0.9-0.5,1.8-0.5,2.7C165.4,428.2,165.4,428.3,165.4,428.3 M141.4,418.5
	c3.5-3.2,7-8.4,9.3-12.4c3.4-6,5.4-14,6.4-17.3c1.2-4,2.7-5.6,4.1-6.8c-0.9,1.6-1.4,3.4-1.8,4.7c-0.9,3.1-1.6,6.3-2.3,9.4
	c-1.4,5.7-6.7,21.6-9.5,27.8c-0.5,0.7-0.8,1.5-1.2,2.2c-0.4,0.7-0.9,1.2-1.9,1.5c-0.1,0-0.3,0.1-0.4,0.1c-0.6,0-1.2-0.5-1.8-2
	C141.8,424,141.4,421.6,141.4,418.5 M142,428.3h-1.6v-2.9c0.1,0.2,0.2,0.5,0.2,0.7C141,427,141.5,427.8,142,428.3 M146.5,379.4v30.2
	c-1.3,2-2.7,3.9-4.2,5.6v-35.7H146.5z M142.3,375.5v-37.3c0-0.5,0.2-1,0.6-1.3c0.4-0.4,1-0.6,1.5-0.6c1.1,0,2,0.8,2,1.8v37.4H142.3z
	 M146.5,317.6l-4.2-6.3v-33.2h0c0-1,0.9-1.9,2-1.9c0.6,0,1.1,0.2,1.5,0.6c0.4,0.4,0.6,0.8,0.6,1.3V317.6z M158.6,247.1v-1.5h-1.7
	v1.5h-1.5v1.7h1.5v3.1l-6.4,9.6v-18.7h15.1v19.7l-7-10.6v-3.1h1.5v-1.7H158.6z M157.7,253.7l7.9,11.9v0.1c-1-0.8-2.3-1.3-3.6-1.3
	c-1.7,0-3.3,0.8-4.2,2.1c-0.9-1.3-2.4-2.1-4.1-2.1c-1.2,0-2.4,0.4-3.3,1.2v-0.9L157.7,253.7z M163.2,333.7c1.8,0,3.2,1.4,3.3,3.1
	l-1,0.3l0.2,0.8c0.1,0.2,0.1,0.3,0.1,0.4c0,0.5-0.3,0.7-0.8,0.8c-0.4,0-0.7-0.2-0.9-0.7l-0.1-0.3l-0.2-0.5l-3.4,1.1
	c-0.4-0.5-0.6-1.1-0.6-1.8C159.9,335.1,161.4,333.7,163.2,333.7 M163.1,332.8V332c0.3,0.3,0.6,0.6,0.9,0.9c-0.2,0-0.5-0.1-0.7-0.1
	C163.2,332.8,163.1,332.8,163.1,332.8 M167.6,338.4L167.6,338.4l0.9-0.4l2.1,5.8l-0.7,0.3c-0.5-0.7-1.3-1.1-2.1-1.1
	c-1.3,0-2.7,1-2.7,2.6c0,0,0,0,0,0l-0.9,0.3l-2-5.9l0.9-0.3c0.5,0.7,1.4,1.1,2.2,1.1c0.6,0,1.2-0.2,1.7-0.6
	C167.3,339.8,167.6,339.1,167.6,338.4 M167.1,335.3c0.3,0.2,0.8,0.5,1.3,0.9l-1,0.3C167.3,336.1,167.2,335.7,167.1,335.3
	 M187.8,338.1v1.3c-0.7-0.9-1.4-1.7-2-2.5c0.7-0.4,1.4-0.8,2-1.2c-0.1,0.4-0.2,0.8-0.2,1.2C187.6,337.4,187.7,337.8,187.8,338.1
	 M186.9,341.1c-0.4,0.4-1.1,1.1-2,1.8c-1.1,0.9-2.3,2-2.4,3.7c0,0.2,0,0.3,0,0.5c0.1,0.6,0.6,1.6,1.2,3.3c1,2.4,2.5,5.8,4,8.7
	c0.7,1.4,1.4,2.8,2.1,3.8c0.7,1,1.1,1.7,1.8,2.2c0.6,0.5,1.3,1,2.1,1.2c2.2,0.7,4,1.1,4.9,3.1l1.6-0.7c-1.3-2.7-3.9-3.3-6-4
	c-0.1,0-0.1-0.1-0.2-0.1c0-0.1,0-0.3,0-0.4c0-1.7,0.5-4.7,0.7-6.1l-1.7-0.3c-0.2,1.2-0.6,3.6-0.7,5.5c-0.3-0.3-0.5-0.7-0.7-1.1
	c-1-1.9-1.5-4.7-1.7-7.4c-0.2-2.7-0.3-5.3-0.6-7l-1.7,0.3c0.3,1.7,0.3,5,0.7,8.3c-0.4-0.8-0.8-1.7-1.2-2.5c-0.8-1.7-1.5-3.4-2.1-4.7
	c-0.5-1.3-0.9-2.3-0.9-2.4c0-0.1,0-0.1,0-0.2c0-0.6,0.7-1.5,1.8-2.4c0.6-0.6,1.4-1.1,1.9-1.7c6.5,8.8,13.1,19.9,14.4,25.2
	c0.1,0.4,0.1,0.8,0.1,1.2c0,2.5-1.5,4.3-3,5.5c-0.5,0.4-1,0.7-1.5,1c0-0.2,0-0.4,0-0.7c0-1.1-0.2-2.5-1.1-3.7
	c-0.4-0.5-0.9-0.9-1.4-1.2c-1-0.8-2.3-1.4-3.9-1.6c0,0,0,0,0,0l-0.3-0.1l0,0l-0.1,0l-0.2,0c0,0,0,0-0.1,0c-0.1,0-0.5-0.3-0.9-0.8
	c-1.4-2.1-3.4-6.7-5.3-11.9c-1.7-4.7-2.8-9.7-3.4-12.4c0.6-0.3,1.2-0.5,1.8-0.9c0.7-0.5,1.4-1.2,1.7-2.1c0.1-0.5,0.2-1,0.2-1.6
	C185.5,339.3,186.2,340.2,186.9,341.1 M191.8,333.7c1.8,0,3.3,1.5,3.3,3.3c0,1.8-1.5,3.3-3.3,3.3c-1.8,0-3.3-1.5-3.3-3.3
	C188.5,335.2,189.9,333.7,191.8,333.7 M191.5,332.8c0.2-0.2,0.4-0.3,0.5-0.5v0.5c-0.1,0-0.2,0-0.3,0
	C191.7,332.8,191.6,332.8,191.5,332.8 M196.7,301v14.3c-0.6-2.2-1.6-4.4-2.9-6.2v-11.1C194.8,299,195.8,299.9,196.7,301
	 M193.9,295.9l2.8-4.3v6.9C195.8,297.6,194.9,296.7,193.9,295.9 M196.7,338.4v14c-0.9-1.5-1.9-3.1-3-4.7h0v-7.1
	c1.3-0.7,2.2-2.1,2.2-3.6c0-1.6-0.9-2.9-2.2-3.7v-3c1.4-1.8,2.4-3.9,2.9-6.1v11.3c-0.2,0.5-0.3,0.9-0.3,1.4
	C196.4,337.5,196.5,338,196.7,338.4 M192,341.1v4.2c-0.8-1.2-1.7-2.4-2.5-3.6v-1.3c0.7,0.4,1.4,0.7,2.3,0.7
	C191.8,341.1,191.9,341.1,192,341.1 M200.8,375.5c1.7-1.4,3.3-3.6,3.3-6.6c0-0.5,0-1-0.1-1.5l0,0l0,0c-0.3-1.3-0.9-2.8-1.6-4.5
	v-22.1c1.4-0.6,2.3-2,2.4-3.5v38.4H200.8z M204.8,379.4v20.4c-0.6-2.9-1.1-5.9-1.5-8.1c-0.3-1.9-1-4.9-1.9-7.6
	c-0.5-1.4-1-2.7-1.6-3.7c-0.2-0.3-0.4-0.7-0.6-0.9H204.8z M198.4,300.4v-8.9l6.4,9.6v11.8C203.4,308,201.2,303.9,198.4,300.4
	 M204.8,325.2v11.5c-0.1-1.6-1.1-2.9-2.4-3.5V311C203.9,315.1,204.7,319.9,204.8,325.2 M200.6,307v25.8h0c-0.8,0-1.6,0.2-2.2,0.6
	v-30.2C199.2,304.4,200,305.7,200.6,307 M198.4,288.4v-5.9l6.4,9.6v5.9L198.4,288.4z M198.4,279.5v-10.2h0c0,0,0,0,0,0V269
	c0-1.6,1.4-3,3.1-3c1.8,0,3.2,1.4,3.2,3h0V289L198.4,279.5z M201.5,264.3c-1.7,0-3.2,0.8-4,2.1c-0.9-1.3-2.5-2.1-4.2-2.1
	c-1.3,0-2.6,0.5-3.5,1.3l7.9-11.9l7.1,10.7v1.1C203.9,264.7,202.8,264.3,201.5,264.3 M200.6,333.7c1.8,0,3.3,1.5,3.3,3.3
	c0,1.8-1.5,3.3-3.3,3.3c-1.8,0-3.3-1.5-3.3-3.3C197.3,335.1,198.8,333.7,200.6,333.7 M200.6,341.1v18.2c-0.7-1.3-1.4-2.6-2.2-4
	v-14.8C199.1,340.9,199.8,341.1,200.6,341.1L200.6,341.1z M190.9,374.6l-6.6,3.6c-0.1-0.1-0.1-0.4-0.1-0.6c0.1-0.2,0.1-0.5,0.2-0.7
	l5.8-3.2l-0.6-1.1l-5.1,2.6c0.4-0.7,1.2-1.7,1.7-2.1c0.7-0.5,1.7-1.1,5.1-3c0.1,0,0.3,0,0.4,0c0.7,0.2,1.9,0.6,2.8,1.2
	c1.2,1,1.7,2.4,1.7,3.7c0,0.4-0.1,0.8-0.2,1.1c-0.8,0.5-3.5,1.7-3.5,1.7l-0.3-0.8l-6,3.4c0,0-0.8-0.7-0.9-0.8l6.4-3.8L190.9,374.6z
	 M176.9,377.7l-0.5-0.1c-2.1-0.3-4-1.9-4-4.2c0-0.2,0-0.4,0.1-0.6c0.3-2.1,2.1-3.9,4.6-3.9c0.3,0,0.6,0,1,0.1l0.5,0.1l0.3-0.4
	c0.7-1,2.1-1.7,3.3-1.7c0.9,0,1.9,0.1,2.7,0.5c1.8,0.8,2,2.9,2.1,3.5c-0.4,0.2-1.1,0.6-1.8,1c0-0.1,0-0.1,0-0.2
	c0-1.5-1.3-2.7-2.8-2.8c-1.2,0-2.1,0.7-2.5,1.7L179,371c-0.4-0.2-0.8-0.4-1.3-0.4c-1.5,0-2.8,1.2-2.8,2.8c0,1.5,1.3,2.8,2.8,2.8
	c0.3,0,0.5,0,0.8-0.1l0.4,0.3c0,0,0,0.1,0,0.2c0,1.5,1.3,2.8,2.8,2.8c0.6,0,1.1-0.2,1.5-0.5c0,0.1,0.1,0.3,0.1,0.5
	c0.4,0.9,1.3,1.7,1.5,1.9c-0.3,0.2-1.5,0.5-2.2,0.6c-0.4,0.1-1.2,0.1-1.6,0c-1.5-0.3-3.2-1-3.9-3.5L176.9,377.7z M177,381.1
	c-0.3-0.1-0.5-0.3-0.8-0.5c-0.8-0.5-1.6-1-2.4-1.5l1.8,0c0,0,0.1,0,0.1,0C176,380,176.5,380.6,177,381.1 M154.6,333.7
	c1.8,0,3.3,1.5,3.3,3.3c0,1.8-1.5,3.3-3.3,3.3c-1.8,0-3.3-1.5-3.3-3.3C151.3,335.1,152.7,333.7,154.6,333.7 M154.4,332.8v-25.3
	c0.7-1.5,1.5-2.8,2.4-4.1v30.1c-0.7-0.4-1.4-0.7-2.3-0.7C154.5,332.8,154.5,332.8,154.4,332.8 M156.8,340.4v16.9
	c-0.5,0.8-0.9,1.6-1.3,2.4c-0.4,0.7-0.7,1.4-1.1,2.1v-20.7c0,0,0.1,0,0.1,0C155.4,341.1,156.2,340.8,156.8,340.4 M153.4,368.7
	L153.4,368.7l0-0.1c0.1-1,1.5-4.2,3.6-8.1c1.8-3.4,4.1-7.3,6.4-11l2,5.8l3.9-1.4l-0.2-0.8c0-0.1,0-0.2,0-0.3c0-0.6,0.5-0.9,1-0.9
	c0.4,0,0.6,0.1,0.8,0.7l0.3,0.8l0,0c-1,2.8-3,7.9-3.8,10.1c-1.9,1.6-4.6,5.4-5.6,6.9c0.3-4.2,2.2-13.2,2.8-14.6l-1.6-0.6
	c-1.1,2.8-2.7,11.7-2.8,16.4c0,1,0.1,1.8,0.3,2.5c0.4,1.3,1.5,2.4,3,2.4h0c1.3,0,2.8-0.7,4.5-2.1c-1,2-2.8,3.4-5.3,4.2
	c-0.3,0.1-0.6,0.1-0.9,0.1c-1.6,0-3.9-1.2-5.7-3.1c-1.8-1.8-3-4.2-3-6C153.3,369.4,153.3,369,153.4,368.7 M166.7,345.5
	c0-0.5,0.5-0.9,1-0.9c0.4,0,0.6,0.1,0.8,0.7c0,0.1,0,0.2,0,0.3c0,0.5-0.5,0.9-1,0.9c-0.4,0-0.6-0.1-0.8-0.7v0
	C166.7,345.7,166.7,345.6,166.7,345.5 M167.5,348.3L167.5,348.3c1.4,0,2.7-1,2.8-2.6l0.8-0.3l2,5.7l-0.5,0.1l-0.4,0.1
	c-0.5-0.7-1.3-1.1-2.1-1.1c-1.3,0-2.7,1-2.7,2.6l-0.9,0.3l-1.9-5.6l0.9-0.3C166,347.9,166.8,348.3,167.5,348.3 M177.9,339.8h0.2
	c0.2,0,0.4,0,0.6,0h0c3-0.3,4.2-2.1,4.5-2.8c-0.1,1.1-0.1,2.3-0.3,2.7l0,0l0,0c-0.2,0.6-0.4,0.8-0.9,1.2c-0.5,0.3-1.3,0.6-2.2,1.1
	l-0.6,0.3l0.2,0.7c0.2,0.7,0.4,1.7,0.7,2.9c-0.6,0.5-1.4,0.8-2.1,0.8c0,0-0.1,0-0.1,0c-0.8,0-1.6,0.1-2.6-0.7
	c0.4-1.1,0.6-2.1,0.8-2.8l0.2-0.7l-0.7-0.3c-2.1-0.7-3.2-2.4-3.4-3.2c0-0.4-0.2-0.9-0.3-1.4c-0.1-0.6,0-1.1,0-1.1
	S173.5,339.7,177.9,339.8 M175.7,332.8h4c0,0.5-0.9,1.6-2,1.6C176.6,334.4,175.7,333.3,175.7,332.8 M173.9,348.5l0.7-1.1
	c0,0,1.4,0.7,2.9,0.7c1.7,0,3-0.8,3.2-0.8c0.5,2.1,4.1,15.3,9,21.7c0,0.2-0.4,0.4-1,0.7c-1.1-3.4-3.1-4.7-6.7-4.7
	c0-1.2,0-3.1-0.4-4.3c-0.7-1.3-1.2-2.6-1.3-3c-0.2-0.4-0.5-0.8-0.7-1.1c-0.5-0.6-0.9-1.1-1.9-1.2c-0.1,0-0.3,0-0.4,0.1
	c0,0-0.6,0-0.8,0.1C175.9,354.3,174.6,350.8,173.9,348.5 M175,356.2c-0.3,0.1-0.6,0.2-0.7,0.2c0,0,0,0,0,0l-1.2-3.6l0.2-0.1l0.5-0.2
	L175,356.2z M174.2,343.3c-0.2,0.8-0.6,1.9-0.9,3.1l-0.8-2.2l0,0l-1.3-3.5C171.8,341.6,172.8,342.6,174.2,343.3 M172.7,357.4
	c-0.5,0.6-0.9,1.3-1.3,2c-0.5,0.9-1,1.8-1.5,2.2c0.6-1.7,1.5-3.8,2.3-5.8L172.7,357.4z M170.8,372.3l0.1-0.1l0,0
	c0,0.1-0.1,0.3-0.1,0.4c0,0.3-0.1,0.6-0.1,0.9c0,1.6,0.7,3,1.7,4l-3.5,0c0,0-0.1,0-0.2,0c-0.2,0-0.4,0-0.6,0
	C169.5,376,170.4,374.3,170.8,372.3 M171.5,369.6c-0.5,0.4-1,0.7-1.4,1c-0.2,0.1-0.4,0.3-0.5,0.4c-0.1,0.1-0.2,0.1-0.3,0.3
	c-2.8,2.7-4.7,3.6-5.6,3.6c-0.7,0-1-0.3-1.5-1.3c-0.1-0.1-0.1-0.4-0.1-0.8c0.7-0.9,1.9-2.7,3.3-4.6c1.6-2.1,3.6-4.3,4.7-4.8
	c1.5-0.6,2.1-2.1,2.8-3.2c0.6-1.2,1.3-2.1,1.8-2.2c0.6-0.2,2.4-0.7,2.8-0.8c0.1,0.1,0.3,0.3,0.5,0.6l-1.9,0.8l0.4,1.2l2.2-0.6
	c0.1,0.2,0.4,0.6,0.5,0.8v0.2l-2.1,1l0.4,1.1l2.2-0.6c0.1,0.2,0.1,0.6,0.2,0.9l-1.9,1l0.5,1l1.7-0.3c0,0.1,0,0.2,0,0.3
	c0,0.3,0,0.2-0.1,0.3c0,0,0,0,0,0c-0.9,0.3-4,1.8-5.9,2.8v0C173.7,368.1,172.5,368.9,171.5,369.6 M182.6,375.6
	c0.1,0.1,0.1,0.1,0.1,0.2c0,0.4-0.1,1,0,1.4c-0.2,0.4-0.6,0.6-1.1,0.6c-0.7,0-1.3-0.6-1.3-1.3c0,0,0-0.1,0.1-0.3l0.1-0.5l-1.5-1
	l-0.4-0.2l-0.4,0.2c-0.2,0.1-0.4,0.1-0.6,0.1c-0.7,0-1.3-0.6-1.3-1.3c0-0.7,0.6-1.3,1.3-1.3c0.3,0,0.5,0.1,0.8,0.3l0.3,0.2l2-0.7
	l0.3-0.1l0.1-0.4c0.2-0.6,0.6-1,1.3-1c0.7,0,1.3,0.6,1.3,1.3c0,0.5-0.3,1-0.8,1.2l-0.4,0.2l-0.2,2l0,0.3L182.6,375.6z M184.4,327.8
	c0,0-0.2,0.7-0.7,1.5c-0.4,0.7-0.4,0.4-1.2,1.6c0,0-1.4-1.1-2.6-1.3V328h-0.7l0,1.5h-0.4v-0.4h-0.6v0.6c0,0.6-1,0.7-1,0v-0.6h-0.6
	v0.4h-0.4V328h-0.8v1.5c0,0-1.6,0.5-2.3,1.1c-0.4-0.3-2.2-0.9-2.4-2.8c-0.4,0-0.5,0-0.5,0c0,0-0.9-2.2-1.3-5c0.8-0.4,2-1.8,1.9-2.4
	c0.5,0.4,0.8,0.6,1.6,0.6c0.7,0,1.7-0.5,2-1c0.5,0.3,2.4,1,3.4-0.6c0.4,0.4,0.8,1,1.6,1c0.8,0,1.8-0.4,1.8-0.4s0.6,1,2,1
	c1.4,0,1.6-0.6,1.6-0.6s1.3,2,2.4,2.4c-0.2,0.7-1.1,3.8-1.7,5C184.5,327.8,184.4,327.8,184.4,327.8 M161.3,333.3
	c-1.4,0.7-2.3,2.1-2.3,3.7c0,1,0.4,2,1.1,2.7l0,0.1l1.2,3.6h0v6.3c-1,1.5-1.9,3.1-2.8,4.6v-14.8h0v-1.3c0.1-0.4,0.2-0.8,0.2-1.3
	c0-0.4-0.1-0.9-0.2-1.3v-1.5h0v-10.5c0.5,2.2,1.5,4.2,2.8,6.1V333.3z M158.6,298.6v-7.1l2.9,4.4
	C160.5,296.7,159.5,297.6,158.6,298.6 M161.3,298.3v11.3c-1.3,1.9-2.2,4-2.8,6.3v-14.7C159.4,300.1,160.4,299.1,161.3,298.3
	 M150.5,269c0-1.6,1.5-3,3.2-3c1.7,0,3.1,1.4,3.1,3h0c0,0.1,0,0.2,0,0.3v10.2l-6.4,9.6L150.5,269L150.5,269z M156.8,282.6v5.9
	l-6.4,9.6v-5.9L156.8,282.6z M156.8,291.5v9c-2.8,3.5-5,7.7-6.4,12.5v-11.9L156.8,291.5z M150.5,325.5c0-5.1,0.8-9.7,2.2-13.9v21.6
	c-1.2,0.6-2,1.6-2.2,2.9L150.5,325.5L150.5,325.5z M152.7,340.6v24.8c-0.5,1.2-0.8,2.1-0.9,2.9c-0.1,0.5-0.2,1-0.2,1.5
	c0,2,0.9,4,2.2,5.7h-3.3v-37.8C150.7,339,151.6,340.1,152.7,340.6 M158.2,379.4c0.8,0.4,1.6,0.8,2.4,1c-0.1,0.1-0.2,0.2-0.3,0.2
	c-1.6,1.4-3.4,3.4-4.7,7.7c-0.9,2.9-2.5,9.1-5,14.4v-23.3H158.2z M148.4,426c0.3-0.5,0.5-1,0.7-1.2c0.2-0.2,0.3-0.3,0.7-0.3
	c0.5,0,0.8,0,1.2,0.3c0.4,0.2,0.9,0.8,1.7,1.8c0.5,0.6,1.1,1.2,1.9,1.8h-7.9C147.5,427.6,148,426.7,148.4,426 M204.8,261.3l-6.4-9.6
	v-2.9h1.6v-1.7h-1.6v-1.5h-1.7v1.5h-1.5v1.7h1.5v3.2l-7,10.6v-19.8h15.1V261.3z M190.7,267c0.7-0.6,1.6-1,2.5-1
	c1.9,0,3.4,1.5,3.4,3.3v10.2l-7,10.5v-20.9C189.7,268.3,190.1,267.5,190.7,267 M196.7,282.6v5.9l-4.2,6.5c-0.9-0.6-1.9-1.2-2.8-1.7
	v-0.1L196.7,282.6z M192,296.7v10.4c-0.9-0.9-1.9-1.8-2.9-2.5v-9.7C190.1,295.4,191.1,296,192,296.7 M165.8,304.9
	c-1,0.7-1.9,1.6-2.8,2.5v-10.5c0.9-0.7,1.8-1.3,2.8-1.8V304.9z M162.9,294.9l-4.3-6.5v-5.9l7.1,10.6
	C164.7,293.7,163.8,294.3,162.9,294.9 M158.6,279.5v-10.2c0-1.8,1.5-3.3,3.4-3.3c1,0,1.9,0.4,2.6,1c0.6,0.5,0.9,1.2,1,1.9l0,21.1
	L158.6,279.5z M154,231.9h-3.5v-15.6h0l0,0v0l-1.1-1.9v-6.2h1.5v-1.7h-1.5V205h-1.7v1.5h-1.5v1.7h1.5v6.2l-1.1,1.8h0v16.1l-10.1,15
	v-40.7c5.7-2,11.5-3.5,17.5-4.7V231.9z M146.5,235.5v32.4l-4.2-6.3v-5h1.6v-1.7h-1.6v-1.5h-1.7v1.5h-1.5v1.7h1.5v5l-4.2,6.3v-17.3
	L146.5,235.5z M141.5,263.4l5,7.6v4.2c-0.6-0.4-1.4-0.6-2.2-0.6c-1.2,0-2.2,0.5-2.9,1.3c-0.7-0.8-1.7-1.3-2.9-1.3
	c-0.8,0-1.5,0.2-2.1,0.6V271L141.5,263.4z M138.6,276.2c1.1,0,2.1,0.9,2.1,1.9v33.2l-4.2,6.3v-39.5
	C136.5,277.1,137.4,276.2,138.6,276.2 M141.5,313.1l5,7.6v14.5c-0.6-0.4-1.3-0.6-2-0.6c-1.2,0-2.3,0.5-3,1.4c-0.7-0.8-1.8-1.4-3-1.4
	c-0.8,0-1.5,0.2-2.1,0.6v-14.5L141.5,313.1z M138.5,336.3c1.1,0,2.1,0.9,2.1,1.9v37.3h-4.2v-37.4
	C136.5,337.2,137.4,336.3,138.5,336.3 M140.6,379.4V417c0,0-0.1,0.1-0.1,0.1v-3.9l-4-7.1v-26.7H140.6z M137.9,413.8V429l-2.1,1.8
	v-20.6L137.9,413.8z M217.4,429v-15.2l2-3.6v20.6L217.4,429z M218.8,247.3l-10.1-15v-15.9h0l0,0v0h0l-1.1-1.8v-6.2h1.6v-1.7h-1.6
	V205h-1.7v1.5h-1.6v1.7h1.6v6.2l-1.1,1.8h0v15.6h-3.5V202c6,1.1,11.9,2.7,17.5,4.7V247.3z M204.8,241.1h-15.1v-7.5h15.1V241.1z
	 M189.7,231.9v-12.2h0c0-1.1,0.8-1.9,1.6-1.9c0.4,0,0.8,0.2,1.1,0.5c0.3,0.3,0.5,0.8,0.5,1.4v12.2H189.7z M194.6,231.9v-12.2v0
	c0-1.1,0.9-1.9,1.9-1.9c0.5,0,1.1,0.2,1.5,0.6c0.4,0.4,0.6,0.8,0.6,1.4h0v12.1H194.6z M198.7,213.5v3.2c-0.6-0.4-1.3-0.6-2.1-0.6
	c-1.1,0-2.1,0.5-2.8,1.3c-0.6-0.8-1.5-1.3-2.5-1.3c-0.8,0-1.5,0.3-2.1,0.8v-4l4.5-6.8L198.7,213.5z M189.2,196.9
	c0.1-1,0.9-1.8,1.8-1.8c1,0,1.8,0.8,1.8,1.9v7.2l-3.7,5.5V197h0C189.2,197,189.2,197,189.2,196.9 M183.8,170.7
	c3,0.1,6.1,0.3,9.1,0.6v16.2l-4.5-11.4l-4.6,11.5V170.7z M183.8,193.4L183.8,193.4c0-0.1,0-0.2,0-0.2v-0.8l4.6-11.5l4.5,11.4v1.8
	c-0.5-0.3-1.2-0.5-1.8-0.5c-1.1,0-2,0.5-2.7,1.3c-0.7-0.8-1.6-1.3-2.7-1.3c-0.7,0-1.3,0.2-1.8,0.5V193.4z M183.8,197
	c0-1.1,0.9-1.9,1.8-1.9c1,0,1.8,0.8,1.8,1.8c0,0,0,0.1,0,0.1v12.7l-3.7-5.5V197z M187.5,212.9v4.1c-0.6-0.5-1.3-0.9-2.2-0.9
	c-1,0-1.8,0.5-2.4,1.2c-0.6-0.7-1.6-1.2-2.6-1.2c-0.7,0-1.3,0.2-1.8,0.5v-3.9l4.4-6.6L187.5,212.9z M178.5,209.6v-16.2
	c0-1.1,0.8-1.9,1.8-1.9c0.9,0,1.7,0.8,1.8,1.8v11L178.5,209.6z M173.2,170.6c1.5,0,3-0.1,4.5-0.1c1.5,0,2.9,0,4.4,0.1v12.1
	l-4.5-11.4l-4.4,11.2V170.6z M173.2,187.2l4.4-11.2l4.5,11.4v2.9c-0.5-0.3-1.1-0.5-1.8-0.5c-1.1,0-2,0.5-2.7,1.3
	c-0.6-0.8-1.6-1.3-2.7-1.3c-0.7,0-1.3,0.2-1.8,0.5V187.2z M173.2,193.2c0.1-1,0.9-1.7,1.8-1.7c1,0,1.8,0.8,1.8,1.9v0v16.4l-3.7-5.5
	V193.2z M176.8,212.9v3.7c-0.5-0.3-1.2-0.5-1.8-0.5c-1.1,0-2,0.5-2.7,1.3c-0.6-0.7-1.5-1.2-2.5-1.3c-0.8,0-1.5,0.3-2.1,0.8v-4
	l4.5-6.8L176.8,212.9z M167.8,209.8V197c0-1.1,0.9-1.9,1.8-1.9c1,0,1.8,0.8,1.8,1.9v7.2L167.8,209.8z M162.4,171.3
	c3-0.3,6-0.5,9.1-0.6v16.8l-4.5-11.4l-4.6,11.6V171.3z M162.4,192.3l4.6-11.6l4.5,11.4v1.1c0,0.1,0,0.1,0,0.2h0v0.5
	c-0.5-0.3-1.2-0.5-1.8-0.5c-1.1,0-2,0.5-2.7,1.3c-0.6-0.8-1.6-1.3-2.7-1.3c-0.7,0-1.3,0.2-1.8,0.5V192.3z M162.4,197
	c0-1.1,0.8-1.9,1.8-1.9c1,0,1.8,0.8,1.8,1.9c0,0,0,0,0,0h0v12.7l-3.7-5.5V197z M166,212.9v4.1c-0.6-0.5-1.3-0.9-2.2-0.9
	c-1,0-1.9,0.5-2.4,1.2c-0.7-0.7-1.6-1.2-2.7-1.2c-0.8,0-1.5,0.2-2.1,0.6v-3.2l4.9-7.4L166,212.9z M156.6,210.4v-8.8
	c1.3-0.2,2.7-0.4,4-0.6v3.3L156.6,210.4z M76.3,350.9H72c1.4-0.7,2.3-2.1,2.3-3.7c0-1.6-1-3-2.4-3.7h4.3V350.9z M68.3,343.5
	c-1.4,0.7-2.4,2.1-2.4,3.7c0,1.6,1,3,2.3,3.7h-3.9v-7.4H68.3z M64.4,340.9V333h0c0-0.5,0.3-1,0.7-1.4c0.5-0.4,1.1-0.7,1.8-0.6
	c1.4,0,2.4,1,2.4,2.1v7.9H64.4z M66.8,347.2c0-1.8,1.5-3.3,3.3-3.3c1.8,0,3.3,1.5,3.3,3.3c0,1.8-1.5,3.3-3.3,3.3
	C68.3,350.5,66.8,349,66.8,347.2 M76.3,340.9h-5.2V333c0-1.1,1-2.1,2.5-2.1c0.7,0,1.4,0.3,1.9,0.7c0.5,0.4,0.8,0.9,0.8,1.4h0V340.9z
	 M76.3,330c-0.8-0.5-1.7-0.8-2.7-0.8c-1.3,0-2.6,0.6-3.3,1.5c-0.8-0.9-2-1.5-3.3-1.5c-0.9,0-1.9,0.3-2.6,0.8v-4.1l5.9-8.9l6,9l0.1,0
	V330z M76.3,323l-5.2-7.8V312h1.5v-1.7h-1.5v-1.5h-1.7v1.5h-1.5v1.7h1.5v3.3l-5,7.6v-12.1l11.9-16.8V323z M76.3,290.9l-11.9,16.8
	v-20.2l-1.3-2.1l-1.3,2.1h0h0v66h14.5v38.1C62.2,371.9,54,347.8,54,321.8c0-26,8.2-50.1,22.3-69.9V290.9z M76.3,243.2L76.3,243.2
	L76.3,243.2L76.3,243.2L76.3,243.2l0,5.8c-15.1,20.4-24,45.6-24,72.8c0,27.2,8.9,52.4,24,72.8v40.5c-2.4-2.1-4.7-4.2-7-6.4
	c-27.7-27.4-44.9-65.1-44.9-106.9c0-41.8,17.1-79.5,44.9-106.9c24-23.6,55.8-39.5,91.3-43.3v27.7c-1.3,0.2-2.7,0.4-4,0.6v-20.3h0
	l-1.3-1.6l-1.3,1.6h0v0l0,0h0v20.7c-6,1.1-11.9,2.7-17.5,4.6v-4.5h0l-1.9-3.2l-2,3.2h0v5.9c-3.9,1.5-7.7,3.1-11.3,5v-4.5l-2.6,4.2
	v1.7c-8.7,4.6-16.8,10.2-24.2,16.6v-4.5l-2.6,4v2.9c-4.1,3.8-8,7.9-11.5,12.2v-0.8h0l-1.9-3.2L76.3,243.2z M115.9,438.3v-1.7h1.7
	v-1.7h1.8v1.7h1.7v1.7h-1.7v1.7h-1.8v-1.7H115.9z M80.2,433.5v-2.6h49.2l3,2.6H80.2z M107.5,438.3v-1.7h1.7v-1.7h1.8v1.7h1.7v1.7
	H111v1.7h-1.8v-1.7H107.5z M99.2,438.3v-1.7h1.7v-1.7h1.7v1.7h1.7v1.7h-1.7v1.7h-1.7v-1.7H99.2z M90.9,438.3v-1.7h1.7v-1.7h1.7v1.7
	h1.7v1.7h-1.7v1.7h-1.7v-1.7H90.9z M98.4,255.1l3.2,4.8v16.9h-2.3v-14l0.8-1.3l-1.7-2.6l-1.7,2.6l0.8,1.3v14h-3.2V261L98.4,255.1z
	 M94.4,258v-26.4c1-0.9,2.1-1.9,3.2-2.8v24.4L94.4,258z M118.5,261v15.7h-3.2v-14l0.8-1.3l-1.7-2.6l-1.7,2.6l0.8,1.3v14h-2.3v-16.9
	l3.2-4.8L118.5,261z M115.4,253.3v-36.9c1.1-0.6,2.1-1.2,3.2-1.8v43.3L115.4,253.3z M112.3,327.8v3.3c-1.4-0.2-2.9-0.4-4.5-0.4v-0.1
	l5.4-8.1l5.4,8.1v2.3c-1.4-0.6-2.9-1.1-4.5-1.5v-3.6H112.3z M107.8,327.4v-22.7c0.4-0.5,1.2-0.9,2-0.9c1.5,0,2.5,1,2.5,2.1v14.7
	L107.8,327.4z M114,320.6v-14.7h0c0-1.1,1-2.1,2.2-2.1c0.6,0,1.2,0.2,1.6,0.6c0.4,0.4,0.7,0.9,0.7,1.4h0v21.5L114,320.6z
	 M116.2,302.1c-1.2,0-2.3,0.6-3.1,1.5c-0.8-0.9-2-1.5-3.3-1.5c-0.7,0-1.4,0.2-2,0.5v-1l5.2-14.2l5.6,15.2v0.3
	C117.9,302.4,117,302.1,116.2,302.1 M113,282.4l-5.2,14.2v-18.2h10.8v19.1L113,282.4z M113.6,236.5l-3.2-4.8l-3.1,4.7v-15
	c2.1-1.4,4.2-2.8,6.3-4V236.5z M110.5,234.8l3.2,4.7v13.7l-2.3,3.5v-11.9h1.6v-1.7h-1.6v-3.3h-1.7v3.3h-1.5v1.7h1.5v11.9l-2.3-3.5
	v-13.7L110.5,234.8z M109.6,259.8v16.9h-2.3v-14l0.8-1.3l-1.7-2.6l-1.7,2.6l0.8,1.3v14h-2.3v-16.9l3.2-4.8L109.6,259.8z
	 M105.6,236.5l-3.2-4.8l-3.2,4.8v-9c2.1-1.7,4.2-3.3,6.3-4.8V236.5z M102.4,234.8l3.2,4.7v13.7l-2.3,3.5v-11.9h1.7v-1.7h-1.7v-3.3
	h-1.7v3.3h-1.4v1.7h1.4v11.9l-2.3-3.5v-13.7L102.4,234.8z M105.1,278.4v18.7l-5.4-14.7l-5.4,14.7v-18.8H105.1z M99.8,287.4l5.4,14.7
	v0.5c-0.6-0.3-1.3-0.5-2-0.5c-1.3,0-2.6,0.6-3.3,1.5c-0.8-0.9-1.9-1.5-3.2-1.5c-0.8,0-1.6,0.3-2.2,0.7v-0.6L99.8,287.4z
	 M105.1,304.7v22.7l-4.5-6.8v-14.7c0-1.1,1-2.1,2.5-2.1C104,303.8,104.7,304.2,105.1,304.7 M96.6,303.8c1.2,0,2.3,1,2.3,2.1v14.7
	l-4.5,6.8v-21.7C94.5,304.7,95.4,303.8,96.6,303.8 M99.7,322.4l5.4,8.1v0.1c-1.6,0-3.1,0.2-4.5,0.4v-3.3h-1.7v3.7
	c-1.6,0.4-3.1,0.9-4.5,1.4v-2.3L99.7,322.4z M106.4,332.3c12,0,18.4,5.4,22,11c1.9,3,3,6.2,3.6,8.6c-0.8-0.4-1.7-0.7-2.6-0.7v0h-0.2
	v0c-1.3,0.1-2.5,0.5-3.5,1.3c-0.7-4.2-2.8-8.3-5.7-11.7c-3.4-3.8-7.8-6.7-12.5-7c-0.2,0-0.4,0-0.5,0c-0.1,0-0.2,0-0.3,0h-0.1v0h0v0
	c-0.7,0-1.4,0.1-2,0.2c-4.3,0.7-8.4,3.3-11.5,6.8c-3,3.3-5.2,7.4-5.9,11.6c-0.9-0.8-2.2-1.2-3.6-1.2h0c-0.9,0-1.8,0.2-2.5,0.5
	c0.6-2.3,1.7-5.4,3.6-8.3C88.1,337.7,94.5,332.3,106.4,332.3 M130.2,368.3V353c0.5,0.1,1,0.4,1.3,0.7c0.6,0.5,0.9,1,1,1.7v50.8
	l-2.3,4.1v-28.5c0-0.1,0-0.1,0-0.2L130.2,368.3L130.2,368.3z M125.7,333.6v3.8c-1.2-1.2-2.7-2.2-4.3-3.2l5.2-7.9l6,8.9v12.5
	c-0.6-1.7-1.5-3.6-2.7-5.4c-0.7-1.1-1.5-2.2-2.4-3.2v-5.6H125.7z M127.4,324.6v-18.7c0-1.1,1-2.1,2.5-2.1c0.7,0,1.4,0.3,1.9,0.7
	c0.5,0.4,0.7,0.9,0.7,1.4v26.4L127.4,324.6z M132.5,302.9c-0.7-0.5-1.6-0.8-2.6-0.8c-1.3,0-2.5,0.6-3.3,1.5
	c-0.7-0.9-1.9-1.5-3.1-1.5c-0.8,0-1.5,0.2-2.2,0.6l5.6-15.2L132.5,302.9z M127.6,284.6v-74.4c1.6-0.7,3.2-1.4,4.9-2v89.7
	L127.6,284.6z M125.9,285.1l-4.8,12.9v-84.8c1.6-0.8,3.1-1.6,4.8-2.3V285.1z M123.4,303.8c1.2,0,2.3,1,2.3,2.1v18.7l-4.5,6.9v-25.7
	C121.2,304.8,122.2,303.8,123.4,303.8 M112.2,421.8c0,0.6,0,1.1,0,1.4c0,0.2,0,0.3,0,0.4c0,0,0,0,0,0.1c-0.1,0.1-0.1,0.2-0.2,0.3
	v-8.6c0.1-1.5,0.2-3.2,0.2-5c0.1,0.1,0.2,0.2,0.2,0.3v0l0,0c0.1,0.1,0.2,0.2,0.3,0.3c0.3,0.4,0.3,0.6,0.3,0.9c0.1,0.7-0.9,2.1-0.9,5
	C112.1,418.4,112.2,420.3,112.2,421.8 M91.9,417.1c0,0.1-0.4-2.2,0.1-3.2c0.2,0.1,0.5,0.2,0.8,0.3c0.5,0.2,1.1,0.2,1.6,0.2
	c1.3,0,2.4-0.3,3.6-0.3c0.3,0,0.6,0,0.8,0.1c1.2,0.1,2.2,0.6,3,1.1c0.4,0.2,0.7,0.4,0.9,0.6l0.4,4.8
	C101.1,420,95.4,418.5,91.9,417.1 M100.8,421.5v6.9h-3v-7.7C98.9,420.9,99.9,421.2,100.8,421.5 M96.1,420.1v8.3h-3V419
	c0.1,0,0.2,0.1,0.2,0.1C94.1,419.4,95.1,419.7,96.1,420.1 M90.1,411.2c-0.6-0.2-1.1-0.4-1.6-0.4v-55.3c0-0.7,0.4-1.3,1-1.9
	c0.5-0.4,1.2-0.7,1.9-0.8v58.9C91.1,411.6,90.7,411.5,90.1,411.2 M91.4,421.6v3.5l-0.4-1.6C91.1,423.2,91.2,422.4,91.4,421.6
	 M89.3,423.8l0.9,3.5c-0.7-0.2-1.5-0.6-2.4-1.5c-0.7-0.7-1.1-1.7-1.1-3.1v-0.2c0-0.9,0.3-2.5,0.6-3.7c0.3-1.2,0.5-2.2,0.5-2.2
	c0-0.2,0-0.3,0-0.5c0,0-0.1-0.4-0.3-0.9c-0.1-0.5-0.3-1.2-0.3-1.7c0-0.3,0.1-0.5,0.1-0.5c0.4-0.5,0.4-0.5,0.8-0.6h0
	c0.3,0,0.7,0.1,1.3,0.3c0.4,0.1,0.7,0.3,1,0.4c-0.2,0.5-0.3,1.1-0.3,1.9c0,0.8,0.1,1.7,0.5,2.7c-0.1,0.2-0.2,0.4-0.2,0.6
	c-0.2,0.9-1.1,5-1.1,5C89.2,423.5,89.2,423.7,89.3,423.8 M86.1,416.4c-0.2,0.9-1.1,4.1-1.1,6.1c0,0.1,0,0.1,0,0.2
	c0,1.7,0.5,3.3,1.6,4.3c0.6,0.6,1.2,1,1.8,1.3h-3.8V353c1.5,0.4,2.3,1.4,2.3,2.6v55.6c-0.4,0.3-0.7,0.6-0.9,1
	c-0.3,0.5-0.3,0.9-0.3,1.4C85.5,414.7,85.9,415.9,86.1,416.4 M88.8,352.1c0.8-3.6,2.7-7.2,5.4-10.2c1.4-1.5,2.9-2.8,4.5-3.9
	c-0.6,1-1,2.1-1.4,3.2c-1,3.3-1.2,7.3-1.2,11.1c-1-0.8-2.4-1.2-3.8-1.2h0C91,351.2,89.8,351.5,88.8,352.1 M127.5,370l-1.6,1.2
	l-1.6-1.2H127.5z M125.9,368.3v-12.8c0-0.7,0.4-1.3,1-1.9c0.4-0.4,1-0.6,1.6-0.8v15.4H125.9z M125.2,371.8l-2.7,2.1l-2.6-2l2.3-1.8
	h0.8L125.2,371.8z M121.2,404v-13.1c0.6-0.1,1.1-0.1,1.6-0.2c0.5-0.1,0.9-0.2,1.3-0.4V425c-1-0.2-2-0.4-2.8-0.6c0,0-0.1,0-0.1,0
	l0-9.8c0.9-2.6,1.6-5,1.6-6.2C122.8,406,121.7,404.6,121.2,404 M123.4,388.8C123.4,388.8,123.4,388.8,123.4,388.8
	c-0.4,0.2-1.7,0.4-2.8,0.5c-0.6,0.1-1.1,0.1-1.4,0.1l-1-2.4c0-0.2,0.1-0.6,0.9-1.1c0.8-0.5,2.5-1.2,3.5-1.4c0.2,0,0.3-0.1,0.4-0.1
	c0.3,0,0.5,0.1,0.6,0.2c0,0,0,0,0,0c0,0-0.1,0.1-0.2,0.1c-0.6,0.3-1.1,0.5-1.6,0.7c-0.2,0.1-0.5,0.2-0.7,0.4c-0.2,0.1-0.6,0.5-0.6,1
	c0,0.1,0,0.2,0,0.3c0.1,0.3,0.3,0.5,0.5,0.7c0.2,0.1,0.5,0.1,0.6,0.1c0.9,0,1.7-0.5,2.5-0.8c1-0.5,2.9-1.3,3.4-1.3
	c0.1,0.1,0,0,0,0.1c0,0.1-0.1,0.3-0.3,0.6c-0.2,0.2-1.1,0.8-2,1.3C124.4,388.2,123.6,388.7,123.4,388.8 M120,412.8l-5.3-1.2
	c-0.1-0.4-0.2-0.8-0.4-1.1l6.1-4.8c0.2,0.3,0.3,0.6,0.5,1l0.2,2.5l0.1-0.6c0,0.2-0.1,0.4-0.1,0.7v0c0,0,0,0,0,0
	c-0.1,0.3-0.1,0.5-0.2,0.8l0.1-0.5C120.6,410.5,120.1,412.5,120,412.8 M116.9,422.6c0,0-2.9,0.8-2.9,0.8c-0.1,0-0.1,0-0.2,0
	c0-0.4,0-1,0-1.6c0-1.6-0.1-3.5-0.1-4.9c0-1.8,0.4-2.8,0.6-3.7l5.1,1.2L116.9,422.6z M119.5,423.6c-0.5-0.4-0.9-0.7-1.3-0.9
	c0.3-0.8,0.8-2,1.3-3.3L119.5,423.6z M112.2,404.8l0.7-0.9l0-1.7l2.7-1.9l3.7,4.1l-6.2,4.8c-0.3-0.3-0.6-0.5-0.9-0.8
	C112.2,407.5,112.2,405.4,112.2,404.8 M99.3,407.1c0.3,0.3,0.7,0.4,0.9,0.5c0.1,0.3,0.1,0.6,0.2,1.2c0.2,1.1,0.9,3,1.4,4.5
	c-0.8-0.4-1.7-0.7-2.8-0.8c-0.4,0-0.7-0.1-1.1-0.1c-0.1,0-0.1,0-0.2,0V388c0.3,0.7,0.6,1.4,0.8,2.2c0.7,1.9,1.4,3.7,1.6,4.1
	c0,0.1,0.1,0.5,0.1,0.8c0,0.5-0.1,1-0.2,1.1c-1.1,1.9-1.7,4.7-1.7,8.2C98.4,405.6,98.7,406.5,99.3,407.1 M98.9,386
	c-0.2-0.6-0.4-1-0.5-1.2c0-0.1-0.4-0.9-0.6-2c-0.3-1-0.5-2.3-0.5-3.4c0-0.8,0.1-1.6,0.4-1.9c1.1-1.7,2-2.9,2.3-3.3
	c0.2-0.1,0.4-0.2,0.7-0.3c0.3-0.1,0.6-0.2,0.9-0.3c0.1,0.3,0.3,0.7,0.6,1.1c0.6,0.9,1.4,2,2.9,2.4c0.6,0.1,1.2,0.2,1.8,0.2
	c1.1,0,2.1-0.2,2.6-0.3c0.3,0.3,0.6,0.7,1.1,1.3c1.2,1.4,1.9,6.9,1.9,8l-1.8,0.5c0,0-2-1.9-2-2c-1.2-1.2-2.6-2.9-5.5-6.5l-1.3,1.1
	c1,1.1,3.5,4.3,4.2,5.1l-5.1,4.7L98.9,386z M97.8,374.2v-3.5c0.2,0.1,0.4,0.3,0.6,0.4c0.8,0.4,1.7,0.6,2.6,0.6c0.1,0,0.1,0,0.2,0
	v0.1c-1.1,0.3-2.2,0.9-2.2,0.9c-0.1,0.1-0.2,0.1-0.3,0.2C98.7,373,98.4,373.5,97.8,374.2 M105.8,373.3c0.7,0.2,1.6,0.2,2.3,0.2
	c0.4,0,0.7,0,1,0l-0.2,1.7c-0.1,0-0.2,0-0.2,0c-0.5,0.1-1.2,0.2-1.9,0.2c-0.5,0-1,0-1.4-0.1c-0.6-0.1-1.3-0.8-1.8-1.6
	c-0.2-0.4-0.4-0.8-0.5-1c-0.1-0.1-0.1-0.2-0.1-0.3v-0.1C103.6,372.6,104.5,373,105.8,373.3 M104.1,371c0.4-0.2,0.8-0.5,1.1-0.9
	c0.1,0.3,0.3,0.7,0.4,1c0.1,0.2,0.1,0.3,0.2,0.5C105.1,371.4,104.6,371.2,104.1,371 M111.9,377.1v-3.8h0.1c0.3,0,0.7,0,1.1-0.1
	c0.4-0.1,1-0.5,1.1-1.1c0-0.2,0.1-0.3,0.1-0.5c0-0.4-0.2-0.7-0.2-0.9c-0.1-0.2-0.2-0.3-0.2-0.5c0-0.2-0.1-0.5-0.1-0.8
	c0-0.2,0-0.5,0-0.6c0-0.1,0-0.2,0.1-0.2c0,0,0,0,0-0.1c0.3-0.4,0.4-0.5,0.7-0.9c0.1-0.1,0.1-0.1,0.2-0.2v18.2l-0.8,0.2l-0.4-1.9
	v-0.2C113.6,382.6,113.5,379.3,111.9,377.1 M114.5,364.3c-0.1-0.2-0.2-0.4-0.2-0.5c0,0,0-0.1,0-0.1c0.1-0.4,0.2-0.7,0.3-1.3
	c0-0.4-0.1-0.8-0.4-1.1c-0.3-0.4-0.6-0.8-0.9-1.2c0.4-0.7,0.6-1.4,0.6-2.1c0-1-0.4-2-1.3-2.6c-0.3-0.2-0.5-0.3-0.8-0.4v-2
	c0.8,0.1,1.4,0.4,1.9,0.8c0.7,0.5,1,1.2,1,1.9v9.3C114.7,364.7,114.6,364.5,114.5,364.3 M112.8,362.2c0.1,0.1,0,0.1,0.1,0.1
	c0,0.1-0.1,0.5-0.3,1.1c0,0.1,0,0.1,0,0.1c-0.8,0.3-1.2,0.9-1.2,1.5c0.4-0.1,0.8-0.2,1.6-0.2c0.2,0.4,0.4,0.9,0.6,1.2
	c0,0,0,0.1,0,0.1c-0.1,0-0.1,0.1-0.2,0.2c0,0-0.1,0.1-0.1,0.1l-1.4,0.7c0.2,0.3,0.2,0.6,0.2,0.9c0,0.5-0.2,1-1.1,1.7l1,1.3
	c0.1-0.1,0.2-0.2,0.3-0.2c0.1,0.2,0.1,0.3,0.2,0.4c0.1,0.2,0.1,0.2,0.1,0.2c0,0,0,0,0,0c-0.1,0-0.3,0.1-0.6,0.1h-0.3
	c-0.2,0-0.2,0-0.4,0c-0.3,0-0.6,0-2.6,0.2v0c-0.2,0-0.3,0-0.5,0c0,0,0,0-0.1,0c-0.2-0.1-0.4-0.3-0.5-0.4c0,0,0,0,0,0
	c-0.2-0.2-0.4-1-0.7-1.8c0.6-0.3,1.3-0.8,2.2-1.5c2.1-1.9,2.6-5.1,3-6.7C112.3,361.6,112.6,362,112.8,362.2 M102.4,390.2l4.8-4.6
	c0.1,0.1,0.2,0.2,0.3,0.3c0.2,0.2,1.9,1.8,2,2l-2.1,5.5C106.7,392.9,102.7,390.5,102.4,390.2 M104.8,393.8l-2.9,0l0-0.1
	c0,0-0.4-1.1-1-2.5c0,0,0,0,0.1,0C101.7,391.9,103.3,392.9,104.8,393.8L104.8,393.8z M101.6,397c0.3-0.5,0.4-1,0.4-1.5l5.7,0
	l0.3,0.2h0c0.2,0.1,0.5,0.3,0.8,0.5c0.7,0.4,1.4,1.1,1.6,1.4c0.1,0.1,0.1,0.2,0.1,0.3c-1.1,0.4-3.2,1-4.7,1.4
	c-1.5,0.4-4,0.9-5.4,1.2C100.7,399.1,101.1,397.9,101.6,397 M109.4,393.3l1.7-5.1l5.4-1.6l1.1,3.4L109.4,393.3z M119.5,368.3h-3
	v-12.8v0c0-0.7,0.4-1.3,1-1.8c0.5-0.4,1.2-0.7,1.9-0.8V368.3z M120.7,370l-1.6,1.2l-1.6-1.2H120.7z M118.4,371.8l-1.9,1.5v-2.9
	L118.4,371.8z M119.2,372.4l2.6,2l-2.8,2.1l-2.5-1.9v-0.2L119.2,372.4z M118.3,377l-1.8,1.4v-2.7L118.3,377z M119,377.5l2.7,2.1
	l-2.9,2.2l-2.3-1.8v-0.5L119,377.5z M117.6,384.8c-0.1-0.2-0.3-0.4-0.4-0.7l1.7-1.3l1,0.7c-0.6,0.3-1.2,0.5-1.7,0.8
	C117.9,384.6,117.8,384.7,117.6,384.8 M119.5,391.1v10.9c-1-1.2-2.3-2.6-3-3.3v-6.5L119.5,391.1z M118.2,382.3l-1.3,1
	c-0.2-0.6-0.3-1.2-0.3-1.8v-0.4L118.2,382.3z M114.3,393.2l0.5-0.2v3.6c-0.3-0.5-0.5-1-0.5-1V393.2z M125.4,384.6
	C125.4,384.6,125.4,384.6,125.4,384.6c0-0.5-0.2-0.9-0.4-1.2l0.9-0.7l1.7,1.3C126.9,384.1,126.1,384.3,125.4,384.6 M124.2,382.9
	c-0.4-0.2-0.8-0.3-1.2-0.3c-0.3,0-0.6,0-0.9,0.1c-0.4,0.1-0.9,0.3-1.3,0.4l-1.2-0.9l2.9-2.2l2.7,2L124.2,382.9z M122.4,379.1
	l-2.7-2.1l2.8-2.1l2.7,2L122.4,379.1z M124.2,368.3h-3v-15.4c0.8,0.1,1.4,0.4,1.9,0.8c0.7,0.5,1,1.2,1,1.9V368.3z M120.4,351.1
	L120.4,351.1c-1.5,0-2.8,0.5-3.9,1.2c0-3.9-0.2-7.9-1.2-11.2c-0.3-1.2-0.8-2.3-1.4-3.2c1.7,1.1,3.3,2.4,4.6,4
	c2.6,3,4.5,6.6,5.2,10.2C122.9,351.5,121.7,351.2,120.4,351.1 M114.8,352.3c-1-0.8-2.4-1.2-3.8-1.2h0c-1.4,0-2.7,0.3-3.8,1
	c0,0,0,0,0,0v-16.6c3.7,0.3,5.4,2.5,6.5,6.1C114.6,344.6,114.8,348.5,114.8,352.3 M110.1,352.9v1.7h0c-0.5,0-1,0.1-1.6,0.2
	c-0.4-0.2-0.8-0.3-1.2-0.3c0.2-0.3,0.4-0.6,0.8-0.9C108.7,353.2,109.3,353,110.1,352.9 M108.1,356.5l0.3,0.1l0.3-0.1
	c0.6-0.2,1-0.3,1.4-0.3c0.5,0,0.9,0.1,1.6,0.6c0.2,0.1,0.3,0.4,0.4,0.8c-0.8-0.2-1.7-0.2-2.6-0.3c-0.3,0-0.5,0-0.8,0l0.1,1.7v0
	c0.2,0,0.5,0,0.7,0c0.8,0,1.7,0.1,2.2,0.2c-0.2,0.3-0.4,0.5-0.8,0.6l-0.2,0.1c-0.4-0.1-0.8-0.1-1.1-0.1c-0.4,0-0.7,0-0.9,0v1.7
	c0.3,0,0.6,0,0.9,0c0.2,0,0.4,0,0.6,0.1c-0.4,1.7-1,4.1-2.3,5.2c-1.5,1.3-2.3,1.5-2.7,1.5c-0.1,0-0.1,0-0.2,0l-0.6-0.1l-0.3,0.5
	c-0.1,0.3-0.7,0.7-1.3,1c0,0,0,0,0,0c0-0.5,0.1-1.1,0.6-2l-1.5-0.8c-0.6,1.1-0.8,2-0.8,2.8c0,0.1,0,0.3,0,0.4h-0.1
	c-0.2,0-0.4,0-0.7-0.1c0-0.1,0-0.3,0-0.5c0-0.9,0.2-2.1,0.8-3l-1.4-1c-0.8,1.2-1.1,2.6-1.1,3.6c-0.4-0.4-0.5-1-0.5-1.7
	c0-1,0.4-2,0.9-2.5l0.2-0.2l0-0.3c0-0.1,0-0.2,0-0.3c0-2.3,0.4-4.6,1.7-5.9c1.1-1.1,3-2.2,4.9-2.2
	C106.6,356,107.4,356.1,108.1,356.5 M97.8,361v-5.5c0-0.7,0.4-1.3,1-1.8c0.5-0.4,1.2-0.7,1.9-0.8v3.2c-0.4,0.3-0.7,0.6-1,0.9
	C98.7,358.1,98.1,359.6,97.8,361 M102.5,355.1v-2.2c0.8,0.1,1.5,0.3,2,0.6c0.4,0.2,0.6,0.5,0.8,0.8
	C104.3,354.4,103.3,354.7,102.5,355.1 M105.5,352.2C105.4,352.1,105.4,352.1,105.5,352.2c-1.1-0.7-2.4-1-3.8-1h0
	c-1.4,0-2.8,0.4-3.8,1.2c0-3.8,0.3-7.6,1.2-10.6c1.1-3.5,2.8-5.8,6.5-6.2V352.2z M96.1,383.3C96.1,383.3,96.1,383.3,96.1,383.3
	L96.1,383.3v29.3c-0.6,0.1-1.2,0.2-1.7,0.2c-0.4,0-0.7,0-1-0.2c-0.1,0-0.2-0.1-0.2-0.1v-59.5c0.8,0.1,1.4,0.4,1.9,0.8
	c0.7,0.5,1,1.2,1,1.9v21.3c-0.4,0.8-0.5,1.7-0.6,2.6C95.6,380.8,95.8,382.1,96.1,383.3 M102.5,421.9c0.4,0.1,0.7,0.2,0.8,0.2
	c0.1,0,0.2,0.1,0.5,0.2h0c0.4,0.1,1,0.3,1.7,0.5v5.5h-3V421.9z M105.4,421.1c-0.2,0-0.4-0.1-0.6-0.2l-0.4-4.5l5.5,0.9
	c0,0.3-0.1,0.5-0.1,0.6c0,0.1-0.4,2.6-0.5,2.7l-1,0.9C108.2,421.5,105.6,421.1,105.4,421.1 M107.2,423.2c0.3,0,0.6,0.1,0.9,0.1
	c0.5,0,1,0,1.5-0.4c0.2-0.1,0.4-0.3,0.6-0.5v5.9h-3V423.2z M110.1,415.6l-5.9-1.1l-0.6-0.4l-2.1-6.6c2.7-0.5,8.1-2,8.6-2.1
	c0.1,0,0.2-0.1,0.3-0.1c0,1.1-0.1,2.9-0.1,4.8C110.3,412,110.2,414,110.1,415.6 M105.4,404.9c-1.5,0.3-2.2,0.5-5.3,0.9
	c0-0.3,0-3.3,0.1-3.6c1.3-0.3,4.3-0.8,6.1-1.3c1.6-0.4,3.5-1,4.7-1.4c0,0.3,0.1,3.4,0.1,3.7C109.9,403.7,107,404.6,105.4,404.9
	 M110.4,394.7l2.2-0.9v0.9L110.4,394.7z M112.8,396.4c0.2,0.7,0.7,1.3,1.1,1.8c0.2,0.2,0.3,0.4,0.5,0.6l-1.6,1.1
	c-0.1-1.2-0.4-2.5-0.8-3.3c-0.1-0.1-0.2-0.2-0.3-0.3H112.8z M113.3,425c0.2,0,0.5,0.1,0.7,0.1h0c0.8,0,1.8-0.2,3-0.8
	c0.1,0,0.2,0,0.3-0.1c0,0,0.1,0,0.2,0.1c0.2,0.1,0.4,0.3,0.8,0.6c0.6,0.5,1.5,0.8,2.5,1.1c2.3,0.6,5.5,1.1,7.1,1.3c0,0,0,0,0,0.1
	c-0.1,0.3-0.1,0.3-0.2,0.4c-0.4,0.2-0.9,0.2-1.5,0.2c-0.6,0-1.2-0.1-1.8-0.1c-2.3-0.1-4.6-0.3-5.3-0.4c-0.2,0-0.4,0-0.6,0
	c-1.5,0-4.9,0.5-5.7,0.6c-0.1-0.1-0.3-0.1-0.3-0.6c0,0,0-0.1,0-0.1C112.4,426.6,112.9,425.7,113.3,425 M125.9,425.3v-35.9
	c0.1-0.1,0.2-0.1,0.3-0.2c0.9-0.5,1.8-1,2.3-1.5v38C127.9,425.6,127,425.4,125.9,425.3 M128.2,383.4l-1.6-1.2l2-1.5v0.8
	C128.5,382.2,128.4,382.9,128.2,383.4 M125.9,381.7l-2.7-2l2.8-2.1l2.6,2v0.1L125.9,381.7z M126.6,377l1.9-1.4v2.9L126.6,377z
	 M125.9,376.4l-2.7-2.1l2.7-2l2.6,2v0.2L125.9,376.4z M126.6,371.8l1.9-1.4v2.8L126.6,371.8z M91.7,331.4l-4.5-6.8v-18.7
	c0-1.1,1-2.1,2.2-2.1c0.6,0,1.2,0.2,1.7,0.6c0.4,0.4,0.7,0.9,0.7,1.4V331.4z M91.7,298L87,285.1v-46.2c1.5-1.6,3.1-3.2,4.7-4.8V298z
	 M91.7,302.8c-0.7-0.4-1.5-0.7-2.3-0.7c-1.2,0-2.4,0.6-3.1,1.5c-0.8-0.9-2-1.5-3.4-1.5c-0.9,0-1.8,0.3-2.6,0.7l5.6-15.4L91.7,302.8z
	 M85.3,284.5l-5.1,13.8v-51.6c1.6-2,3.3-4,5.1-6V284.5z M81,304.5c0.5-0.4,1.2-0.7,2-0.7c1.5,0,2.5,1,2.5,2.1v18.7l-5.3,8v-26.7
	C80.2,305.4,80.5,304.9,81,304.5 M86.3,326.4l5.2,7.8c-1.6,0.9-3.1,2-4.3,3.2v-4h-1.7v5.8c-1,1.1-1.8,2.2-2.5,3.3
	c-1.2,1.9-2.1,3.8-2.8,5.6v-12.3L86.3,326.4z M82.7,352.9v75.4h-2.5v-72.9C80.3,354.1,81,353.1,82.7,352.9 M131.2,429v-15.2l2-3.5
	v20.5L131.2,429z M177.7,472.9c-37.6,0-72-13.3-98.6-35.5h6.6l4.8,4h31.2l4.5-4h6.9c13.9,5.2,28.9,8,44.6,8c15.7,0,30.7-2.9,44.6-8
	h6.9l4.4,4h30.8l4.8-4h7.2C249.7,459.6,215.3,472.9,177.7,472.9 M240.8,255.1l3.2,4.8v16.9h-2.3v-14l0.8-1.3l-1.7-2.6l-1.7,2.6
	l0.8,1.3v14h-3.1v-15.9L240.8,255.1z M236.8,257.8v-43.2c1,0.6,2.1,1.1,3.1,1.7v37L236.8,257.8z M261,261.2v15.5h-3.3v-14l0.8-1.3
	l-1.7-2.6l-1.7,2.6l0.8,1.3v14h-2.3v-16.9l3.2-4.8L261,261.2z M257.7,253.3v-24.5c1.1,0.9,2.2,1.9,3.3,2.9v26.5L257.7,253.3z
	 M254.7,327.7v3.3c-1.4-0.2-3-0.4-4.6-0.4v-0.1l5.4-8.1l5.5,8.3v2.2c-1.4-0.6-2.9-1.1-4.6-1.5v-3.7H254.7z M250.1,327.4v-22.7
	c0.4-0.5,1.2-0.9,2-0.9c1.5,0,2.5,1,2.5,2.1v14.7L250.1,327.4z M256.4,320.6v-14.7c0,0,0,0,0,0c0-1.1,1-2.1,2.2-2.1
	c0.6,0,1.3,0.2,1.7,0.7c0.4,0.3,0.6,0.7,0.7,1.2v22L256.4,320.6z M258.5,302.1c-1.2,0-2.4,0.6-3.1,1.5c-0.8-0.9-2-1.5-3.3-1.5
	c-0.7,0-1.4,0.2-2,0.5v-0.3l5.4-14.8l5.5,14.9v0.5C260.3,302.4,259.4,302.1,258.5,302.1 M255.5,282.5l-5.4,14.8v-18.8H261v18.9
	L255.5,282.5z M256,236.5l-3.2-4.7l-3.2,4.7v-13.9c2.2,1.5,4.3,3.1,6.3,4.8V236.5z M252.8,234.8l3.2,4.7v13.7l-2.3,3.5v-11.9h1.5
	v-1.7h-1.5v-3.3H252v3.3h-1.6v1.7h1.6v11.9l-2.3-3.5v-13.7L252.8,234.8z M252,259.8v16.9h-2.3v-14l0.8-1.3l-1.7-2.6l-1.7,2.6
	l0.8,1.3v14h-2.3v-16.9l3.2-4.8L252,259.8z M248,236.5l-3.2-4.7l-3.2,4.7v-19.1c2.1,1.3,4.3,2.6,6.3,4V236.5z M244.8,234.8l3.2,4.7
	v13.7l-2.3,3.5v-11.9h1.6v-1.7h-1.6v-3.3h-1.7v3.3h-1.4v1.7h1.4v11.9l-2.3-3.5v-13.7L244.8,234.8z M247.5,278.4V297l-5.3-14.4
	l-5.4,14.7v-18.9H247.5z M242.2,287.6l5.3,14.4v0.6c-0.6-0.3-1.3-0.5-2-0.5c-1.3,0-2.5,0.6-3.3,1.5c-0.7-0.9-1.8-1.5-3.1-1.5
	c-0.8,0-1.6,0.3-2.2,0.7v-0.5L242.2,287.6z M247.5,304.7v22.7l-4.5-6.8v-14.7v0c0-1.1,1-2.1,2.5-2.1
	C246.3,303.8,247.1,304.2,247.5,304.7 M239.1,303.8c1.2,0,2.2,0.9,2.2,2.1v14.7l-4.4,6.6v-21.4C236.8,304.8,237.8,303.8,239.1,303.8
	 M242.1,322.4l5.4,8.1v0.1c-1.6,0.1-3.1,0.2-4.5,0.4v-3.3h-1.7v3.6c-1.6,0.4-3.1,0.8-4.5,1.4v-2.5L242.1,322.4z M248.9,332.3
	c11.9,0,18.3,5.4,21.9,11.1c1.8,2.9,2.9,5.9,3.5,8.2c-0.7-0.3-1.5-0.5-2.4-0.5h0c-1.5,0-2.7,0.5-3.6,1.2c-0.7-4.1-2.9-8.3-5.9-11.6
	c-2.8-3.1-6.4-5.6-10.2-6.6c-1-0.3-2.1-0.5-3.3-0.5v0h-0.1v0c0,0,0,0,0,0c0,0,0,0,0,0c-0.1,0-0.2,0-0.4,0c-0.2,0-0.3,0-0.5,0
	c-4.7,0.3-9.1,3.1-12.5,7c-2.9,3.3-5,7.5-5.7,11.6c-0.9-0.8-2.1-1.3-3.5-1.3h0c-1,0-1.9,0.3-2.7,0.7c0.6-2.3,1.6-5.5,3.6-8.5
	C230.5,337.7,236.9,332.3,248.9,332.3 M258.8,438.3v-1.7h1.7v-1.7h1.8v1.7h1.7v1.7h-1.7v1.7h-1.8v-1.7H258.8z M222.9,433.5l3-2.6
	H275v2.6H222.9z M250.4,438.3v-1.7h1.7v-1.7h1.8v1.7h1.7v1.7h-1.7v1.7h-1.8v-1.7H250.4z M242.1,438.3v-1.7h1.7v-1.7h1.8v1.7h1.7v1.7
	h-1.7v1.7h-1.8v-1.7H242.1z M233.8,438.3v-1.7h1.7v-1.7h1.8v1.7h1.7v1.7h-1.7v1.7h-1.8v-1.7H233.8z M238.7,359.9v11.5
	c0,2.1-0.7,3.5-2.4,4.6c-0.1,0-0.1-0.1-0.2-0.1c-1.1-0.7-2.8-1.3-4-1.7c-0.4-0.1-0.7-0.2-1.1-0.2c-1.2,0-2.1,0.8-2.1,1.8l-0.1,0
	c-0.1-0.1-0.3-0.1-0.4-0.2c-1.1-0.9-1.8-2.4-1.8-4.2v-11.5H238.7z M226.7,358.2v-5.3c1.6,0.2,2.7,1.4,2.7,2.7v2.7H226.7z
	 M270.2,416.9c-0.2-0.3-0.6-0.5-1-0.7v0c0,0-0.3-0.1-0.7-0.3v-60.4h0c0-1.3,0.9-2.3,2.5-2.6v75.4h-2.5v-4.8c0.5-1,1-1.9,1.2-2.3
	c0.5-0.9,0.8-1.9,0.8-2.8C270.6,417.8,270.5,417.3,270.2,416.9 M268.8,417.9c0,0,0.1,0.2,0.1,0.5c0,0.5-0.2,1.3-0.6,2
	c-0.6,1.2-3,5.7-3.8,7.1l-6.9,0c0-0.1,0-0.2,0.1-0.3c0.1-0.2,0.9-0.7,1.7-1c0.8-0.3,1.5-0.5,1.5-0.5l0.4-0.1l2.7-5.2
	c0.3-0.2,1-0.8,1.8-1.3c1-0.7,2.4-1.4,2.7-1.3h0C268.7,417.8,268.7,417.8,268.8,417.9 M266.8,426.7v1.6h-0.9
	C266.1,428,266.4,427.4,266.8,426.7 M256,428.3h-1.5v-9.8l3,0.7v6c-0.4,0.2-0.8,0.6-1.1,1c-0.3,0.5-0.5,0.9-0.4,1.4
	C255.9,427.9,255.9,428.1,256,428.3 M252.2,416.3l1.7-4.4c0.3,0,0.6,0.1,0.9,0.1c1.6,0.2,3.4,1,4.9,1.8c1.6,0.8,2.8,1.4,3.4,1.7
	c0.6,0.2,2.1,0.9,3.3,1.3c-0.3,0.1-3.3,2.2-3.5,2.4L252.2,416.3z M245.7,423.5c-0.2-1.2-0.3-1.6-0.3-2.7c0-0.5,0-1,0-1.7
	c0-1.2,0-2.2-0.1-3.1c0.1,0.1,0.2,0.2,0.4,0.3c0.8,0.4,1.7,0.7,2.4,0.9l0,11.3h-2.7l0,0c0.5-0.7,0.5-1.4,0.5-1.9v-0.1
	c0-0.1,0-0.3,0-0.5C245.9,425.3,245.9,424.4,245.7,423.5 M233.1,376.9c-0.7-0.4-1.5-0.5-2.4-1c-0.1,0-0.1-0.1-0.1-0.1
	c0,0,0-0.2,0.4-0.2c0.1,0,0.3,0,0.5,0.1c1.1,0.4,2.8,1,3.6,1.5c0.7,0.4,0.8,0.9,0.8,1.1l-0.8,1.8c-0.5,0-1.2-0.1-1.9-0.1
	c-0.6,0-1.3-0.1-1.7-0.1c-0.2,0-0.4,0-0.6-0.1c0,0-0.1,0-0.1,0c-0.3-0.2-1-0.6-1.8-1.1c-0.9-0.5-1.9-1.2-2-1.4
	c-0.3-0.2-0.3-0.4-0.3-0.5c0-0.1,0-0.1,0-0.2c0.3,0.1,0.8,0.3,1.3,0.5c0.7,0.3,1.5,0.8,2.1,1c0.8,0.3,1.5,0.7,2.3,0.7
	c0.2,0,0.4,0,0.7-0.2c0.3-0.1,0.5-0.4,0.6-0.7l0-0.1c0,0,0-0.1,0-0.2C233.7,377.4,233.4,377.1,233.1,376.9 M245.2,380.6l-1.3,3.7
	l-7.5-2.9l1.3-2.7L245.2,380.6z M237.8,377c0.3-0.3,0.6-0.5,0.9-0.8v1L237.8,377z M238.7,358.2h-3v-5.3c0.8,0.1,1.4,0.4,1.9,0.8
	c0.7,0.5,1,1.2,1,1.9V358.2z M243.4,367.4v11l-2.9-0.7v-22.1c0-0.7,0.3-1.3,1-1.9c0.5-0.4,1.1-0.7,1.9-0.8v8.3
	c-0.3,0.2-0.6,0.4-0.9,0.7c-0.6,0.7-0.8,1.5-0.8,2.3C241.7,365.3,242.3,366.5,243.4,367.4 M246.3,360.3c0,0.1,0,0.1,0,0.2
	c0,0-0.1,0-0.1,0c-0.3,0-0.5,0-0.8,0.1c-0.1,0-0.1,0-0.2,0.1v-1C245.5,359.8,245.9,360.1,246.3,360.3 M245.1,357.9v-4.9
	c1,0.1,2.1,0.5,2.7,1.2c-0.1,0.1-0.2,0.1-0.3,0.2c-0.2,0.2-0.6,0.4-0.9,0.8C246,356.1,245.6,357.1,245.1,357.9 M245.7,362.2
	c0.2,0,0.4-0.1,0.5-0.1c0.6,0,0.8,0.2,1.3,0.6c0.5,0.3,1.1,0.9,2.1,1c0.1,0,0.2,0,0.3,0c1.2,0,2.1-0.7,2.6-1.2
	c0.4,0.3,0.8,0.6,1.2,0.7c-1.8,3.4-3.8,3.8-5.6,3.9c-0.2,0-0.3,0-0.5,0c0.2-0.3,0.5-0.6,0.7-0.8l-1.2-1.2c-0.5,0.5-1,1.1-1.4,1.7
	c-0.3-0.1-0.6-0.2-0.9-0.4c0.1-0.1,0.1-0.2,0.2-0.3c0.4-0.5,0.9-1.2,1.3-1.6l-1.2-1.2c-0.5,0.5-1.1,1.2-1.5,1.8
	c-0.2-0.4-0.3-0.8-0.3-1c0-0.5,0.1-0.8,0.4-1.2C244.1,362.7,244.6,362.4,245.7,362.2 M259,356.1c0.2,0.1,0.8,0.6,1.1,1.4
	c0.4,0.8,0.7,1.7,0.7,2.6c0,0.3,0,0.5-0.1,0.7c-0.3-0.5-0.6-1.1-0.8-1.7l-1.6,0.5c0.4,1.2,1,2.1,1.4,2.7c-0.2,0.1-0.4,0.2-0.5,0.3
	c-0.4-0.6-1.1-1.6-1.4-2.7l-1.7,0.5c0.3,0.9,0.7,1.7,1.1,2.3c-0.3-0.1-0.6-0.2-0.8-0.4c-0.2-0.1-0.4-0.3-0.5-0.4
	c-0.1-0.1-0.1-0.1-0.1-0.1l-0.3-0.3l-0.4,0.1c-0.1,0-0.2,0-0.2,0c-0.6,0-1.2-0.4-1.4-1.3c0-0.1,0-0.2,0-0.3c0-0.6,0.7-1.4,1.1-2.5
	l0.3-0.7l-0.7-0.4c-0.7-0.3-1.6-0.7-2.4-1.2c-0.8-0.5-1.3-1.1-1.3-2c0,0,0-0.1,0-0.1l0,0c0.1-0.2,0.2-0.5,0.6-0.7
	c0.4-0.4,1.1-0.7,1.8-0.8c0.7-0.2,1.5-0.3,2.3-0.3c1.3,0,2.5,0.3,3.2,1.1c0.6,0.6,0.7,1,0.7,1.4c0,0.4-0.2,0.8-0.3,1.3l-0.1,0.6
	L259,356.1z M260.4,353.5c0.4-0.3,1-0.5,1.7-0.6v5c-0.1-0.4-0.3-0.8-0.5-1.2c-0.4-0.7-0.8-1.4-1.3-1.8c0.1-0.3,0.1-0.7,0.2-1.1
	C260.5,353.8,260.5,353.6,260.4,353.5 M256.6,401.5c-0.8,2.3-1.8,4.6-2.7,6.2c-0.5,1-0.9,1.8-1.2,2.3l-7.3-0.6l0.7-3.3l0.5-2.3
	l1.5-7.1l10.1-1.1c0,0.2-0.1,0.4-0.2,0.6C258,397.4,257.5,399.2,256.6,401.5 M257.4,404.2v6.7c-0.8-0.3-1.6-0.5-2.4-0.6
	c-0.1,0-0.2,0-0.4-0.1C255.3,409,256.4,406.7,257.4,404.2 M257.1,366l0.6,1l0.1,0.1c0,0,0,0,0,0l-6.6,2.1c0-0.2-0.1-0.4-0.2-0.6
	L257.1,366z M254.6,365.3c0.3-0.4,0.6-0.9,0.8-1.4c0.2,0.1,0.4,0.2,0.6,0.3l0.2,0.4L254.6,365.3z M258.1,378.3
	c-0.4,0.5-0.8,0.9-1.1,1.2l-5.8-4.6l2.4-4.7l5.6-1.7c0.3,0.4,0.7,0.8,0.9,1.1c0.2,0.3,0.4,0.6,0.3,0.6c0,0.2,0,0.6,0,1.1
	c0,0.9-0.1,2.1-0.3,3.5C259.8,376,259,377.3,258.1,378.3 M258.7,380.3c-0.3,0.8-1.4,4.4-1.6,5l-6.5,0.7l6.2-4.5l0.3,0.3l0.6-0.5
	C257.8,381.3,258.1,380.9,258.7,380.3 M251.3,371l-2.2,4.5l0.4,0.3l-0.5,0.5c-0.1-0.4-0.2-0.8-0.3-1.2c-0.1-0.4-0.1-0.6-0.1-0.9
	c0-0.6,0.1-0.9,0.5-1.3c0.3-0.4,0.9-0.9,1.5-1.7l0,0L251.3,371z M250.8,376.8l4.7,3.6l-5,3.8l-3.1-4.2L250.8,376.8z M248,371.4
	c-0.1,0.1-0.3,0.3-0.4,0.5c-0.5,0.6-0.8,1.4-0.8,2.3c0,0.4,0,0.8,0.1,1.2c0.1,0.7,0.4,1.7,0.6,2.2l-1.4,1.4l-1-0.3v-10.5
	c0.3,0.1,0.6,0.2,0.9,0.2c0.6,0.1,1.2,0.2,2,0.2V371.4z M246.6,381.8l2.5,3.4c-0.3,0.4-0.7,0.8-1.3,1h0v0c-0.1,0-0.2,0-0.3,0h-0.1h0
	c-0.8,0-1.3-0.3-1.7-0.6c-0.1-0.1-0.3-0.2-0.3-0.3L246.6,381.8z M247,387.8l-0.5,3.7c-0.3,0.1-0.8,0.4-1.4,0.7l0-5.1
	C245.6,387.5,246.2,387.7,247,387.8 M247.7,395l0.5-3.6l0.4-3.6l8.8-0.8c0.2,0.2,0.3,0.5,0.5,0.8c0.2,0.3,0.9,2.3,1.1,2.6l0.6,3.6
	L247.7,395z M259.2,399.3c0.6-1.8,0.9-3.1,1-3.8l1.3-0.1l-0.1-0.9c0,0-0.3-2.3-0.5-4.2c-0.2-1.9-1.6-3.9-2.2-4.7
	c0.1-0.2,0.2-0.5,0.3-0.9c0.3-0.9,0.8-2.4,1.6-4.7c0.6-1.7,1-3.3,1.2-4.7c0,0,0,0,0,0h0c0.1-0.9,0.2-1.7,0.3-2.4v40.3
	c-0.5-0.3-1.1-0.6-1.7-0.9c-0.4-0.2-0.8-0.4-1.3-0.6V399.3z M261.5,368.6c-0.8-1.1-2-2.3-2.4-2.7l-0.8-1.4c0.8,0,1.6-0.3,2.4-0.8
	c0.7-0.4,1.2-1.1,1.5-1.7v8C262,369.5,261.8,369.1,261.5,368.6 M243.4,385.8l-0.1,7.3c-0.9,0.5-1.9,1.2-2.9,1.9v-10.5L243.4,385.8z
	 M238.7,383.9v12.6c-1.1,0.9-2.1,1.7-3,2.4v-16.2L238.7,383.9z M244,423.8c0,0.1,0.1,0.6,0.1,0.7l-3.7-2.3l-5.1-13.3l5.6-2.1
	c0.3,0.8,0.8,2,1.3,3.5c0.9,2.4,1.5,4.5,1.5,8.8c0,0.7,0,1.3,0,1.7C243.7,421.9,243.7,422.6,244,423.8 M238.9,422.5
	c-0.6,0.4-1.6,1.2-3.1,1.9V414L238.9,422.5z M240.2,405.2l-5.5,2.1c-0.2-0.2-1.1-1.5-1.3-1.8V404l0.7-1.2c0.3-0.3,1.7-1.7,2-2
	c0.8,0.6,2.4,2,3.2,2.8c0.5,0.5,0.8,1,1,1.4L240.2,405.2L240.2,405.2z M233.8,408.8l0.2,0.6v15.7c-0.9,0.2-1.7,0.3-2.5,0.3
	c-0.1,0-0.3,0-0.4,0v-43.7c0.6,0.1,1.5,0.1,2.4,0.2c0.2,0,0.4,0,0.6,0v18.6l-0.1,0.1c-1.3,1.3-2.1,2.7-2.1,4.4
	C231.9,407,233.3,408.3,233.8,408.8 M231.5,427.1c1.3,0,3-0.2,4.5-0.9c2-0.9,3.3-1.9,4-2.4l4.2,2.4v0.1c0,0,0,0.1,0,0.1h0v0
	c0,0.3-0.1,0.7-0.2,0.9c0,0,0,0.1-0.1,0.1h0c-0.3,0-1.1-0.2-2.4-0.2c-0.3,0-0.6,0-1,0c-2.9,0.2-4,0.7-5.9,0.7c-0.1,0-0.3,0-0.5,0
	c-2.4-0.1-3.3-0.2-3.7-0.8c-0.1-0.1-0.1-0.1-0.2-0.2C230.6,427.1,231.1,427.1,231.5,427.1 M243.8,409.6c-0.4-1-1.1-2.9-1.4-3.5
	c0.3-0.1,1.8-0.9,2.2-1L243.8,409.6z M241.9,404.6l-2.3-3.1c-0.3-0.2-1.9-1.6-2.1-1.8c0.9-0.8,2-1.6,3.2-2.6
	c1.6-1.3,3.4-2.4,4.7-3.1c0.3-0.2,0.6-0.3,0.9-0.5l-0.4,3.4l0.8-0.1l-1.5,6.4L241.9,404.6z M247.3,414.9l-1-0.6l-0.4-0.8
	c0-0.2-0.3-2-0.3-2.1c0-0.1,0-0.3,0.1-0.5l6.6,0.7l-1.5,4.2l-1.1-0.3l0,0C249.5,415.6,247.4,415,247.3,414.9 M252.7,418.1v10.2h-2.9
	l0-10.9L252.7,418.1z M262.1,420.5l-1.9,3.8c-0.3,0.1-0.6,0.2-1,0.3v-4.8L262.1,420.5z M266.8,415.3c-1.2-0.4-2.4-0.9-3-1.2v-61.2
	c0.8,0.1,1.4,0.4,1.9,0.8c0.7,0.5,1,1.2,1,1.8V415.3z M263,351.1L263,351.1c-1.2,0-2.3,0.3-3.2,0.8c-0.1-0.2-0.3-0.4-0.5-0.6
	c0-0.1-0.1-0.1-0.2-0.1c0-4.2-0.2-8.3-1.5-11.6c-0.1-0.4-0.3-0.8-0.5-1.1c1.4,1,2.7,2.1,3.9,3.5c2.7,3,4.6,6.6,5.4,10.2
	C265.5,351.5,264.3,351.2,263,351.1 M257.4,350.1c-0.8-0.3-1.7-0.4-2.6-0.4c-1,0-1.9,0.1-2.6,0.3c-0.9,0.2-1.7,0.6-2.4,1.1l0-15.6
	c0.5,0,0.9,0.1,1.4,0.2l0,0c0.1,0,0.2,0.1,0.3,0.1c2.3,0.6,3.6,2.2,4.5,4.3C257.1,342.8,257.4,346.4,257.4,350.1 M250.6,356.8
	c0.6,0.4,1.2,0.7,1.8,0.9c-0.4,0.6-0.8,1.4-0.9,2.4c0,0.2,0,0.5,0.1,0.7c0,0.1,0,0.1,0.1,0.2c-0.3,0.4-1.1,1.1-1.7,1
	c0,0-0.1,0-0.1,0c-0.5-0.1-0.8-0.3-1.3-0.7c-0.2-0.1-0.4-0.3-0.6-0.4c0.1-0.3,0.1-0.7,0.2-1.1c0-0.4-0.1-0.7-0.5-0.9
	c-0.2-0.1-0.6-0.3-0.9-0.4c0.5-0.7,0.8-1.4,1.1-1.9c0,0.1,0,1-0.1,1.4c0,0.4,0.3,0.3,1.1,0.3c0.7,0,1.2-0.2,1.2-0.2s0-0.2-0.5-0.8
	c-0.5-0.5-1.6-0.8-1.6-0.8c0.1-0.1,0.2-0.3,0.3-0.5c0.1-0.2,0.2-0.3,0.5-0.4c0.1-0.1,0.3-0.2,0.5-0.4
	C249.4,355.9,250,356.5,250.6,356.8 M244.3,351.1L244.3,351.1c-1.5,0-2.8,0.5-3.8,1.2c0-3.8,0.2-7.7,1.1-10.8c1.1-3.5,2.8-5.8,6.5-6
	l0,16.6C246.9,351.4,245.5,351.2,244.3,351.1 M239.9,341.1c-1,3.4-1.2,7.4-1.2,11.3c-1-0.8-2.4-1.2-3.8-1.2h0c-1.3,0-2.5,0.4-3.5,1
	c0.7-3.6,2.6-7.3,5.2-10.2c1.4-1.6,3-3,4.6-4C240.7,338.9,240.2,339.9,239.9,341.1 M232.1,353.7c0.5-0.4,1.2-0.7,1.9-0.8v5.3h-3
	v-2.7C231.1,354.9,231.4,354.2,232.1,353.7 M228.2,380.3c0.4,0.3,0.8,0.5,1.1,0.7v44.3c-0.4-0.1-0.9,0.2-1,0.6
	c0,0.1-0.1,0.2-0.1,0.5c0,0.5,0.1,1.3,0.8,2h-2.4v-49C227.2,379.6,227.7,380,228.2,380.3 M272.8,428.3v-75.4
	c0.7,0.1,1.2,0.4,1.5,0.7c0.4,0.3,0.6,0.8,0.7,1.3c0,0.1,0,0.1,0,0.2c0,0.1,0,0.3,0,0.4v72.8H272.8z M272.3,342.5
	c-0.7-1.1-1.5-2.2-2.5-3.3v-5.9h-1.7v4.1c-1.3-1.2-2.7-2.3-4.4-3.2l5.2-7.8l6.1,9.3v12.5C274.4,346.4,273.5,344.4,272.3,342.5
	 M269.8,324.6v-18.7v0c0-1.1,1.1-2.1,2.5-2.1c0.7,0,1.5,0.3,2,0.7c0.5,0.4,0.7,0.9,0.8,1.3v26.8L269.8,324.6z M274.9,302.9
	c-0.8-0.5-1.7-0.7-2.6-0.8c-1.3,0-2.6,0.6-3.4,1.5c-0.7-0.9-1.8-1.5-3.1-1.5c-0.8,0-1.6,0.2-2.2,0.6l5.6-15.3L274.9,302.9z
	 M270.2,285v-44.1c1.7,1.9,3.3,3.8,4.8,5.7v51.6L270.2,285z M268.5,284.6l-4.9,13.2v-63.8c1.7,1.6,3.3,3.2,4.9,4.9V284.6z
	 M265.9,303.8c1.2,0,2.2,0.9,2.2,2.1v18.7l-4.4,6.6v-25.6C263.8,304.7,264.7,303.8,265.9,303.8 M229.6,305.9c0-1.1,1-2.1,2.2-2.1
	c0.6,0,1.3,0.2,1.7,0.7c0.5,0.4,0.7,0.9,0.7,1.4v25.8l-4.6-7.1L229.6,305.9L229.6,305.9z M234.2,298.2l-4.9-13.3v-74
	c1.6,0.7,3.3,1.5,4.9,2.3V298.2z M234.1,302.8c-0.7-0.4-1.5-0.7-2.3-0.7c-1.2,0-2.3,0.6-3.1,1.5c-0.8-0.9-2-1.5-3.3-1.5
	c-0.9,0-1.8,0.3-2.5,0.7l5.6-15.3L234.1,302.8z M227.6,284.8l-4.9,13.3v-89.9c1.6,0.6,3.3,1.3,4.9,2V284.8z M223.5,304.5
	c0.5-0.4,1.2-0.7,1.9-0.7c1.4,0,2.5,1,2.5,2.1v18.7l-5.1,7.7v-26.4C222.8,305.3,223,304.9,223.5,304.5 M228.7,326.4l5.1,7.9
	c-1.6,0.9-3,2-4.2,3.1v-3.8h-1.7v5.6c-0.9,1.1-1.7,2.2-2.4,3.3c-1.2,1.9-2.1,3.8-2.7,5.5v-12.6L228.7,326.4z M222.8,355.6
	c0-0.7,0.3-1.4,1-1.9c0.3-0.3,0.8-0.5,1.3-0.7v18.4c0,0,0,0.1,0,0.1h0v38.6l-2.2-4L222.8,355.6L222.8,355.6z M224.1,413.8v15.2
	l-2,1.7v-20.5L224.1,413.8z M286.1,428.6c-2.3,2.3-4.7,4.4-7.1,6.5v-40.4c15.2-20.4,24.1-45.7,24.1-72.9s-8.9-52.5-24.1-72.9v-5.7h0
	l-2-3.2l-1.9,3.2h0v0l0,0h0v0.6c-3.5-4.3-7.3-8.3-11.4-12.1v-2.9l-2.6-3.6v4.1c-7.3-6.4-15.4-12-24.2-16.6v-2.2l-2.6-3.8v4.6
	c-3.7-1.9-7.5-3.5-11.5-5v-5.8h0l-2-3.3l-2,3.3h0v4.4c-5.7-1.9-11.5-3.5-17.5-4.6v-20.7h0l-1.3-1.7l-1.3,1.7h0v20.3
	c-1.3-0.2-2.7-0.4-4-0.6v-27.7c35.6,3.9,67.5,19.7,91.5,43.4C313.8,242.2,331,280,331,321.7C331,363.5,313.8,401.3,286.1,428.6
	 M285.9,310.3v-1.5h-1.7v1.5h-1.6v1.7h1.6v3.3L279,323v-29.2l11.9,16.8v12.2l-5-7.6V312h1.6v-1.7H285.9z M285,317l5.9,8.9v4.1
	c-0.7-0.5-1.7-0.8-2.6-0.8c-1.3,0-2.5,0.6-3.3,1.5c-0.8-0.9-2-1.5-3.3-1.5c-1,0-1.9,0.3-2.7,0.8v-3.9L285,317z M289.2,347.2
	c0-1.6-1-3-2.4-3.7h4v7.4h-4C288.3,350.3,289.2,348.9,289.2,347.2 M285,350.5c-1.8,0-3.3-1.5-3.3-3.3c0-1.8,1.5-3.3,3.3-3.3
	c1.8,0,3.3,1.5,3.3,3.3C288.4,349,286.9,350.5,285,350.5 M285.9,340.9V333c0-1.1,1-2.1,2.4-2.1c0.7,0,1.4,0.3,1.9,0.7
	c0.5,0.4,0.7,0.8,0.7,1.3v8H285.9z M279.7,331.6c0.5-0.4,1.2-0.7,1.9-0.7c1.4,0,2.5,1,2.5,2.1v7.9H279v-8
	C279,332.4,279.3,332,279.7,331.6 M283.2,343.5c-1.4,0.7-2.4,2.1-2.4,3.7c0,1.6,0.9,3,2.3,3.7H279v-7.4H283.2z M293.5,353.5v-66l0,0
	l-1.3-2.1l-1.3,2.1h0v20.1L279,290.8v-39c14.1,19.8,22.4,44,22.4,70c0,26.1-8.3,50.2-22.4,70v-38.3H293.5z M320.5,311.2
	c-0.6,0-9.2,0.4-10,0.5c-0.8,0-0.9-0.4-0.9-0.4l-0.1,0l-1.8,2.6l2.1,1.9l0.1,0c0-0.7,0.5-1.4,0.5-1.4s9.6-0.5,10.2-0.5
	c0.6,0,0.8,0.4,0.8,0.4l0.1,0l1.9-2.5c0,0-0.8-0.5-2.1-2h-0.1C321.2,309.7,321.4,311.2,320.5,311.2 M319.1,300.4l0.1,1.1
	c0,0-9.1,1.2-9.7,1.3c-0.6,0.1-0.9-0.4-0.9-0.4l-0.1,0c-0.4,1.3-1,2.8-1.7,3.9l3,2.2l0.3-0.4c-1-0.7-0.7-1.2-0.1-2.7l9.6-1.2
	l0.3,2.1l1.4,0.4l-0.4-2.7l4.1-0.5l0-0.3c-2.2-0.5-4-1.5-5.3-2.8L319.1,300.4z M218.4,184.6l-3.8-1.1l-1.2,4.1l-4.2-1.2l-1.1,3.7
	l4.2,1.2l-1.2,4.1l3.8,1.1l1.2-4.1l4.2,1.2l1.1-3.7l-4.2-1.2L218.4,184.6z M286.7,324.6L285,322l-1.7,2.6l1.7,2.6L286.7,324.6z
	 M305.7,271.8c0.5-0.2,0.9,0.1,0.9,0.1l0.1-0.1l0.1-3.1l4.7,0.8c0-0.7,0.4-3.1,0.8-3.9c-1.4-0.9-3.8-3.4-3.8-3.4s-3.3,1.4-3.9,1.7
	c-0.6,0.2-1-0.1-1-0.1l-0.1,0l-0.3,3.6l-5.9-1c0.2,0.5,0,3.5-0.2,4.1c0.5,0.2,3.6,2.5,4.1,3.2C301.4,273.7,305.2,272,305.7,271.8
	 M305.8,266.3l4.2-1.8l0.2,0.1c0,0-0.9,2.7-1,3.9l-3.7-0.7L305.8,266.3z M299.7,271.5l-0.3-0.2c0.3-0.9,0.4-3.3,0.4-3.9l4.7,0.8
	l-0.1,1.3L299.7,271.5z M231.5,193.3l1.6,0.7l0.7-1.5l1.6,0.7l0.7-1.6l-1.6-0.7l0.7-1.5l-1.6-0.7l-0.7,1.5l-1.6-0.7l-0.7,1.6
	l1.6,0.7L231.5,193.3z M292.5,224.8l-3.7,0.1c0,0-0.5,0.7-0.7,0.9c1.1,0.4,3.7,0.8,3.7,0.8C292.2,226.1,292.5,224.8,292.5,224.8
	 M296.2,240.1L296.2,240.1l0.2-2.8l-2.7-0.4l-0.1,0.1l0,1.1l-8.9,6.7l-0.4-0.2l-0.2-2.3c0,0,7.2-5.5,7.9-5.9c0.6-0.5,1-0.2,1-0.2
	l0.1-0.1l-0.1-3.1l-2.8-0.3l-0.1,0.1c0.4,0.5,0.4,1.4,0.4,1.4s-7.7,5.8-8.1,6.1c-0.4,0.3-0.8,0.1-0.8,0.1l-0.1,0.1l0.5,3.9
	c0,0,3.2,0.8,5.5,1.8c0,0,7.4-5.6,7.9-6C295.8,239.9,296.2,240.1,296.2,240.1 M291.2,251.5l3-1.9c2.1,0.4,3.6,0.9,5.8,1.7l0.1-0.1
	l2.4-4.5c-1.3-0.6-2.9-1.6-4.4-2.7c0,0-7.9,5-8.5,5.4c-0.5,0.3-1,0.1-1,0.1l-0.1,0.1c0.3,1.4,0.3,3.5,0.3,5.2l3.6,0.7l0.1-0.5
	C291.3,254.7,291.3,253.7,291.2,251.5 M299.9,246l-2,3.9c0,0-1.8-0.5-3.1-0.7L299.9,246z M304.6,283.5l-0.1,0
	c-0.2,1.4-0.6,2.9-1.1,4.1l3.2,1.7l0.3-0.5c-1.1-0.5-0.9-1.1-0.5-2.6l9.3-2.5l0.6,2.1l1.4,0.2l-0.8-2.7l4-1.1l-0.1-0.3
	c-2.2-0.2-4.2-0.9-5.7-2.1l-0.5,0.1l0.3,1.1c0,0-8.8,2.4-9.4,2.6C304.9,283.8,304.6,283.5,304.6,283.5 M321,274l-3.5-1.3
	c0,0-0.7,0.4-1,0.5c0.8,0.7,3.2,2.1,3.2,2.1C320.1,275,321,274,321,274 M295.9,260.3l8.6-4.6l0.6,0.2c-0.1,0.6-1.7,3.1-1.7,3.1
	l0.1,0.1c1.7,0.1,2.8,0.5,2.8,0.5l0.1-0.1l1.5-3.3l-2.6-0.8l0.6-2.8c0,0-1-0.2-2.8-0.9l-0.1,0.1c0.3,0.5,0.4,1.4,0.2,1.5
	c0,0-8.3,4.4-8.9,4.7c-0.5,0.3-1,0-1,0l-0.1,0.1c0.1,1.4,0.1,2.9-0.1,4.3l3.5,1l0.1-0.5C295.7,262.5,295.8,261.9,295.9,260.3
	 M286.4,229.8c0.4-0.4,0.8-0.2,0.8-0.2l0.1-0.1l-0.2-3.1c0,0-0.9,0.1-2.9-0.2l-0.1,0.1c0,0,1,1,0.4,1.6c-0.4,0.4-6.8,6.1-7.4,6.6
	c-0.6,0.5-1,0.2-1,0.2l-0.1,0.1l0.3,3.1l2.8,0.1l0.1-0.1c-0.5-0.5-0.5-1.4-0.5-1.4S286,230.2,286.4,229.8 M215.6,270.7l-1.7-2.6
	l-1.7,2.6l1.7,2.6L215.6,270.7z M247.4,203.5l0.1-0.1l-2.8-2.9l5.7-2.1l-0.3-0.6l-0.9,0.4c-0.8-1-2.1-2.8-2.4-3.6
	c-2.1,0-6.5-1-6.5-1s-1.7,3.2-2,3.7c-0.3,0.5-1,0.5-1,0.5l-0.1,0.1l3,3.5l-7.4,2.9l0.3,0.4l1.4-0.5c1,0.9,2.7,2.9,3,3.4
	c0.7-0.1,5.5,0.3,6.6,0.6c0,0,1.9-3.7,2.2-4.2C246.8,203.5,247.4,203.5,247.4,203.5 M240.9,207.1l-0.5,0c-0.6-1-2.7-3.3-3.2-3.8
	l4.9-1.9l1.2,1.2L240.9,207.1z M242.8,200.4l-1.2-1.6l2.1-4l0.3,0c0,0,1.7,3,2.7,4.1L242.8,200.4z M256.3,202.7l0.9-1.4l-1.5-1
	l-0.9,1.4l-1.4-0.9l-1,1.4l1.4,0.9l-1,1.4l1.5,1l0.9-1.4l1.4,0.9l1-1.4L256.3,202.7z M213.8,330.8c2.3,0,4.2-1.8,4.2-4.1
	c0-2.3-1.9-4.1-4.2-4.1c-2.3,0-4.2,1.9-4.2,4.1C209.6,329,211.5,330.8,213.8,330.8 M213.8,323.4c1.8,0,3.3,1.5,3.3,3.3
	c0,1.8-1.5,3.3-3.3,3.3c-1.8,0-3.3-1.5-3.3-3.3C210.5,324.9,212,323.4,213.8,323.4 M281.6,223.2L281.6,223.2l-0.7-3.6l-2.8-0.2
	l-0.5-2.9c0,0-1,0.2-2.9,0l-0.1,0.1c0.4,0.4,0.8,1.2,0.7,1.3c0,0-6.8,7-7.3,7.5c-0.4,0.4-0.9,0.3-0.9,0.3l-0.1,0.1l0.3,2.7l2.7,0
	l0.1-0.1l-0.2-1.1l7.2-7.4l1.3,0.1l0.4,1.6c0,0-6.4,6.6-6.9,7.1c-0.6,0.6-1,0.3-1,0.3l-0.1,0.1l0.5,3.1l2.8-0.1l0.1-0.1
	c-0.5-0.5-0.6-1.3-0.6-1.3s6.7-6.9,7.1-7.3C281.2,223.1,281.6,223.2,281.6,223.2 M264.5,222.1c0,0,6.1-7.7,6.5-8.1
	c0.4-0.5,0.9-0.4,0.9-0.4l0.1-0.1l-0.6-2.7l-2.7,0.3l-0.1,0.1l0.3,1l-6.4,8.1l-1.3,0l-0.5-1.5c0,0,5.7-7.1,6.2-7.8
	c0.5-0.6,0.9-0.4,0.9-0.4l0.1-0.1l-0.8-3l-2.8,0.4l-0.1,0.1c0.5,0.4,0.7,1.3,0.7,1.3s-6,7.5-6.3,7.9c-0.3,0.4-0.8,0.4-0.8,0.4
	l-0.1,0.1l1.1,3.4l2.8-0.1l0.8,2.9c0,0,1-0.2,2.9-0.3l0.1-0.1C264.8,223,264.4,222.3,264.5,222.1 M231.2,197.8l-1.6-0.7l-0.7,1.5
	l-1.6-0.7l-0.7,1.6l1.6,0.7l-0.7,1.5l1.6,0.7l0.7-1.6l1.6,0.7l0.7-1.6l-1.6-0.7L231.2,197.8z M195.1,384.2L195.1,384.2
	C195.1,384.2,195.1,384.2,195.1,384.2L195.1,384.2z M170.7,240.1h1.7v-1.7h1.7v-1.7h-1.7v-1.7h-1.7v1.7H169v1.7h1.7V240.1z
	 M303.9,281.4c-0.2-0.6,0.1-1.4,0.1-1.4s9-3.4,9.5-3.6c0.5-0.2,0.9,0.1,0.9,0.1l0.1,0l1-3c0,0-0.9-0.2-2.6-1.2l-0.1,0
	c0,0,0.6,1.3-0.2,1.6c-0.5,0.2-8.6,3.2-9.3,3.5c-0.8,0.3-1-0.1-1-0.1l-0.1,0l-0.9,3l2.6,1.1L303.9,281.4z M176.8,240.1h1.7v-1.7h1.7
	v-1.7h-1.7v-1.7h-1.7v1.7h-1.7v1.7h1.7V240.1z M315.1,326.4c0.5,0,0.8,0.4,0.8,0.4l0.1,0l1.4-2.8l3.9,2.7c0.3-0.7,1.7-2.6,2.5-3.2
	c-0.9-1.4-2-4.6-2-4.6s-3.6-0.1-4.2-0.1c-0.6,0-0.8-0.5-0.8-0.5h-0.1l-1.8,3.1l-4.9-3.3c0,0.6-1.5,3.2-1.9,3.6
	c0.4,0.4,2.2,3.7,2.4,4.6C310.4,326.3,314.6,326.4,315.1,326.4 M317.5,321.5l4.6,0.1l0.1,0.2c0,0-2,2.1-2.5,3.2l-3.1-2.2
	L317.5,321.5z M309.6,323.3c0.7-0.7,1.8-2.8,2-3.3l3.9,2.6l-0.6,1.2l-5.1-0.1L309.6,323.3z M153.8,240.1h1.7v-1.7h1.7v-1.7h-1.7
	v-1.7h-1.7v1.7h-1.7v1.7h1.7V240.1z M251.8,208.9l-1.5-1l-1,1.4l-1.4-0.9l-1,1.4l1.4,0.9l-1,1.4l1.5,1l1-1.4l1.4,0.9l1-1.4l-1.4-0.9
	L251.8,208.9z M189.9,385c0-0.6-0.1-1.1-0.3-1.6c-0.1-0.4-0.6-0.9-1.2-0.9c-0.8,0.1-1.2,0.5-1.6,0.9c-0.4,0.4-0.9,0.9-1.4,1.3
	c-1.6,1.5-3.7,2.3-5.7,2.3c-1.7,0-3.5-0.6-4.9-1.7c-1.1-0.9-1.9-1.5-3-1.6c-0.7,0-1.4,0.5-1.6,1.1c-0.2,0.6-0.3,1.3-0.3,2.1v0.2
	c0,0.5,0.3,2.3,0.8,5c0.7,4,1.8,9.7,3.1,14.9c0.6,2.6,1.2,5,1.9,7c0.6,2,1.2,3.5,1.8,4.4c0.8,1.2,2,1.8,3.2,1.8h0
	c1.7,0,3.2-1.3,3.7-3.3c0.4-1.6,2.6-11.1,4.1-19.7c0,0,0-0.1,0-0.1c0.4-2.6,0.8-5,1.1-7.2c0,0,0,0,0,0h0c0.2-1.8,0.4-3.4,0.4-4.6
	C189.9,385.2,189.9,385.1,189.9,385 M182.6,416.5c-0.4,1.5-1.3,2.1-2,2.1c-0.5,0-1.2-0.3-1.8-1.1c-0.1-0.2-0.3-0.5-0.5-0.9
	c2-1.7,4.1-5.2,6-9c0.2-0.3,0.3-0.7,0.5-1C183.8,411.6,182.9,415.6,182.6,416.5 M182.8,406.8c-1.6,3.3-3.6,6.4-5.1,8
	c-0.3-1-0.7-2.1-1.1-3.4c0,0,0-0.1,0-0.1c4.8-4.3,7.8-9,9.8-13.1C185.8,400.4,184.4,403.7,182.8,406.8 M187.9,389.6
	c-1.2,3.9-3.9,12.4-11.8,19.9c-1-4.1-2.1-9-2.9-13.2c-0.8-4.3-1.4-7.9-1.6-8.9c1.1,3.6,3.5,7.5,6,9.7l1.1-1.3c-1-0.8-2-2.1-2.9-3.5
	c0.9,0.2,1.8,0.4,2.8,0.4c3,0,6.1-1,7.7-2.6l-1.2-1.2c-1,1.1-3.9,2.1-6.5,2.1c-1.7,0-3.3-0.4-4.2-1.3c-0.6-1.2-1-2.4-1.3-3.4
	c0.2,0.1,0.4,0.3,0.6,0.5l0,0c1.8,1.4,3.9,2.1,6,2c2.5,0,5-0.9,6.9-2.8c0.5-0.5,1-1,1.3-1.3c0.1-0.1,0.1-0.1,0.2-0.2
	c0,0.1,0,0.3,0,0.5c0,0.1,0,0.2,0,0.4C188.2,386.4,188.1,387.9,187.9,389.6 M160.4,240.1h1.7v-1.7h1.7v-1.7h-1.7v-1.7h-1.7v1.7h-1.7
	v1.7h1.7V240.1z M182.8,240.1h1.7v-1.7h1.7v-1.7h-1.7v-1.7h-1.7v1.7h-1.7v1.7h1.7V240.1z M164.6,384.2c-1.4,8.7-3,22.2-9.3,33.5
	l1.5,0.8c6.5-11.7,8-25.5,9.5-34.1L164.6,384.2z M192.5,389.9c1.9,12.4,2.3,24,3.7,30l1.7-0.4c-1.3-5.7-1.8-17.4-3.7-29.9
	L192.5,389.9z M308.3,300.8l0.1,0c-0.1-0.6,0-1.4,0.2-1.5c0,0,9.7-1.9,10.3-2c0.6-0.1,0.9,0.3,0.9,0.3l0.1,0c0,0,0.2-3.3,0.4-3.7
	c-1.8-0.7-2.3-4.3-4.8-3.8c0,0-7.7,1.5-8.2,1.6c-0.5,0.1-0.8-0.2-0.8-0.2l-0.1,0l-1.4,3.3l2.2,1.7l-1.3,2.7
	C305.9,299.2,306.9,299.7,308.3,300.8 M307.9,294.4l10.1-2c-0.1,0.3-0.3,1.6-0.3,2.4l-9.5,1.9l-1-0.8L307.9,294.4z M121,409.3l0-0.1
	l-0.1,0.5C120.9,409.5,120.9,409.4,121,409.3C121,409.3,121,409.3,121,409.3 M166.4,402.1c-0.3,7.1-1.2,14.3-4,17.4l1.3,1.1
	c3.4-4,4.1-11.3,4.4-18.5c0.3-7.2,0.1-14.3,1.1-17.2l-1.6-0.5C166.5,387.9,166.7,394.9,166.4,402.1 M305.7,386.4
	c0.6-1.1,0.5-1.8,0.5-3.2c-0.9,0.4-3.6,0.3-4.2,0v4.1c0,2.2-0.4,3.2-0.6,3.5c-1.2,0.1-3.2-0.1-3.7-0.1l0.2,7.5
	c0,2.9-0.9,4.4-1.1,4.7c-1.9,0-4,0-4.8,0c-2,0.1-3.6,0.4-5.1,1.4c0.9-1.8,1.7-3.9,1.7-6.1c0-0.9,0-3.1,0-4.6
	c0.7-0.5,1.8-1.2,3.1-1.2h3.6c-0.2-1.1-0.2-2.7,0-3.8c-1.3,0-2.3,0-3,0.3c0.6-1.1,0.5-1.8,0.5-3.2c-0.9,0.4-3.6,0.3-4.3,0v4.1
	c0,2.7-0.6,3.6-0.6,3.6v0l-0.1,0.1c-0.7,0.8-1.7,1-2.9,1v6.4c0,1.3,0.3,4.7-0.6,6.5l-2.2,3.3l0.5,0.3c0,0,2.2-4.3,6.7-4.3l10,0
	c-0.3-1.3-0.2-2.6,0.4-3.7c-0.5,0-1.2,0-2,0c0.5-0.4,1.3-1.2,2.1-2.2h0c0,0,1.7-1.7,3.7-1.7h3.6c-0.2-1.1-0.2-2.7,0-3.8
	c-2.6,0-3.6,0.2-5.1,1.9c0.2-0.6,0.4-1.3,0.4-1.9c0,0,0-2.6,0-4.2c0.7-0.5,1.8-1.2,3.1-1.2h3.5c-0.2-1.1-0.2-2.7,0-3.8
	C307.4,386.1,306.4,386.1,305.7,386.4 M321.8,338c0.6-1,0.5-1.6,0.5-2.9c-0.8,0.3-3.2,0.3-3.8,0v3.7c0,2-0.4,2.9-0.5,3.1
	c-0.8,0.5-2.2,1.1-4.1,1.1c0,0.3,0,0.5,0,0.6c0.9,0,1.3,1.4,1.3,2.2c0,0.4,0.1,0.8,0.1,1.3c0,2,0,5.7-0.8,6.9
	c-0.4,0.6-1.1,1.7-1.1,1.8l-5.4,8.1c0,0,0,0-0.1,0.1l-3,4.4h0l-0.1,0.1v-10.3l1.4-2.1c0.3-0.3,1.7-1.4,3.2-1.4h2.5
	c-0.2-1-0.2-2.4,0-3.4c-0.8,0-1.3,0-1.8,0.1c0.6-1.1,0.5-1.8,0.5-3.2c-0.9,0.4-3.5,0.3-4.2,0v4c0,2.1-0.4,3.1-0.5,3.4l-1.3,2
	c-0.4,0.5-1.6,1.4-4.7,1.4c0,0.3,0,0.5,0,0.7c0.9,0,1.3,1.4,1.3,2.2c0,0.4,0.1,9.4,0,9.9c0,2,0,5.7-0.8,6.9
	c-0.4,0.6-1.2,1.7-1.2,1.7l0.5,0.3c0,0,1-1.4,2.2-3.1c0.1-0.2,0.2-0.3,0.3-0.5l0,0c0,0,2.5-3.7,6.7-3.7h3.6
	c-0.2-1.1,0.6-2.4,1.3-3.1c-4.3,0-6.9-0.5-9.4,2.6l-0.2,0.4c0.4-1.1,0.6-2.3,0.6-3.6v0l0.7-1.1c0.6-0.8,3.2-4,7.5-4h4.1
	c-0.3-1.2,0.6-2.7,1.4-3.5c0.6-0.4,1.6-1,2.7-1h3.1c-0.2-1-0.2-2.3,0-3.3c-1.2,0-2,0-2.7,0.3c0.5-0.9,0.4-1.6,0.4-2.8
	c-0.8,0.3-3.1,0.3-3.7,0v3.6c0,2.4-0.5,3.1-0.5,3.1v0l-0.1,0.1c-3.3,0-5.8-0.2-7.9,1.2l4-6c0,0,0.1-0.1,0.2-0.3l1.7-2.5
	c0.1-0.1,0.2-0.2,0.2-0.4c0,0,0.1-0.1,0.1-0.1l0.3-0.4c0.1-0.1,1.7-1.7,3.5-1.7h3.9c-0.2-1.1-0.2-2.6,0-3.7c-2.9,0-4.1,0.2-5.9,2.4
	c0.5-1.3,0.9-2.8,0.9-4.4c0-0.8,0-2.1,0-2.9c0.7-0.4,2.1-1.1,3.5-1.1h2.4c-0.2-1-0.2-2.4,0-3.4C323.4,337.7,322.5,337.7,321.8,338
	 M325.7,311.5c0,0-0.9,0.2-1.1,0.2c0.6,1,2.4,2.9,2.4,2.9c0.5-0.1,1.7-0.9,1.7-0.9L325.7,311.5z M43.7,352.6c-1.9-1-3.2-1.9-5.1-3.2
	l-0.1,0l-3.6,3.7c1.1,1,2.4,2.3,3.4,3.8c0,0,9.1-2.6,9.7-2.8c0.6-0.2,1,0.2,1,0.2l0.1,0c0.1-1.4,0.7-3.5,1.2-5.1l-3.3-1.7l-0.2,0.5
	c1.2,0.5,0.8,1.5,0.3,3.6L43.7,352.6z M37.2,354.5l3-3.2c0,0,1.6,0.9,2.7,1.6L37.2,354.5z M30.3,301.6c0.1-0.6,0.6-1.3,0.8-1.3
	c0,0,13.3,2.5,13.9,2.6c0.6,0.1,0.7,0.6,0.7,0.6l0.1,0l3.1-3.1l-2.1-5c0,0-8.9-1.7-9.4-1.8c-0.5-0.1-0.7-0.5-0.7-0.5l-0.1,0l-2.9,3
	l1.4,2.2l-4.1-0.8l-2.3,1.6c0,0,0.7,0.8,1.6,2.4L30.3,301.6z M36.9,296.3l10.4,1.9l0.1,0.1l-1.8,2l-10-1.9l-0.2-0.4L36.9,296.3z
	 M34.3,331.5c0,0,9.1-0.7,9.8-0.8c0.6,0,0.9,0.4,0.9,0.4l0.1,0l2.1-3.8l-3.4-4.3c0,0-10,0.8-10.6,0.8c-0.5,0-0.8-0.3-0.8-0.3l-0.1,0
	c-1.6,2.9-3.2,5.3-5.1,8.3c0,0,1,0.5,2.3,1.9l0.1,0c-0.1-0.7,2.7-5,2.7-5L34.3,331.5z M33.8,326.5l11.4-0.9l0.1,0.1l-1.2,2.4
	l-10.8,0.8l-0.5-0.6L33.8,326.5z M40,316.8c-1.6-1.5-2.6-2.7-4-4.5l-0.1,0l-4.5,2.5c0.8,1.2,1.6,2.9,2.2,4.6c0,0,9.4,0,10.1,0
	c0.6,0,0.8,0.5,0.8,0.5h0.1c0.5-1.3,1.6-3.1,2.6-4.6l-2.7-2.5l-0.4,0.4c1,0.8,0.3,1.7-0.7,3.5H40z M33.2,316.8l3.8-2.3
	c0,0,1.2,1.3,2.2,2.3L33.2,316.8z M44.1,336.4l1.9,1.9c0,0,1.3-0.9,1.9-1.9l-1.9-1.9C46.1,334.5,44.7,335.5,44.1,336.4 M67.9,225.1
	c0.3-1.1,0.4-3.7,0.4-3.7c-0.4-0.3-1.8-0.6-1.8-0.6l0.4,3.6C67,224.5,67.7,224.9,67.9,225.1 M29.3,309.8l0.1,0c0,0,0.1-1.4,1-1.3
	c0.6,0.1,13.5,1.6,14.3,1.7c0.8,0.1,0.8,0.6,0.8,0.6l0.1,0l2.2-2.3l-1.8-2.2l-0.1,0c-0.1,0.7-0.7,1.3-0.7,1.3s-13.9-1.6-14.5-1.7
	c-0.5-0.1-0.7-0.5-0.7-0.5l-0.1,0l-2.3,2.2C27.6,307.5,28.2,308.1,29.3,309.8 M44.1,288.3c-1.1-1.8-1.8-3.2-2.7-5.3l-0.1,0l-5,1.3
	c0.4,1.4,0.8,3.2,0.9,5c0,0,9.1,2.4,9.7,2.5c0.6,0.2,0.7,0.7,0.7,0.7l0.1,0c0.8-1.1,2.4-2.6,3.7-3.8l-1.9-3.1l-0.5,0.3
	c0.7,1-0.1,1.7-1.6,3.2L44.1,288.3z M37.5,286.6l4.3-1.2c0,0,0.9,1.6,1.5,2.7L37.5,286.6z M124.1,197.8c-0.6,1.2-0.8,2.3-0.8,3.8
	c0.9-0.3,3.4-0.3,4.1,0v-4.2c0-2,0.3-2.9,0.5-3.2l1.5-2.3c1.5,0,2.8-0.2,4-0.8c-0.6,1.1-0.8,2.2-0.8,3.5c0.8-0.3,3.1-0.3,3.7,0v-3.8
	c0-2.4,0.5-3.1,0.5-3.1l2.2-3.2h3.3c0.4,0,0.7,0,1,0c-0.6,0.7-1.4,1.6-2.2,2.5c-1.3,1.6-1.6,2.9-1.6,4.8c0.8-0.3,3.3-0.3,3.9,0v-4
	c0-2.1,0.4-3,0.5-3.2c3.9,0.6,5.2,3,5.2,3l0.5-0.3l-2.2-3.5c-1.9-2.3-4-2.8-6.5-2.9c-1.2,0-9.5,0-11,0c0.7,0.7,0.7,2.3,0.4,3.2
	c-0.5,0.4-1.8,1.5-3.2,1.5h-4.5c0.2,1,0.2,2.6,0,3.6c2.7,0,4.9-0.4,6.6-2.8l1.5-1.9h7.6l-1.5,2.3c-0.2,0.2-1.8,1.6-3.4,1.6H129
	c0.2,0.8,0.2,2.1,0.1,3.1l-1.3,1.9c0,0,0,0,0,0c0,0-1.5,1.5-3.3,1.5h-3.9c0.2,1,0.2,2.6,0,3.6C122.1,198.3,123.2,198.2,124.1,197.8
	 M149.6,466.9l2.9-2.3c0,0,0-0.9,0-1.1c-1.1,0.3-3.4,1.6-3.4,1.6C149.1,465.6,149.6,466.9,149.6,466.9 M77.9,226.6L77.9,226.6
	l3.6-0.8l1,5.8c0.4-0.4,3.3-1.2,4-1.1c0-0.6,1.2-4.2,1.7-4.9c0,0-2.9-3.1-3.2-3.4c-0.4-0.4-0.2-0.8-0.2-0.8l-0.1-0.1l-3,0.9
	l-0.7-4.6c-0.7,0.3-3.1,0.6-4,0.5c-0.4,1.6-2,4.6-2,4.6s2.5,2.6,2.9,3.1C78.1,226.2,77.9,226.6,77.9,226.6 M83.2,224.1l3.4,3.7
	l-0.1,0.4c-1,0.1-3.3,0.7-3.8,0.9l-0.8-4.6L83.2,224.1z M76.6,220.3c0,0,2.9,0,4.1-0.4l0.5,3.7l-1.5,0.3l-3.1-3.3L76.6,220.3z
	 M154.1,459.8c0.1-0.6,1.7-8.9,1.9-9.7c0.2-0.8,0.6-0.8,0.6-0.8l0-0.1l-2.1-2.3l-2.3,1.6l0,0.1c0.7,0.1,1.2,0.8,1.2,0.8
	s-1.8,9.4-1.9,9.9c-0.1,0.5-0.5,0.7-0.5,0.7l0,0.1l2,2.4c0,0,0.7-0.6,2.4-1.6l0-0.1C155.4,460.8,154,460.6,154.1,459.8 M146.5,456.3
	c0,0-3.5,0-4.4,0c-0.6,0-1-0.2-1.3-0.5c0-0.6-0.1-0.9-0.1-0.9c0-0.8-0.3-1.5-0.7-2.2c0.6,0.2,1.2,0.3,2,0.3h1.7c0,0-0.5-0.7-0.5-1.9
	c0-1,0.2-1.9,0.2-1.9s-4.2,0-5.4,0c-1.3,0-2.2-1-2.5-1.5c0-0.1-0.1-0.1-0.1-0.2h0c-0.6-0.8-1.3-1.8-1.6-2.3h-6
	c0.9-0.3,1.7-0.9,2.5-2c0.5-0.7,1-1.5,1-1.5l-2.8-1.5c0,0-1.6,2.5-2.1,3.2c-1.5,2-3.3,1.8-3.3,1.8l0,0h-0.6c-4.3,0-6-2.8-6-2.8
	l-0.5,0.3l2.4,3.5c0,0,0,0,0,0l2.8,4.2c0.2,0.4,1,1.9,1,4.8l0,3.6c0.8-0.2,2.9-0.2,3.8,0c0-0.8,0-2,0-2c0-0.9-0.4-1.8-0.9-2.7
	c0.7,0.3,1.4,0.5,2.3,0.5h1.9c0,0-0.2-0.7-0.2-1.8c0-0.9,0.2-1.6,0.2-1.6s-3.8,0-4.9,0c-1.7,0-3-1.6-3-1.6l-1.3-1.9
	c1.3,0.7,3,1,5.5,1h9.8c0.3,0.6,1,2.4,1,5.3l0,2.2c1.4-0.2,2.6-0.3,4-0.1c0,0,0,0,0,0.1c0.1,0.2,0.4,0.9,0.4,2.4v3.7
	c0.5-0.3,2.6-0.3,3.2,0c0-1.3,0.1-2.2-0.7-3.4c0.5,0.2,1,0.3,1.5,0.3h1.7c0,0-0.4-0.6-0.4-1.4C146.3,456.9,146.5,456.3,146.5,456.3
	 M92.3,212c-0.7,1.3-0.7,2.6-0.7,4.3c1-0.4,3.2-0.4,4,0v-4.4c0-2.5,1.1-4.2,1.1-4.2l0.8-1.2c1.1-0.2,3-0.2,3.6,0.1v-3.3
	c0-2.1,0.5-3.1,0.9-3.6h0.9c3,0,5.1-0.1,6.6-1.2c-0.6,1.4-1,3-1,4.6c0,1,0,3.1,0,4.1c-0.1,0.1-0.1,0.2-0.2,0.2
	c-0.6,0.4-1.7,1.2-2.9,1.2h-3.9c0.2,1,0.2,2.6,0,3.6c1.4,0,2.5-0.1,3.4-0.5c-0.5,1.1-0.6,2.2-0.6,3.5c0.9-0.3,3.4-0.3,4.1,0V211
	c0-2.1,0.4-3,0.5-3.3c0.6-0.1,1.9-0.2,3.2,0.1v-7.2c0-1.3-0.3-4.9,0.8-6.5l1.3-1.9l-0.5-0.3l-0.4,0.6l-1.3,1.9l0,0
	c-0.1,0.1-0.1,0.2-0.2,0.2c-0.6,0.7-2,1.6-4.8,1.6h-2.6c-1.3,0-2-0.6-2-1c-0.5,0-0.7,0-0.7,0v4c-0.2,0.1-0.6,0.4-1,0.8
	c-0.6,0.5-1.7,1.2-2.9,1.2h-3.2c0.2,1,0.2,2.4,0,3.4c1.3,0,2.1-0.1,2.9-0.4c-0.2,0.6-0.3,1.1-0.3,2l-0.9,1.3
	c-0.3,0.2-1.8,1.6-3.3,1.6h-4.5c0.2,1,0.2,2.6,0,3.6C89.8,212.6,91.1,212.5,92.3,212 M49.1,357.6c0,0-8.8,2.9-9.3,3.1
	c-0.5,0.2-0.9-0.1-0.9-0.1l-0.1,0l-1,3.3l3,1.7l-4.8,1.6l-1.3,2.5c0,0,1,0.3,2.6,1.3l0.1,0c-0.2-0.6-0.2-1.4,0-1.5
	c0,0,13.7-4.5,14.3-4.7c0.8-0.3,1,0.1,1,0.1l0.1,0l1-3l-2.6-1.2l-0.1,0c0.2,0.6-0.1,1.4-0.1,1.4l-9.8,3.2l-1.1-0.6l0.5-1.6l10.1-3.3
	c2.9-1,3.5-0.9,3.5-0.9l0.1-0.3C54.2,358.7,51.1,356.9,49.1,357.6 M32.8,345.6l2.5,1.4l0.1,0c-0.1-0.7,0.3-1.4,0.3-1.4l4.6-3.5
	l9.3,3.1c0,0-1.2-2.4-1.3-2.9c-5-1.5-14.2-4.6-15.2-5.1l-0.1,0l-1.3,2.4l2.2,1.5l0.1,0c-0.1-0.5,0.5-1,0.5-1l3.4,1.1l-4.3,3
	L32.8,345.6z M71.1,234.1L71,234l-2.8,1.4l-1.4-4.5c-0.6,0.4-3,1-3.9,1.1c-0.1,1.7-1.3,4.9-1.3,4.9s2.8,2.2,3.3,2.6
	c0.5,0.4,0.4,0.9,0.4,0.9l0.1,0.1l3.4-1.4l1.8,5.6c0.4-0.4,3.1-1.6,3.8-1.7c-0.1-0.6,0.6-4.3,1-5.1c0,0-3.3-2.6-3.7-2.9
	C71,234.5,71.1,234.1,71.1,234.1 M66.5,237.4l-3.6-2.8l0-0.2c0,0,2.8-0.5,4-1l1.1,3.6L66.5,237.4z M73.9,240.7
	c-1,0.2-3.2,1.2-3.6,1.4l-1.5-4.4l1.2-0.6l3.9,3.1L73.9,240.7z M111.3,297.4l1.7,2.6l1.7-2.6l-1.7-2.6L111.3,297.4z M126.9,300.2
	l1.7-2.6l-1.7-2.6l-1.7,2.6L126.9,300.2z M101.5,297.5l-1.7-2.6l-1.7,2.6l1.7,2.6L101.5,297.5z M67,250.2l3-1.1l-0.7-2.7l-0.1-0.1
	c-0.4,0.6-1.2,0.8-1.2,0.8s-8.2-5.1-8.6-5.4C59,241.4,59,241,59,241l-0.1-0.1l-3.3,1.4l0.4,2.7l-2.8,1.1c0,0,0.4,1,0.6,2.8l0.1,0.1
	c0.3-0.5,1-1,1.2-0.9c0,0,8.3,5.2,8.9,5.5c0.5,0.3,0.5,0.9,0.5,0.9l0.1,0.1l2.6-0.9l-0.6-2.6l-0.1-0.1l-1,0.4l-8.8-5.5l-0.1-1.2
	L58,244c0,0,7.8,4.9,8.5,5.3c0.7,0.4,0.5,0.9,0.5,0.9L67,250.2z M81.2,232.6L81.2,232.6c-0.5,0.4-1.4,0.5-1.4,0.5s-7.2-6.4-7.6-6.8
	c-0.4-0.4-0.3-0.8-0.3-0.8l-0.1-0.1l-3.1,0.5c0,0,0.2,0.9,0.1,2.9l0.1,0.1c0,0,0.9-1.1,1.6-0.5c0.4,0.4,6.8,6.1,7.4,6.6
	c0.6,0.5,0.3,0.9,0.3,0.9l0.1,0.1l3.1-0.6L81.2,232.6z M52.2,276.3c0.7,1.1,0.1,1.4-1.1,2.4l-9.2-3.2l-0.3-0.5
	c0.5-0.4,3.5-0.9,3.5-0.9l0-0.1c-1.1-1.3-1.5-2.4-1.5-2.4l-0.1,0l-3.5,1.1l1.1,2.5l-2.5,1.4c0,0,0.6,0.9,1.2,2.6l0.1,0
	c0.2-0.6,0.8-1.2,1-1.2c0,0,8.9,3.1,9.5,3.3c0.6,0.2,0.6,0.7,0.6,0.7l0.1,0c1-1,2.1-2,3.3-2.8l-1.7-3.2L52.2,276.3z M156,466.3
	c0,0.5,0.5,1.8,0.5,1.8l2.8-2.4c0,0,0-0.9,0-1.1C158.3,464.9,156,466.3,156,466.3 M51.9,371.6c0,1.2-0.1,2.7,0.3,4.2
	c-1.5-1.3-3.1-1.5-5.6-1.5c0.2,1.2,0.2,2.8,0,4h3.5c2.5,0,4.6,1.5,4.8,1.7l0.9,1.3c-0.8-0.5-1.7-0.6-3.3-0.6c0.2,1,0.2,2.3,0,3.3
	h3.1c1.1,0,2,0.6,2.6,1c0,0.8,0,2.2,0,3.1c0,3.1,1.4,5.8,2.8,7.9c0.1,0.2,0.3,0.4,0.4,0.6c-1.4-1-2.8-0.9-5.6-0.9l-0.3-0.4l-4.8-7.1
	l0,0c-0.1-0.2-0.5-1-0.5-3v-3.6c-0.9,0.3-2.9,0.3-3.7,0c0,1.5,0,2.3,0.9,3.6c-0.9-0.4-2-0.4-3.4-0.4c0.2,1,0.2,2.4,0,3.3h3.8
	c1.9,0,3,1.4,3.1,1.5l1.4,2c-1.3-1.1-2.7-1.2-5.1-1.2c0.2,1.2,0.3,2.9,0,4.1h4.3c1.4,0,2.7,0.8,3.4,1.4c0.4,0.9,0.5,2.2,0.3,3.4
	l3.1,0.1c4.2,0,6.9,3.2,7.5,4l0.5,0.7c0.1,0.9,0.2,1.7,0.5,2.5l0,0c-2.7-3.1-3.9-2.9-9.6-2.9c0.2,1,0.3,2.6,0.1,3.4h4.9
	c4.3,0,6.7,3.7,6.7,3.7l0,0c0.1,0.2,0.2,0.4,0.3,0.5c1.2,1.8,2.2,3.1,2.2,3.1l0.5-0.3c0,0-0.8-1.1-1.2-1.7c-0.8-1.3-0.9-5-0.9-6.9
	c0-0.5,0-9.5,0-9.9v-2.9c-1.6,0.3-3.6-0.1-3.6-0.1s0,8.1,0,10.4l-2.6-3.9c0,0-0.7-1.1-1.1-1.7c-0.8-1.3-0.8-5.1-0.8-7.1
	c0-0.5,0.1-0.8,0.1-1.2c0-0.9,0.1-3.9,1.3-3.9c0-0.2,0-0.4,0-0.7c-2.4,0-3.9,0-4.5,0l-0.1-0.2l-2.3-3.5c0,0-0.6-1.4-0.6-3.4v-5.7
	C55,371.9,52.7,372,51.9,371.6 M58.1,264.9c-0.3,0.6-1.1,1-1.1,1s-9.6-4.2-10.1-4.4c-0.5-0.2-0.5-0.7-0.5-0.7l-0.1-0.1l-3.6,2.4
	c0,0,0.6,1.3,0.8,5.2c0,0,8.2,3.6,8.8,3.8c0.6,0.2,0.6,0.8,0.6,0.8l0.1,0.1l3.5-2.2l1.4,2.7l2.8-2.2l-2.4-6.5L58.1,264.9z
	 M53.5,269.8l-9.8-4.2l0-0.1l2.2-1.5l9.2,4l0.4,0.8L53.5,269.8z M57,271l-1.2-2.7l3.4,1.5L57,271z M86.1,300.1l1.7-2.6l-1.7-2.6
	l-1.7,2.6L86.1,300.1z M61.7,256.6c0.5,1.2-0.5,1.6-2.4,2.7l-3.1-1.7c-0.6-2.1-0.9-3.6-1.2-5.8l-0.1-0.1l-5.2,0
	c0,1.4-0.1,3.3-0.4,5.1c0,0,8.2,4.6,8.8,4.9c0.5,0.3,0.5,0.8,0.5,0.8l0.1,0.1c1.1-0.9,3-1.9,4.6-2.7l-1.1-3.5L61.7,256.6z
	 M50.3,254.3l4.4-0.1c0,0,0.4,1.7,0.8,3L50.3,254.3z M179.3,184.3l-1.7-2.6l-1.7,2.6l1.7,2.6L179.3,184.3z M143.1,270.7l-1.7-2.6
	l-1.7,2.6l1.7,2.6L143.1,270.7z M180.3,322.2c-1.7,0.8-2.2,2.4-2.2,2.9v2.1h0.8v-2c0-1,1.1-2.5,2.7-2.5c1.6,0,2.4,1.3,2.4,1.3
	l0.6-0.6C183.9,322.6,182.1,321.4,180.3,322.2 M227.3,368.1l0,1.5l3.9-2.5l1.6,2l-4.6,3.4l0.8,1.2l4.7-3.5l1.1,1.3l-1.8,1.5l1,1
	l3-2.3l-1.4-1.6l2.6-2.3l-1.1-3.5l0.8-0.6v-0.9h-2.4l1.3,4.4l-0.9,0.7l-1.6-2v-4.2l-3.7,0v1.2l0.8,0.9l-0.8,0.6l-2.4-2.7h-1.1v0.7
	l3.1,3.6L227.3,368.1z M141.5,330.8c2.3,0,4.2-1.8,4.2-4.1c0-2.3-1.9-4.1-4.2-4.1c-2.3,0-4.2,1.8-4.2,4.1
	C137.3,329,139.2,330.8,141.5,330.8 M141.5,323.4c1.8,0,3.3,1.5,3.3,3.3c0,1.8-1.5,3.3-3.3,3.3c-1.8,0-3.3-1.5-3.3-3.3
	C138.2,324.9,139.7,323.4,141.5,323.4 M243.9,297.7l-1.7-2.6l-1.7,2.6l1.7,2.6L243.9,297.7z M193.1,240.1h1.7v-1.7h1.7v-1.7h-1.7
	v-1.7h-1.7v1.7h-1.7v1.7h1.7V240.1z M199.7,240.1h1.7v-1.7h1.7v-1.7h-1.7v-1.7h-1.7v1.7H198v1.7h1.7V240.1z M195.9,261.2l1.7,2.6
	l1.7-2.6l-1.7-2.6L195.9,261.2z M269.4,300.2l1.7-2.6l-1.7-2.6l-1.7,2.6L269.4,300.2z M159.4,261.2l-1.7-2.6l-1.7,2.6l1.7,2.6
	L159.4,261.2z M181.7,324c-1.5,0-2.1,0.6-2.1,1.1c0.4,0,1,0,1.7,0c-0.2,0.1-0.4,0.3-0.4,0.5c0,0.3,0.3,0.6,0.7,0.6
	c0.4,0,0.7-0.3,0.7-0.6c0-0.2-0.2-0.4-0.4-0.5c0.6,0,1.2,0,1.7,0C183.7,324.6,182.8,324,181.7,324 M195.4,212.3l-1.7-2.6l-1.7,2.6
	l1.7,2.6L195.4,212.3z M174,323.9c-1.5,0-2.1,0.6-2.1,1.1c0.4,0,1.1,0,1.8,0c-0.2,0.1-0.4,0.3-0.4,0.5c0,0.3,0.3,0.6,0.7,0.6
	c0.4,0,0.7-0.3,0.7-0.6c0-0.2-0.1-0.4-0.4-0.5c0.6,0,1.2,0,1.7,0C175.9,324.5,175.1,323.9,174,323.9 M175.1,322.2
	c-1.7-0.8-3.6,0.4-4.3,1.3l0.6,0.6c0,0,0.9-1.3,2.4-1.3c1.5,0,2.7,1.5,2.7,2.5v2h0.8v-2.1C177.3,324.6,176.8,323,175.1,322.2
	 M158.2,449.5l0,0.1c0.7,0.1,1.3,0.8,1.3,0.8s-1.4,9.4-1.5,10c-0.1,0.5-0.5,0.7-0.5,0.7l0,0.1l2.1,2.3c0,0,0.6-0.7,2.4-1.7l0-0.1
	c0,0-1.4-0.2-1.3-1c0.1-0.6,1.3-9,1.4-9.8c0.1-0.8,0.6-0.8,0.6-0.8l0-0.1l-2.2-2.2L158.2,449.5z M192.3,461.4c0,0-0.5-9-0.6-9.7
	c0-0.6,0.4-0.9,0.4-0.9v-0.1c-1.3-0.5-2.7-1.2-3.9-1.9l-2.4,2.8l0.4,0.4c0.8-1,1.3-0.7,2.7,0.1l0.6,9.5l-2.2,0.1l-0.5,1.3l2.8-0.2
	l0.2,4l0.3,0c0.6-2.1,1.8-3.8,3.2-5l0-0.5L192.3,461.4z M184,452.1c0-0.5,0.4-0.8,0.4-0.8v-0.1l-3.4-1.9c0,0-2.6,2-4.8,3.2
	c0,0,0.1,9.2,0.1,9.8c0,0.6-0.5,0.8-0.5,0.8v0.1l2.2,1.7l1.9-1.9v-0.1l-0.9-0.6l-0.1-11l0.4-0.2l2,1.2c0,0,0.1,9,0.1,9.8
	c0,0.8-0.5,0.9-0.5,0.9v0.1l2.6,1.8l2-2v-0.1c-0.7,0-1.4-0.6-1.4-0.6S184,452.6,184,452.1 M163.2,212.3l-1.7-2.6l-1.7,2.6l1.7,2.6
	L163.2,212.3z M190,189.2l-1.7-2.6l-1.7,2.6l1.7,2.6L190,189.2z M172.2,462.2c0,0,0.8-9,0.8-9.6c0.1-0.6,0.6-0.8,0.6-0.8l0-0.1
	l-3.4-2.7l-4.9,2.6c0,0-0.8,9.9-0.9,10.4c0,0.5-0.5,0.7-0.5,0.7v0.1c2.7,2.1,4.8,3.9,7.5,6.3c0,0,0.6-0.8,2.3-2l0-0.1
	c-0.7-0.1-4.5-3.4-4.5-3.4L172.2,462.2z M167.1,461.9l0.9-11.2l0.1-0.1l2.2,1.6l-0.9,10.7l-0.6,0.3L167.1,461.9z M68.6,324.6
	l1.7,2.6l1.7-2.6l-1.7-2.6L68.6,324.6z M204.2,455.6l0-0.1l-3.4-1.3l2.6-5.3c-0.6,0.1-3.4-0.9-3.9-1.3c-0.4,0.4-3.4,2.7-4.2,3.1
	c0,0,0.6,4.1,0.7,4.6c0.1,0.5-0.3,0.8-0.3,0.8l0,0.1l3,0.9l-2.1,4.2c0.7,0.2,2.9,1.3,3.6,1.9c1.2-1.1,4.3-2.7,4.3-2.7
	s-0.5-3.5-0.6-4.2C203.8,455.9,204.2,455.6,204.2,455.6 M198.4,454.7l-0.7-5l0.3-0.3c0.8,0.5,3.1,1.3,3.7,1.4l-2,4.2L198.4,454.7z
	 M201.6,461.5c0,0-2.4-1.6-3.6-2l1.7-3.3l1.4,0.7l0.6,4.5L201.6,461.5z M230.6,441.8l-0.5-0.3l-0.7,1.1c-0.7,0.9-2.6,3-5.3,3
	c0,0-7.5-0.1-7.5-0.1c0.3,1.2,0.3,2.7-0.2,3.9c1.3,0,2.5,0,3.7,0l-0.6,0.9v-0.1c0,0-2.1,3.5-6.3,3.5c-1.4,0-4.2,0-4.2,0
	s0.3,0.5,0.3,1.7c0,1.4-0.6,1.8-0.6,1.8s2,0,3.5,0c0.8,0,1.5-0.2,2.2-0.6c-1.1,1.6-2.1,3.4-2.1,5c0,0,0,0.7,0,1.7
	c1.1-0.6,3.5-0.4,4.3-0.4l0-3.4c0-3.1,0.8-5.1,1.3-5.9l2.9-4.3c2.1-0.1,4-0.5,5.4-1.5l0,7.3l0,0c0,0-1.4,1.5-3.1,1.5h-3.8
	c0.2,0.9,0.2,2.3,0,3.2c1.7,0,2.9-0.1,3.9-0.7c-0.3,1.1-0.3,2.1-0.3,3.1c0.7-0.3,2.7-0.3,3.3,0v-4.4c0-1.3,0.2-1.9,0.3-2.3
	c0.9,0,3.4,0,4.1,0c0-0.3,0-0.5,0-0.7c-0.8,0-1.1-0.7-1.3-2.4c0-0.7-0.1-2.8-0.1-3.3c0-2.2-0.1-5.1,1.2-7
	C230.5,441.8,230.6,441.8,230.6,441.8 M184.5,212.3l-1.7-2.6l-1.7,2.6l1.7,2.6L184.5,212.3z M254,297.6l1.7,2.6l1.7-2.6l-1.7-2.6
	L254,297.6z M226.8,297.6l1.7,2.6l1.7-2.6l-1.7-2.6L226.8,297.6z M174.1,212.3l-1.7-2.6l-1.7,2.6l1.7,2.6L174.1,212.3z M168.5,189.1
	l-1.7-2.6l-1.7,2.6l1.7,2.6L168.5,189.1z"/>
</svg>
