<svg width="603" height="311" xmlns="http://www.w3.org/2000/svg">
 <style type="text/css">.st0{fill:#231815;}
	.st1{fill:#C81528;}
	.st2{fill:#5B0000;}</style>

 <g>
  <title>background</title>
  <rect fill="none" id="canvas_background" height="313" width="605" y="-1" x="-1"/>
 </g>
 <g>
  <title>Layer 1</title>
  <path id="svg_1" d="m358.6,255.7c1.5,5 4.5,7.2 9.8,7.2c4.4,0 8.3,-2.5 8.3,-7.2c0,-3.9 -1.6,-5.8 -9.3,-8.6c-5.1,-1.9 -5.6,-3.2 -5.6,-5c0,-3.2 2.2,-5 5.4,-5c3.5,0 5.6,2.1 6.6,5.1l2.2,-0.6c-1.2,-4.2 -4.4,-6.5 -8.8,-6.5c-5.1,0 -7.9,3 -7.9,7c0,9 14.9,6.1 14.9,13.4c0,3.3 -2.1,5.4 -5.5,5.4c-4.3,0 -6.8,-1.8 -7.8,-5.9l-2.3,0.7zm40,6.8l0,-2l-13.9,0l0,-11l9.5,0l0,-2l-9.5,0l0,-10l13.1,0l0,-2l-15.6,0l0,27l16.4,0zm5,0l2.5,0l0,-27l-2.5,0l0,27zm7.7,-25l8.1,0l0,25l2.5,0l0,-25l8.1,0l0,-2l-18.7,0l0,2zm44.2,25l0,-2l-4.6,0l0,-25.4l-1.6,0l-6.2,2l0,1.5l5.2,-0.7l0,22.7l-4.7,0l0,2l11.9,0l0,-0.1zm2.6,-5c1.6,3.7 4.8,5.4 9.2,5.4c5.4,0 9.4,-2.3 9.4,-8c0,-3.7 -2.2,-5.7 -5.2,-6.8c3.2,-1.4 4.4,-3.3 4.4,-6.4c0,-5.1 -4.7,-6.6 -8.3,-6.6c-3,0 -5.7,1.2 -8.3,4.3l1.8,1.3c1.9,-2.4 3.7,-3.5 6.3,-3.5c3.7,0 6,1.4 6,4.8c0,3.6 -2.6,5.3 -7.5,5.3l-2,0l0,2l2.5,0c5.2,0 7.9,1.9 7.9,5.8c0,3.8 -2.2,5.9 -6.8,5.9c-3.6,0 -5.7,-1 -7.3,-4.5l-2.1,1zm32.8,-22.4c-5.2,0 -8.6,2.3 -8.6,6.8c0,3 1.8,5.1 5.2,6.3c-4.7,2.1 -6.3,4.6 -6.3,7.3c0,5.4 3.9,7.3 9.6,7.3c5.7,0 9.6,-1.9 9.6,-7.3c0,-2.7 -1.6,-5.2 -6.3,-7.3c3.4,-1.2 5.2,-3.4 5.2,-6.3c0.2,-4.5 -3.2,-6.8 -8.4,-6.8m-7.1,20.5c0,-2.9 2.7,-4.4 7.1,-6.2c4.5,1.8 7.1,3.3 7.1,6.2c0,3.7 -3.1,5.3 -7.1,5.3c-4,0 -7.1,-1.7 -7.1,-5.3m1,-13.8c0,-3.2 2.5,-4.7 6.1,-4.7c3.6,0 6.1,1.5 6.1,4.7c0,2.9 -2.7,4.6 -6.1,5.5c-3.4,-0.9 -6.1,-2.5 -6.1,-5.5m37.1,-4.4c-1.9,-1.4 -4.1,-2.2 -6.5,-2.2c-7.7,0 -10.9,8.1 -10.9,14.9c0,6.2 1.8,12.9 9.4,12.9c5,0 9.3,-3.2 9.3,-8.4c0,-5 -3.2,-8.9 -8.8,-8.9c-2.8,0 -5.5,1.6 -7.4,3.6c0,-5.1 2.1,-12.1 8.4,-12.1c2.1,0 4,0.5 5.4,2.1l1.1,-1.9zm-1.2,16.7c0,4.2 -2.4,6.8 -6.7,6.8c-4.2,0 -6.9,-3.1 -6.9,-8c0,-1 2.8,-5.3 6.9,-5.3c4.3,0 6.7,2.8 6.7,6.5" class="st0"/>
  <path id="svg_2" d="m360.3,198.2l13.1,0l-14.3,23l0,2l17.6,0l0,-2l-14.5,0l14.3,-22.9l0,-2.1l-16.2,0l0,2zm22,-2l0,18.2c0,6.1 3.3,9.2 9.9,9.2c6.6,0 9.9,-3.1 9.9,-9.2l0,-18.2l-2.5,0l0,18.4c0,5.2 -2.5,7 -7.4,7c-4.9,0 -7.4,-1.8 -7.4,-7l0,-18.4l-2.5,0zm27.4,27l2.5,0l0,-9l5.2,-5.9l8.7,14.9l2.8,0l-9.9,-16.7l8.8,-10.3l-3.1,0l-12.5,14.7l0,-14.7l-2.5,0l0,27zm23.2,-27l0,18.2c0,6.1 3.3,9.2 9.9,9.2c6.6,0 9.9,-3.1 9.9,-9.2l0,-18.2l-2.5,0l0,18.4c0,5.2 -2.5,7 -7.4,7c-4.9,0 -7.4,-1.8 -7.4,-7l0,-18.4l-2.5,0zm27.4,27l2.5,0l0,-25l0.1,0l14.7,25l2.6,0l0,-27l-2.5,0l0,22.5l-0.1,0l-13,-22.5l-4.2,0l0,27l-0.1,0zm29.9,0l0,-13l9.9,0l0,-2l-9.9,0l0,-10l13.6,0l0,-2l-16.1,0l0,27l2.5,0zm16,-25l8.1,0l0,25l2.5,0l0,-25l8.1,0l0,-2l-18.8,0l0,2l0.1,0z" class="st0"/>
  <path id="svg_3" d="m364.6,184l0,-12.1l11,0l0,12.1l5.5,0l0,-28.2l-5.5,0l0,11.2l-11,0l0,-11.2l-5.5,0l0,28.2l5.5,0zm42.5,0l0,-4.5l-13.9,0l0,-7.9l9.8,0l0,-4.5l-9.8,0l0,-6.7l13.5,0l0,-4.5l-18.9,0l0,28.1l19.3,0zm10.8,-28.2l-5.5,0l0,28.2l5.5,0l0,-28.2zm7,28.2l9.5,0c7.6,0 12.8,-4.1 12.8,-14.1c0,-10 -5.3,-14.1 -12.8,-14.1l-9.5,0l0,28.2zm5.4,-23.6l3.7,0c6.3,0 7.7,4.5 7.7,9.6c0,5 -1.5,9.6 -7.7,9.6l-3.7,0l0,-19.2zm40.6,23.6l0,-4.5l-13.9,0l0,-7.9l9.8,0l0,-4.5l-9.8,0l0,-6.7l13.5,0l0,-4.5l-18.9,0l0,28.1l19.3,0zm22.5,0l0,-4.5l-12.4,0l0,-23.7l-5.5,0l0,28.2l17.9,0zm4.1,0l10.5,0c7.3,0 10.4,-3 10.4,-7.4c0,-4.3 -1.3,-6 -5,-7.5c3.1,-1.2 4.4,-3.5 4.4,-6.4c-0.3,-5 -4,-6.9 -9.7,-6.9l-10.6,0l0,28.2zm5.5,-12.6l5.5,0c3.2,0 4.6,1.4 4.6,4.1c0,2.7 -1.4,4.1 -4.6,4.1l-5.5,0l0,-8.2zm0,-11.2l5.5,0c2.6,0 3.9,1.5 3.9,3.4c0,2 -1.3,3.4 -3.9,3.4l-5.5,0l0,-6.8zm40.6,23.8l0,-4.5l-13.9,0l0,-7.9l9.8,0l0,-4.5l-9.8,0l0,-6.7l13.5,0l0,-4.5l-18.9,0l0,28.1l19.3,0zm10,0l0,-11.5l4.7,0l5.4,11.5l6.1,0l-6.3,-12.6c3.5,-1 5.3,-3.8 5.2,-7.3c0,-4.7 -2.7,-8.4 -9.1,-8.4l-11.4,0l0,28.3l5.4,0zm0,-23.8l5,0c3,0 4.6,1.3 4.6,4c0,2.7 -1.3,4 -5.6,4l-4,0l0,-8zm41.4,2.4c-1.3,-4.1 -4.7,-7.2 -10.4,-7.2c-9.2,0 -11.9,7.7 -11.9,14.9c0,8 3.6,14.1 11.4,14.1c3,0 5.2,-0.8 7.4,-3.3l0,2.9l4,0l0,-14.3l-10.7,0l0,4.5l5.4,0c-0.1,3.3 -2.4,5.6 -6,5.6c-3.8,0 -6.1,-3.8 -6.1,-9.7c0,-6.3 2,-10.2 6,-10.2c2.8,0 4.4,1.2 5.7,4l5.2,-1.3z" class="st0"/>
  <path id="svg_4" d="m375.6,133.3c0,4.6 -1.8,6.2 -5.5,6.2c-3.7,0 -5.5,-1.6 -5.5,-6.2l0,-17.9l-5.5,0l0,17.7c0,8.3 5.1,10.9 11,10.9c5.8,0 11,-2.7 11,-10.9l0,-17.7l-5.5,0l0,17.9zm17.2,10.4l0,-20.1l0.1,0l11.7,20.1l5.3,0l0,-28.2l-5.1,0l0,19.2l-0.1,0l-11.3,-19.2l-5.7,0l0,28.2l5.1,0zm29.5,-28.2l-5.5,0l0,28.2l5.5,0l0,-28.2zm11.9,28.2l6.1,0l7.6,-28.2l-5.4,0l-5.3,20.8l-0.2,0l-5.1,-20.8l-5.4,0l7.7,28.2zm36.7,0l0,-4.5l-13.9,0l0,-7.9l9.8,0l0,-4.5l-9.8,0l0,-6.8l13.5,0l0,-4.5l-18.9,0l0,28.2l19.3,0zm10.1,0l0,-11.5l4.7,0l5.4,11.5l6.1,0l-6.3,-12.6c3.5,-1 5.3,-3.8 5.2,-7.3c0,-4.6 -2.7,-8.4 -9.1,-8.4l-11.4,0l0,28.2l5.4,0l0,0.1zm0,-23.9l5,0c3,0 4.6,1.3 4.6,4c0,2.7 -1.3,4 -5.6,4l-4,0l0,-8zm39.4,1.6c-1.7,-4.1 -5.5,-6.4 -10.1,-6.4c-5,0 -9.2,2.8 -9.2,7.9c0,8.7 14.7,7.6 14.7,13.1c0,2.7 -2.1,3.8 -4.8,3.8c-3.2,0 -4.9,-1.8 -6.2,-4.4l-4.5,2c1.6,4.1 6,6.7 10.7,6.7c6.3,0 10,-2.9 10,-8.7c0,-9.1 -14.7,-8.1 -14.7,-13c0,-2.2 1.7,-3.1 4.1,-3.1c2.6,0 4.3,1.5 5.1,3.7l4.9,-1.6zm12,-5.9l-5.5,0l0,28.2l5.5,0l0,-28.2zm4.6,0l0,4.5l7.5,0l0,23.7l5.5,0l0,-23.7l7.5,0l0,-4.5l-20.5,0zm31.3,5.4l0,0l3.3,12.2l-6.7,0l3.4,-12.2zm-11.7,22.8l5.4,0l1.7,-6.1l9,0l1.6,6.1l5.4,0l-8.1,-28.2l-6.8,0l-8.2,28.2zm5.5,-30.2l4.8,0l0,-4.5l-4.8,0l0,4.5zm7.5,0l4.7,0l0,-4.5l-4.7,0l0,4.5zm9.3,2l0,4.5l7.5,0l0,23.7l5.5,0l0,-23.7l7.5,0l0,-4.5l-20.5,0z" class="st0"/>
  <rect id="svg_5" height="310.1" width="1" class="st0" y="0.6" x="336.1"/>
  <path id="svg_6" d="m155.6,2.8c-86.8,0 -157.2,69.4 -157.2,155.1c0,85.6 70.4,155.1 157.2,155.1c86.8,0 157.2,-69.4 157.2,-155.1c0,-85.6 -70.4,-155.1 -157.2,-155.1" class="st1"/>
  <path id="svg_7" d="m156.7,0.7c-86.8,0 -157.2,69.4 -157.2,155.1c0,85.6 70.4,155.1 157.2,155.1c86.8,0 157.2,-69.4 157.2,-155.1c0,-85.7 -70.4,-155.1 -157.2,-155.1m16.9,34.2c1.4,0.2 2.7,0.4 4,0.6l0,8.9l-4,-6.1l0,-3.4zm5.4,232.6l-1.5,1.4l0,1.7l1.7,0l0,1.7l-1.7,0l0,1.7l-1.8,0l0,-1.7l-1.7,0l0,-1.7l1.7,0l0,-1.7l0,0l-1.5,-1.4l-5.2,0l-1.5,1.4l0,0l0,1.7l1.7,0l0,1.7l-1.7,0l0,1.7l-1.7,0l0,-1.7l-1.7,0l0,-1.7l1.7,0l0,-1.7l-1.5,-1.4l-5.1,0l-1.5,1.4l0,1.7l1.7,0l0,1.7l-1.7,0l0,1.7l-1.8,0l0,-1.7l-1.7,0l0,-1.7l1.7,0l0,-1.7l0,0l-1.5,-1.4l-5.2,0l-1.5,1.4l0,1.7l1.7,0l0,1.7l-1.7,0l0,1.7l-1.7,0l0,-1.7l-1.7,0l0,-1.7l1.7,0l0,-1.7l-1.5,-1.4l-5.2,0l-1.5,1.4l0,1.7l1.7,0l0,1.7l-1.7,0l0,1.7l-1.8,0l0,-1.7l-1.7,0l0,-1.7l1.7,0l0,-1.7l-1.5,-1.4l-15,0c0.6,0.6 5.2,4.6 7.6,6.7c-4.2,-1 -8.2,-2.2 -12.2,-3.6c0,0 0,0 0,0l0,-2.2l1,-0.8l3,-2.6l26.9,0c0.7,0.8 1.5,1.3 2.6,1.5c0.2,0 0.3,0 0.5,0c0.5,0 1.2,-0.1 1.7,-0.2c0.6,-0.1 1,-0.2 1.5,-0.5c0.2,-0.1 0.7,-0.4 1.2,-0.8l0.1,-0.1l12.3,0c0.2,0.2 0.5,0.4 0.7,0.6c1.2,0.9 2.4,1.2 3.5,1.2l0,0c1.3,0 2.4,-0.4 2.9,-0.7c0.2,-0.1 0.6,-0.4 0.8,-1l21.4,0l3.9,3.3l0,2.4c-0.2,0.1 -0.5,0.2 -0.8,0.3c-3.7,1.3 -7.5,2.4 -11.4,3.3c1.9,-1.9 5.6,-5.7 6.7,-6.7l-14.4,0l0,-0.1zm1.9,7.9c-7.8,1.5 -16,2.4 -24.3,2.4c-8.3,0 -16.4,-0.8 -24.3,-2.4l48.6,0zm-36.3,-207.8l0,7.5l-15.1,0l0,-7.5l15.1,0zm-9,-1.7l0,-12.2c0,-0.5 0.2,-1 0.6,-1.3c0.4,-0.4 0.9,-0.6 1.5,-0.6c1.1,0 1.9,0.9 1.9,1.9l0,12.2l-4,0zm5.8,-12.2c0,-0.6 0.2,-1.1 0.5,-1.4c0.3,-0.3 0.6,-0.5 1,-0.5c0.4,0 0.8,0.2 1.1,0.5c0.3,0.4 0.6,0.8 0.6,1.4l0,0l0,12.2l-3.2,0l0,-12.2l0,0zm15.2,13.9l0,0l9.5,0l0,7.5l-18.8,0l0,-7.5l9.3,0zm-9.4,-1.7l0,-12.2l0,0c0,-1.1 0.8,-1.9 1.6,-1.9c0.4,0 0.8,0.2 1.1,0.5c0.3,0.3 0.5,0.8 0.5,1.4l0,12.2l-3.2,0zm5,0l0,-12.2c0,-1.1 0.8,-1.9 1.8,-1.9c1,0 1.8,0.8 1.8,1.9l0,0l0,12.2l-3.6,0zm5.3,0l0,-12.2l0,0c0,-1.1 0.8,-1.9 1.8,-1.9c0.9,0 1.8,0.8 1.8,1.9l0,12.2l-3.6,0zm-0.8,58.3l0,0l-0.1,0l0,0c-1.8,0 -3.6,0.2 -5.3,0.6l5.4,-8.1l5.4,8.1c-1.8,-0.4 -3.6,-0.6 -5.4,-0.6m4.4,2.2l0,9.1c-1.2,-0.3 -2.3,-0.4 -3.6,-0.5l0,-9c1.2,0 2.4,0.1 3.6,0.4m-5.3,-0.5l0,9c-1.4,0.1 -2.8,0.3 -4.1,0.6l0,-9.1c1.4,-0.2 2.7,-0.4 4.1,-0.5m0.8,-12.3l-7.9,11.9c-0.5,0.2 -1.1,0.4 -1.6,0.6l0,-3.2l9.4,-14.3l9.4,14.1l0,3.3c-0.5,-0.2 -1,-0.4 -1.5,-0.5l-7.8,-11.9zm0.1,-12.9l9.4,14l0,4.9l-9.4,-14.1l-9.4,14.3l0,-4.8l9.4,-14.3zm-9.5,11.1l0,-24c0.1,-1 1,-1.8 2,-1.8c1,0 1.9,0.9 1.9,1.9l0,18l-3.9,5.9zm8.6,-21.7l0,6.7l-3,0l0,-8.8c0,-0.8 0.3,-1.3 1,-1.8c0.5,-0.3 1.2,-0.6 2,-0.7l0,1.9c-0.5,0.3 -0.8,0.8 -0.8,1.4c0,0.5 0.3,1 0.8,1.3m-0.3,9.3l-2.6,4l0,-5.5c0.6,0.5 1.6,1.1 2.6,1.5m2,-12.1l0,-1.8c0.7,0.1 1.4,0.4 1.9,0.7c0.7,0.5 1,1 1,1.8l0,0l0,8.8l-2.9,0l0,-6.7c0.5,-0.3 0.8,-0.8 0.8,-1.4c0,-0.6 -0.3,-1.1 -0.8,-1.4m2.9,10.6l0,5.4l-2.6,-3.9c1,-0.4 2,-1 2.6,-1.5m1.8,7.9l0,-17.8c0,-1 0.9,-1.9 1.9,-1.9c1,0 1.9,0.8 1.9,1.8l0,23.7l-3.8,-5.8zm0.6,20.9c1.2,0.3 2.4,0.7 3.5,1.2l0,9.5c-1.1,-0.6 -2.3,-1.1 -3.5,-1.5l0,-9.2zm3.2,-60.8l-3.2,0l0,-12.2l0,0c0,-0.6 0.2,-1.1 0.5,-1.4c0.3,-0.3 0.6,-0.5 1,-0.5c0.4,0 0.8,0.2 1.2,0.5c0.3,0.3 0.6,0.8 0.6,1.4l0,12.2l-0.1,0zm0,10.8l0,8.2c-0.6,-0.4 -1.2,-0.6 -1.9,-0.6c-1.1,0 -2.1,0.5 -2.8,1.3c-0.3,-0.3 -0.6,-0.6 -0.9,-0.9c-0.8,-0.6 -1.8,-0.9 -2.9,-1l0,-0.9l1.5,0l0,-1.7l-1.5,0l0,-1.5l-1.7,0l0,1.5l-1.6,0l0,1.7l1.6,0l0,0.9c-1.1,0.1 -2.1,0.4 -3,1c-0.3,0.2 -0.7,0.5 -0.9,0.9c-0.7,-0.8 -1.6,-1.3 -2.7,-1.3c-0.7,0 -1.4,0.2 -2,0.6l0,-8.2l18.8,0zm-16,50.2l0,9.2c-1.2,0.4 -2.4,1 -3.5,1.6l0,-9.6c1.2,-0.5 2.3,-0.9 3.5,-1.2m6.7,9.7c4.9,0 9.4,2 12.6,5.1c3.2,3.1 5.2,7.4 5.2,12c0,6.7 -4.1,12.2 -10.4,15.5c0,-0.3 0.1,-0.7 0.1,-1.1c0.2,-2.3 2.5,-6.2 2.5,-6.2s1.6,0.2 2.3,-1c0.7,-1.2 0.1,-2.3 0.1,-2.3s1.7,-0.5 1.9,-2c0.2,-2.1 -1.7,-2.5 -1.7,-2.5s1,-1 0.4,-2.5c-0.7,-1.7 -2.6,-1.4 -2.6,-1.4s0.3,-1 -1.1,-1.8c-1.4,-0.8 -2.1,-0.3 -2.1,-0.3s-0.3,-0.7 -1.1,-1c-0.8,-0.3 -1.6,-0.1 -1.6,-0.1s-0.4,-0.5 -1.2,-0.6c-0.8,-0.1 -1.5,0.2 -1.5,0.2s-0.9,-0.8 -1.8,-0.8c-0.9,0 -1.8,0.8 -1.8,0.8s-0.3,-0.4 -1.2,-0.4c-1,0 -1.4,0.8 -1.4,0.8s-0.7,-0.4 -1.6,-0.1c-0.9,0.4 -1.1,1.2 -1.1,1.2s-0.6,-0.6 -2.1,0.3c-1.2,0.7 -1,1.9 -1,1.9s-1.2,-0.3 -2.3,0.9c-1.1,1.2 0,2.8 0,2.8s-1.8,0.4 -1.6,2.3c0.2,1.9 1.9,2.4 1.9,2.4s-0.3,1.2 0.3,2.2c0.4,0.7 1.5,1 2.4,1c0.2,0.7 1.3,5.2 1.6,6.9c0,0 0,0 0,0c-1.1,-0.7 -2,-1.3 -2,-1.3c-5.1,-3.5 -7.8,-8.5 -7.8,-13.8c0,-4.6 2,-8.9 5.2,-12c3.1,-3.1 7.6,-5.1 12.5,-5.1m37,-47.7l0,-1.5l-1.7,0l0,1.5l-1.6,0l0,1.7l1.6,0l0,5l-4.3,6.5l0,-32.7l10.1,15l0,17.4l-4.1,-6.1l0,-5l1.5,0l0,-1.7l-1.5,0l0,-0.1zm-0.8,8.5l4.9,7.4l0,4.3c-0.6,-0.4 -1.3,-0.6 -2,-0.6c-1.2,0 -2.3,0.5 -3,1.3c-0.7,-0.8 -1.8,-1.3 -2.9,-1.3c-0.8,0 -1.5,0.2 -2.1,0.6l0,-4l5.1,-7.7zm4.9,14.5l0,39.7l-4.2,-6.3l0,-33.2l0,0c0,-1 1,-1.9 2.1,-1.9c1.1,0 2,0.8 2.1,1.7m-10.1,0.2c0,-1 1,-1.9 2.1,-1.9c1.1,0 2.1,0.9 2.1,1.9l0,33.2l-4.2,6.3l0,-39.5l0,0zm5.1,35l5,7.6l0,14.5c-0.6,-0.4 -1.3,-0.6 -2,-0.6c-1.2,0 -2.3,0.5 -3,1.4c-0.7,-0.9 -1.9,-1.4 -3.1,-1.4c-0.7,0 -1.4,0.2 -2,0.5l0,-14.4l5.1,-7.6zm0.8,104.2l0,-37.9l4.2,0l0,26.7l-4,7.1l0,4.3c-0.1,-0.1 -0.1,-0.1 -0.2,-0.2m0.2,9.1l0,1.9l-1.2,0c0.1,-0.1 0.2,-0.2 0.3,-0.3c0.4,-0.5 0.7,-1 0.9,-1.6m-0.2,-50.9l0,-37.3l0,0c0,-0.5 0.2,-1 0.6,-1.3c0.4,-0.4 1,-0.6 1.5,-0.6c1.1,0 2,0.9 2,1.9l0,0l0,37.3l-4.1,0zm-3.9,-39.2c0.6,0 1.1,0.2 1.6,0.6c0.4,0.4 0.7,0.8 0.7,1.3l0,37.3l-4.2,0l0,-37.8c0.1,-0.8 0.9,-1.4 1.9,-1.4m2.2,43.1l0,36.4c-0.2,-0.2 -0.4,-0.3 -0.5,-0.5c-1.4,-1.3 -2.8,-2.8 -3.5,-4.1l-0.1,0l0.1,-0.1c0,0 -0.1,-0.1 -0.1,-0.1l0,-31.6l4.1,0zm-1.7,37.2c1.3,1.1 2.5,2.2 3.2,2.8c-0.3,1.9 -0.5,4 -1,5.6c-0.2,0.8 -0.5,1.5 -0.9,1.9c-0.3,0.4 -0.6,0.5 -1.1,0.5c-0.5,0 -0.8,-0.2 -1.1,-0.5c-1,-1.1 -1.3,-4.4 -1.2,-6l0,-1.6l0,0l0,-0.1c-1.3,-0.5 -3,-1 -4.7,-2.7c-1.7,-1.7 -3.4,-4.7 -4.3,-10.6c-0.3,-2 -0.7,-6.5 -1.2,-11c-0.5,-4.5 -1.2,-9 -2.2,-11.5l-1.6,0.7c0.9,2 1.6,6.5 2.1,11c0.5,4.5 0.8,8.9 1.2,11.1c0.9,6.1 2.8,9.5 4.8,11.5c1.5,1.5 3.1,2.2 4.3,2.7c-0.5,0.4 -0.9,1 -1.4,1.7c-0.9,1.3 -2.1,3 -3.4,4.3c-1.3,1.3 -2.6,2.2 -3.6,2.2c-0.6,0 -1.1,-0.2 -1.8,-0.9c-2.7,-2.8 -5.7,-4.2 -8.5,-4.2c-2,0 -4,0.8 -5.6,2.2c-0.9,0.8 -1.9,1.3 -2.9,1.3c-1,0 -2.2,-0.4 -3.5,-1.7c-0.5,-0.4 -1.6,-1.4 -1.4,-1.3c0.2,0.2 -1.2,-1.2 -2.3,-1.6c-1,-0.4 -1.9,-0.4 -2.5,-0.4c-0.7,0 -1.7,0.1 -3.1,0.6c-1.6,0.6 -3.2,1.7 -5.4,3.5c-1.5,1.3 -2.9,1.7 -4,1.7c-1.7,0 -3.2,-1 -4.1,-2.2c-0.8,-1.1 -1.5,-1.8 -2.2,-2.2c-0.6,-0.4 -1.3,-0.5 -1.9,-0.5c2.9,-7.2 7.5,-21 8.8,-26.3c0.8,-3.1 1.5,-6.3 2.3,-9.3c0.7,-2.4 1.7,-5.6 4.3,-7.4c1.1,-0.4 2.3,-0.7 3.4,-0.6c0.6,0 1.2,0.1 1.6,0.2c1.4,0.5 3.1,1.7 4.9,2.8c1.8,1.1 3.7,2.1 5.7,2.1c3.8,0 7.8,-2.2 8.9,-2.7c0.4,-0.2 0.7,-0.4 1.2,-0.6c0.5,-0.2 1,-0.4 1.4,-0.7c0.1,0 0.2,-0.1 0.4,-0.2c0.8,-0.3 1.6,-0.6 2.4,-0.6c0.5,0 0.9,0.1 1.4,0.2c0.4,0.1 1,0.7 1.5,1.6c1.6,2.7 2.8,8.1 3.3,10.8c0.7,3.7 1.6,9.5 2.9,14.1c0.4,1.2 1,2.8 1.7,4.1c0.3,0.6 0.7,1.2 1,1.6c0.1,0.1 0.1,0.2 0.2,0.2c1,1.6 2.5,3.1 4,4.4m-1.9,11.7l-6.1,0c0.7,-0.7 1.4,-1.5 2.1,-2.2c0.8,-1 1.6,-2.1 2.2,-2.9c0.1,0.8 0.2,1.7 0.4,2.5c0.2,0.9 0.6,1.7 1.1,2.4c0.1,0 0.2,0.1 0.3,0.2m-13.8,0l-1.2,0c-0.1,-0.4 -0.3,-0.9 -0.6,-1.4c0.6,0.4 1.2,0.9 1.8,1.4m-4.4,-2.4c1.4,2 1.7,3.2 1.7,3.9c0,0.4 -0.1,0.5 -0.1,0.7c0,0.1 -0.1,0.1 -0.1,0.1c-0.3,0.2 -1.1,0.5 -2,0.5c-0.7,0 -1.6,-0.2 -2.5,-0.8c-1,-0.7 -1.8,-1.8 -2.3,-2.7c-0.3,-0.4 -0.4,-0.8 -0.6,-1c1.1,-0.8 2.4,-1.2 3.7,-1.2c0.1,0 0.1,0 0.1,0l1.2,3.3l1.6,-0.6l-0.7,-2.2zm-6.9,2.4l-1.9,0c0.5,-0.2 1,-0.5 1.5,-0.8c0.1,0.3 0.3,0.6 0.4,0.8m-5.7,0l-3.2,0c0.1,-0.5 0.1,-1.2 0.1,-1.8c0,-0.1 0,-0.2 0,-0.3c0.1,0.1 0.2,0.1 0.2,0.2c1.1,1 2,1.6 2.9,1.9m-6.4,0.6l1.4,-4.2l0.4,0.2c0,0.4 0,0.9 -0.1,1.5c-0.1,1 -0.2,2.3 -0.2,2.5c0,0.1 -0.3,0.4 -0.6,0.7c-0.4,0.3 -0.8,0.5 -1.1,0.7c0,0 -0.4,0.2 -0.9,0.3c-0.5,0.1 -1,0.2 -1.4,0.2c-0.1,0 -0.2,0 -0.3,0c-0.5,0 -1.3,-0.6 -1.9,-1.4c-0.2,-0.2 -0.3,-0.6 -0.3,-1.2c0,-1.2 0.6,-2.9 1.4,-3.9c0.1,-0.1 0.2,-0.2 0.2,-0.2c0.4,-0.1 0.7,-0.2 1,-0.2l0.1,0c0.2,0 0.4,0 0.6,0c0.3,0 0.6,0 0.9,0.1l0.5,0.2l-1.5,4.4l1.8,0.3zm-6.7,-0.6l-3.4,0c0.4,-0.3 0.9,-0.6 1.3,-1c0.9,-0.8 1.8,-1.4 2.6,-1.9c-0.3,0.9 -0.5,1.8 -0.5,2.7c0,0.1 0,0.2 0,0.2m-24,-9.8c3.5,-3.2 7,-8.4 9.3,-12.4c3.4,-6 5.4,-14 6.4,-17.3c1.2,-4 2.7,-5.6 4.1,-6.8c-0.9,1.6 -1.4,3.4 -1.8,4.7c-0.9,3.1 -1.6,6.3 -2.3,9.4c-1.4,5.7 -6.7,21.6 -9.5,27.8c-0.5,0.7 -0.8,1.5 -1.2,2.2c-0.4,0.7 -0.9,1.2 -1.9,1.5c-0.1,0 -0.3,0.1 -0.4,0.1c-0.6,0 -1.2,-0.5 -1.8,-2c-0.5,-1.7 -0.9,-4.1 -0.9,-7.2m0.6,9.8l-1.6,0l0,-2.9c0.1,0.2 0.2,0.5 0.2,0.7c0.4,0.9 0.9,1.7 1.4,2.2m4.5,-48.9l0,30.2c-1.3,2 -2.7,3.9 -4.2,5.6l0,-35.7l4.2,0l0,-0.1zm-4.2,-3.9l0,-37.3c0,-0.5 0.2,-1 0.6,-1.3c0.4,-0.4 1,-0.6 1.5,-0.6c1.1,0 2,0.8 2,1.8l0,37.4l-4.1,0zm4.2,-57.9l-4.2,-6.3l0,-33.2l0,0c0,-1 0.9,-1.9 2,-1.9c0.6,0 1.1,0.2 1.5,0.6c0.4,0.4 0.6,0.8 0.6,1.3l0,39.5l0.1,0zm12.1,-70.5l0,-1.5l-1.7,0l0,1.5l-1.5,0l0,1.7l1.5,0l0,3.1l-6.4,9.6l0,-18.7l15.1,0l0,19.7l-7,-10.6l0,-3.1l1.5,0l0,-1.7l-1.5,0zm-0.9,6.6l7.9,11.9l0,0.1c-1,-0.8 -2.3,-1.3 -3.6,-1.3c-1.7,0 -3.3,0.8 -4.2,2.1c-0.9,-1.3 -2.4,-2.1 -4.1,-2.1c-1.2,0 -2.4,0.4 -3.3,1.2l0,-0.9l7.3,-11zm5.5,80c1.8,0 3.2,1.4 3.3,3.1l-1,0.3l0.2,0.8c0.1,0.2 0.1,0.3 0.1,0.4c0,0.5 -0.3,0.7 -0.8,0.8c-0.4,0 -0.7,-0.2 -0.9,-0.7l-0.1,-0.3l-0.2,-0.5l-3.4,1.1c-0.4,-0.5 -0.6,-1.1 -0.6,-1.8c0.1,-1.8 1.6,-3.2 3.4,-3.2m-0.1,-0.9l0,-0.8c0.3,0.3 0.6,0.6 0.9,0.9c-0.2,0 -0.5,-0.1 -0.7,-0.1c-0.1,0 -0.2,0 -0.2,0m4.5,5.6l0,0l0.9,-0.4l2.1,5.8l-0.7,0.3c-0.5,-0.7 -1.3,-1.1 -2.1,-1.1c-1.3,0 -2.7,1 -2.7,2.6c0,0 0,0 0,0l-0.9,0.3l-2,-5.9l0.9,-0.3c0.5,0.7 1.4,1.1 2.2,1.1c0.6,0 1.2,-0.2 1.7,-0.6c0.3,-0.4 0.6,-1.1 0.6,-1.8m-0.5,-3.1c0.3,0.2 0.8,0.5 1.3,0.9l-1,0.3c-0.1,-0.4 -0.2,-0.8 -0.3,-1.2m20.7,2.8l0,1.3c-0.7,-0.9 -1.4,-1.7 -2,-2.5c0.7,-0.4 1.4,-0.8 2,-1.2c-0.1,0.4 -0.2,0.8 -0.2,1.2c0,0.5 0.1,0.9 0.2,1.2m-0.9,3c-0.4,0.4 -1.1,1.1 -2,1.8c-1.1,0.9 -2.3,2 -2.4,3.7c0,0.2 0,0.3 0,0.5c0.1,0.6 0.6,1.6 1.2,3.3c1,2.4 2.5,5.8 4,8.7c0.7,1.4 1.4,2.8 2.1,3.8c0.7,1 1.1,1.7 1.8,2.2c0.6,0.5 1.3,1 2.1,1.2c2.2,0.7 4,1.1 4.9,3.1l1.6,-0.7c-1.3,-2.7 -3.9,-3.3 -6,-4c-0.1,0 -0.1,-0.1 -0.2,-0.1c0,-0.1 0,-0.3 0,-0.4c0,-1.7 0.5,-4.7 0.7,-6.1l-1.7,-0.3c-0.2,1.2 -0.6,3.6 -0.7,5.5c-0.3,-0.3 -0.5,-0.7 -0.7,-1.1c-1,-1.9 -1.5,-4.7 -1.7,-7.4c-0.2,-2.7 -0.3,-5.3 -0.6,-7l-1.7,0.3c0.3,1.7 0.3,5 0.7,8.3c-0.4,-0.8 -0.8,-1.7 -1.2,-2.5c-0.8,-1.7 -1.5,-3.4 -2.1,-4.7c-0.5,-1.3 -0.9,-2.3 -0.9,-2.4c0,-0.1 0,-0.1 0,-0.2c0,-0.6 0.7,-1.5 1.8,-2.4c0.6,-0.6 1.4,-1.1 1.9,-1.7c6.5,8.8 13.1,19.9 14.4,25.2c0.1,0.4 0.1,0.8 0.1,1.2c0,2.5 -1.5,4.3 -3,5.5c-0.5,0.4 -1,0.7 -1.5,1c0,-0.2 0,-0.4 0,-0.7c0,-1.1 -0.2,-2.5 -1.1,-3.7c-0.4,-0.5 -0.9,-0.9 -1.4,-1.2c-1,-0.8 -2.3,-1.4 -3.9,-1.6c0,0 0,0 0,0l-0.3,-0.1l0,0l-0.1,0l-0.2,0c0,0 0,0 -0.1,0c-0.1,0 -0.5,-0.3 -0.9,-0.8c-1.4,-2.1 -3.4,-6.7 -5.3,-11.9c-1.7,-4.7 -2.8,-9.7 -3.4,-12.4c0.6,-0.3 1.2,-0.5 1.8,-0.9c0.7,-0.5 1.4,-1.2 1.7,-2.1c0.1,-0.5 0.2,-1 0.2,-1.6c0.7,0.9 1.4,1.8 2.1,2.7m4.9,-7.4c1.8,0 3.3,1.5 3.3,3.3c0,1.8 -1.5,3.3 -3.3,3.3c-1.8,0 -3.3,-1.5 -3.3,-3.3c0,-1.8 1.4,-3.3 3.3,-3.3m-0.3,-0.9c0.2,-0.2 0.4,-0.3 0.5,-0.5l0,0.5c-0.1,0 -0.2,0 -0.3,0c0,0 -0.1,0 -0.2,0m5.2,-31.8l0,14.3c-0.6,-2.2 -1.6,-4.4 -2.9,-6.2l0,-11.1c1,1 2,1.9 2.9,3m-2.8,-5.1l2.8,-4.3l0,6.9c-0.9,-0.9 -1.8,-1.8 -2.8,-2.6m2.8,42.5l0,14c-0.9,-1.5 -1.9,-3.1 -3,-4.7l0,0l0,-7.1c1.3,-0.7 2.2,-2.1 2.2,-3.6c0,-1.6 -0.9,-2.9 -2.2,-3.7l0,-3c1.4,-1.8 2.4,-3.9 2.9,-6.1l0,11.3c-0.2,0.5 -0.3,0.9 -0.3,1.4c0.1,0.6 0.2,1.1 0.4,1.5m-4.7,2.7l0,4.2c-0.8,-1.2 -1.7,-2.4 -2.5,-3.6l0,-1.3c0.7,0.4 1.4,0.7 2.3,0.7c0,0 0.1,0 0.2,0m8.8,34.4c1.7,-1.4 3.3,-3.6 3.3,-6.6c0,-0.5 0,-1 -0.1,-1.5l0,0l0,0c-0.3,-1.3 -0.9,-2.8 -1.6,-4.5l0,-22.1c1.4,-0.6 2.3,-2 2.4,-3.5l0,38.4l-4,0l0,-0.2zm4,3.9l0,20.4c-0.6,-2.9 -1.1,-5.9 -1.5,-8.1c-0.3,-1.9 -1,-4.9 -1.9,-7.6c-0.5,-1.4 -1,-2.7 -1.6,-3.7c-0.2,-0.3 -0.4,-0.7 -0.6,-0.9l5.6,0l0,-0.1zm-6.4,-79l0,-8.9l6.4,9.6l0,11.8c-1.4,-4.9 -3.6,-9 -6.4,-12.5m6.4,24.8l0,11.5c-0.1,-1.6 -1.1,-2.9 -2.4,-3.5l0,-22.2c1.5,4.1 2.3,8.9 2.4,14.2m-4.2,-18.2l0,25.8l0,0c-0.8,0 -1.6,0.2 -2.2,0.6l0,-30.2c0.8,1.2 1.6,2.5 2.2,3.8m-2.2,-18.6l0,-5.9l6.4,9.6l0,5.9l-6.4,-9.6zm0,-8.9l0,-10.2l0,0c0,0 0,0 0,0l0,-0.3c0,-1.6 1.4,-3 3.1,-3c1.8,0 3.2,1.4 3.2,3l0,0l0,20l-6.3,-9.5zm3.1,-15.2c-1.7,0 -3.2,0.8 -4,2.1c-0.9,-1.3 -2.5,-2.1 -4.2,-2.1c-1.3,0 -2.6,0.5 -3.5,1.3l7.9,-11.9l7.1,10.7l0,1.1c-0.9,-0.8 -2,-1.2 -3.3,-1.2m-0.9,69.4c1.8,0 3.3,1.5 3.3,3.3c0,1.8 -1.5,3.3 -3.3,3.3c-1.8,0 -3.3,-1.5 -3.3,-3.3c0,-1.9 1.5,-3.3 3.3,-3.3m0,7.4l0,18.2c-0.7,-1.3 -1.4,-2.6 -2.2,-4l0,-14.8c0.7,0.4 1.4,0.6 2.2,0.6l0,0zm-9.7,33.5l-6.6,3.6c-0.1,-0.1 -0.1,-0.4 -0.1,-0.6c0.1,-0.2 0.1,-0.5 0.2,-0.7l5.8,-3.2l-0.6,-1.1l-5.1,2.6c0.4,-0.7 1.2,-1.7 1.7,-2.1c0.7,-0.5 1.7,-1.1 5.1,-3c0.1,0 0.3,0 0.4,0c0.7,0.2 1.9,0.6 2.8,1.2c1.2,1 1.7,2.4 1.7,3.7c0,0.4 -0.1,0.8 -0.2,1.1c-0.8,0.5 -3.5,1.7 -3.5,1.7l-0.3,-0.8l-6,3.4c0,0 -0.8,-0.7 -0.9,-0.8l6.4,-3.8l-0.8,-1.2zm-14,3.1l-0.5,-0.1c-2.1,-0.3 -4,-1.9 -4,-4.2c0,-0.2 0,-0.4 0.1,-0.6c0.3,-2.1 2.1,-3.9 4.6,-3.9c0.3,0 0.6,0 1,0.1l0.5,0.1l0.3,-0.4c0.7,-1 2.1,-1.7 3.3,-1.7c0.9,0 1.9,0.1 2.7,0.5c1.8,0.8 2,2.9 2.1,3.5c-0.4,0.2 -1.1,0.6 -1.8,1c0,-0.1 0,-0.1 0,-0.2c0,-1.5 -1.3,-2.7 -2.8,-2.8c-1.2,0 -2.1,0.7 -2.5,1.7l-0.9,0.3c-0.4,-0.2 -0.8,-0.4 -1.3,-0.4c-1.5,0 -2.8,1.2 -2.8,2.8c0,1.5 1.3,2.8 2.8,2.8c0.3,0 0.5,0 0.8,-0.1l0.4,0.3c0,0 0,0.1 0,0.2c0,1.5 1.3,2.8 2.8,2.8c0.6,0 1.1,-0.2 1.5,-0.5c0,0.1 0.1,0.3 0.1,0.5c0.4,0.9 1.3,1.7 1.5,1.9c-0.3,0.2 -1.5,0.5 -2.2,0.6c-0.4,0.1 -1.2,0.1 -1.6,0c-1.5,-0.3 -3.2,-1 -3.9,-3.5l-0.2,-0.7zm0.1,3.4c-0.3,-0.1 -0.5,-0.3 -0.8,-0.5c-0.8,-0.5 -1.6,-1 -2.4,-1.5l1.8,0c0,0 0.1,0 0.1,0c0.3,0.9 0.8,1.5 1.3,2m-22.4,-47.4c1.8,0 3.3,1.5 3.3,3.3c0,1.8 -1.5,3.3 -3.3,3.3c-1.8,0 -3.3,-1.5 -3.3,-3.3c0,-1.9 1.4,-3.3 3.3,-3.3m-0.2,-0.9l0,-25.3c0.7,-1.5 1.5,-2.8 2.4,-4.1l0,30.1c-0.7,-0.4 -1.4,-0.7 -2.3,-0.7c0,0 0,0 -0.1,0m2.4,7.6l0,16.9c-0.5,0.8 -0.9,1.6 -1.3,2.4c-0.4,0.7 -0.7,1.4 -1.1,2.1l0,-20.7c0,0 0.1,0 0.1,0c0.9,0 1.7,-0.3 2.3,-0.7m-3.4,28.3l0,0l0,-0.1c0.1,-1 1.5,-4.2 3.6,-8.1c1.8,-3.4 4.1,-7.3 6.4,-11l2,5.8l3.9,-1.4l-0.2,-0.8c0,-0.1 0,-0.2 0,-0.3c0,-0.6 0.5,-0.9 1,-0.9c0.4,0 0.6,0.1 0.8,0.7l0.3,0.8l0,0c-1,2.8 -3,7.9 -3.8,10.1c-1.9,1.6 -4.6,5.4 -5.6,6.9c0.3,-4.2 2.2,-13.2 2.8,-14.6l-1.6,-0.6c-1.1,2.8 -2.7,11.7 -2.8,16.4c0,1 0.1,1.8 0.3,2.5c0.4,1.3 1.5,2.4 3,2.4l0,0c1.3,0 2.8,-0.7 4.5,-2.1c-1,2 -2.8,3.4 -5.3,4.2c-0.3,0.1 -0.6,0.1 -0.9,0.1c-1.6,0 -3.9,-1.2 -5.7,-3.1c-1.8,-1.8 -3,-4.2 -3,-6c0.2,-0.2 0.2,-0.6 0.3,-0.9m13.3,-23.2c0,-0.5 0.5,-0.9 1,-0.9c0.4,0 0.6,0.1 0.8,0.7c0,0.1 0,0.2 0,0.3c0,0.5 -0.5,0.9 -1,0.9c-0.4,0 -0.6,-0.1 -0.8,-0.7l0,0c0,-0.1 0,-0.2 0,-0.3m0.8,2.8l0,0c1.4,0 2.7,-1 2.8,-2.6l0.8,-0.3l2,5.7l-0.5,0.1l-0.4,0.1c-0.5,-0.7 -1.3,-1.1 -2.1,-1.1c-1.3,0 -2.7,1 -2.7,2.6l-0.9,0.3l-1.9,-5.6l0.9,-0.3c0.5,0.7 1.3,1.1 2,1.1m10.4,-8.5l0.2,0c0.2,0 0.4,0 0.6,0l0,0c3,-0.3 4.2,-2.1 4.5,-2.8c-0.1,1.1 -0.1,2.3 -0.3,2.7l0,0l0,0c-0.2,0.6 -0.4,0.8 -0.9,1.2c-0.5,0.3 -1.3,0.6 -2.2,1.1l-0.6,0.3l0.2,0.7c0.2,0.7 0.4,1.7 0.7,2.9c-0.6,0.5 -1.4,0.8 -2.1,0.8c0,0 -0.1,0 -0.1,0c-0.8,0 -1.6,0.1 -2.6,-0.7c0.4,-1.1 0.6,-2.1 0.8,-2.8l0.2,-0.7l-0.7,-0.3c-2.1,-0.7 -3.2,-2.4 -3.4,-3.2c0,-0.4 -0.2,-0.9 -0.3,-1.4c-0.1,-0.6 0,-1.1 0,-1.1s1.6,3.2 6,3.3m-2.2,-7l4,0c0,0.5 -0.9,1.6 -2,1.6c-1.1,0 -2,-1.1 -2,-1.6m-1.8,15.7l0.7,-1.1c0,0 1.4,0.7 2.9,0.7c1.7,0 3,-0.8 3.2,-0.8c0.5,2.1 4.1,15.3 9,21.7c0,0.2 -0.4,0.4 -1,0.7c-1.1,-3.4 -3.1,-4.7 -6.7,-4.7c0,-1.2 0,-3.1 -0.4,-4.3c-0.7,-1.3 -1.2,-2.6 -1.3,-3c-0.2,-0.4 -0.5,-0.8 -0.7,-1.1c-0.5,-0.6 -0.9,-1.1 -1.9,-1.2c-0.1,0 -0.3,0 -0.4,0.1c0,0 -0.6,0 -0.8,0.1c-0.6,-1.3 -1.9,-4.8 -2.6,-7.1m1.1,7.7c-0.3,0.1 -0.6,0.2 -0.7,0.2c0,0 0,0 0,0l-1.2,-3.6l0.2,-0.1l0.5,-0.2l1.2,3.7zm-0.8,-12.9c-0.2,0.8 -0.6,1.9 -0.9,3.1l-0.8,-2.2l0,0l-1.3,-3.5c0.6,0.9 1.6,1.9 3,2.6m-1.5,14.1c-0.5,0.6 -0.9,1.3 -1.3,2c-0.5,0.9 -1,1.8 -1.5,2.2c0.6,-1.7 1.5,-3.8 2.3,-5.8l0.5,1.6zm-1.9,14.9l0.1,-0.1l0,0c0,0.1 -0.1,0.3 -0.1,0.4c0,0.3 -0.1,0.6 -0.1,0.9c0,1.6 0.7,3 1.7,4l-3.5,0c0,0 -0.1,0 -0.2,0c-0.2,0 -0.4,0 -0.6,0c1.4,-1.5 2.3,-3.2 2.7,-5.2m0.7,-2.7c-0.5,0.4 -1,0.7 -1.4,1c-0.2,0.1 -0.4,0.3 -0.5,0.4c-0.1,0.1 -0.2,0.1 -0.3,0.3c-2.8,2.7 -4.7,3.6 -5.6,3.6c-0.7,0 -1,-0.3 -1.5,-1.3c-0.1,-0.1 -0.1,-0.4 -0.1,-0.8c0.7,-0.9 1.9,-2.7 3.3,-4.6c1.6,-2.1 3.6,-4.3 4.7,-4.8c1.5,-0.6 2.1,-2.1 2.8,-3.2c0.6,-1.2 1.3,-2.1 1.8,-2.2c0.6,-0.2 2.4,-0.7 2.8,-0.8c0.1,0.1 0.3,0.3 0.5,0.6l-1.9,0.8l0.4,1.2l2.2,-0.6c0.1,0.2 0.4,0.6 0.5,0.8l0,0.2l-2.1,1l0.4,1.1l2.2,-0.6c0.1,0.2 0.1,0.6 0.2,0.9l-1.9,1l0.5,1l1.7,-0.3c0,0.1 0,0.2 0,0.3c0,0.3 0,0.2 -0.1,0.3c0,0 0,0 0,0c-0.9,0.3 -4,1.8 -5.9,2.8l0,0c-0.5,0.4 -1.7,1.2 -2.7,1.9m11.1,6c0.1,0.1 0.1,0.1 0.1,0.2c0,0.4 -0.1,1 0,1.4c-0.2,0.4 -0.6,0.6 -1.1,0.6c-0.7,0 -1.3,-0.6 -1.3,-1.3c0,0 0,-0.1 0.1,-0.3l0.1,-0.5l-1.5,-1l-0.4,-0.2l-0.4,0.2c-0.2,0.1 -0.4,0.1 -0.6,0.1c-0.7,0 -1.3,-0.6 -1.3,-1.3c0,-0.7 0.6,-1.3 1.3,-1.3c0.3,0 0.5,0.1 0.8,0.3l0.3,0.2l2,-0.7l0.3,-0.1l0.1,-0.4c0.2,-0.6 0.6,-1 1.3,-1c0.7,0 1.3,0.6 1.3,1.3c0,0.5 -0.3,1 -0.8,1.2l-0.4,0.2l-0.2,2l0,0.3l0.3,0.1zm1.8,-47.8c0,0 -0.2,0.7 -0.7,1.5c-0.4,0.7 -0.4,0.4 -1.2,1.6c0,0 -1.4,-1.1 -2.6,-1.3l0,-1.6l-0.7,0l0,1.5l-0.4,0l0,-0.4l-0.6,0l0,0.6c0,0.6 -1,0.7 -1,0l0,-0.6l-0.6,0l0,0.4l-0.4,0l0,-1.5l-0.8,0l0,1.5c0,0 -1.6,0.5 -2.3,1.1c-0.4,-0.3 -2.2,-0.9 -2.4,-2.8c-0.4,0 -0.5,0 -0.5,0c0,0 -0.9,-2.2 -1.3,-5c0.8,-0.4 2,-1.8 1.9,-2.4c0.5,0.4 0.8,0.6 1.6,0.6c0.7,0 1.7,-0.5 2,-1c0.5,0.3 2.4,1 3.4,-0.6c0.4,0.4 0.8,1 1.6,1c0.8,0 1.8,-0.4 1.8,-0.4s0.6,1 2,1c1.4,0 1.6,-0.6 1.6,-0.6s1.3,2 2.4,2.4c-0.2,0.7 -1.1,3.8 -1.7,5c-1,0 -1.1,0 -1.1,0m-23.1,5.5c-1.4,0.7 -2.3,2.1 -2.3,3.7c0,1 0.4,2 1.1,2.7l0,0.1l1.2,3.6l0,0l0,6.3c-1,1.5 -1.9,3.1 -2.8,4.6l0,-14.8l0,0l0,-1.3c0.1,-0.4 0.2,-0.8 0.2,-1.3c0,-0.4 -0.1,-0.9 -0.2,-1.3l0,-1.5l0,0l0,-10.5c0.5,2.2 1.5,4.2 2.8,6.1l0,3.6zm-2.7,-34.7l0,-7.1l2.9,4.4c-1,0.8 -2,1.7 -2.9,2.7m2.7,-0.3l0,11.3c-1.3,1.9 -2.2,4 -2.8,6.3l0,-14.7c0.9,-1.1 1.9,-2.1 2.8,-2.9m-10.8,-29.3c0,-1.6 1.5,-3 3.2,-3c1.7,0 3.1,1.4 3.1,3l0,0c0,0.1 0,0.2 0,0.3l0,10.2l-6.4,9.6l0.1,-20.1l0,0zm6.3,13.6l0,5.9l-6.4,9.6l0,-5.9l6.4,-9.6zm0,8.9l0,9c-2.8,3.5 -5,7.7 -6.4,12.5l0,-11.9l6.4,-9.6zm-6.3,34c0,-5.1 0.8,-9.7 2.2,-13.9l0,21.6c-1.2,0.6 -2,1.6 -2.2,2.9l0,-10.6l0,0zm2.2,15.1l0,24.8c-0.5,1.2 -0.8,2.1 -0.9,2.9c-0.1,0.5 -0.2,1 -0.2,1.5c0,2 0.9,4 2.2,5.7l-3.3,0l0,-37.8c0.2,1.3 1.1,2.4 2.2,2.9m5.5,38.8c0.8,0.4 1.6,0.8 2.4,1c-0.1,0.1 -0.2,0.2 -0.3,0.2c-1.6,1.4 -3.4,3.4 -4.7,7.7c-0.9,2.9 -2.5,9.1 -5,14.4l0,-23.3l7.6,0zm-9.8,46.6c0.3,-0.5 0.5,-1 0.7,-1.2c0.2,-0.2 0.3,-0.3 0.7,-0.3c0.5,0 0.8,0 1.2,0.3c0.4,0.2 0.9,0.8 1.7,1.8c0.5,0.6 1.1,1.2 1.9,1.8l-7.9,0c0.8,-0.8 1.3,-1.7 1.7,-2.4m56.4,-164.7l-6.4,-9.6l0,-2.9l1.6,0l0,-1.7l-1.6,0l0,-1.5l-1.7,0l0,1.5l-1.5,0l0,1.7l1.5,0l0,3.2l-7,10.6l0,-19.8l15.1,0l0,18.5zm-14.1,5.7c0.7,-0.6 1.6,-1 2.5,-1c1.9,0 3.4,1.5 3.4,3.3l0,10.2l-7,10.5l0,-20.9c0.1,-0.8 0.5,-1.6 1.1,-2.1m6,15.6l0,5.9l-4.2,6.5c-0.9,-0.6 -1.9,-1.2 -2.8,-1.7l0,-0.1l7,-10.6zm-4.7,14.1l0,10.4c-0.9,-0.9 -1.9,-1.8 -2.9,-2.5l0,-9.7c1,0.5 2,1.1 2.9,1.8m-26.2,8.2c-1,0.7 -1.9,1.6 -2.8,2.5l0,-10.5c0.9,-0.7 1.8,-1.3 2.8,-1.8l0,9.8zm-2.9,-10l-4.3,-6.5l0,-5.9l7.1,10.6c-1,0.6 -1.9,1.2 -2.8,1.8m-4.3,-15.4l0,-10.2c0,-1.8 1.5,-3.3 3.4,-3.3c1,0 1.9,0.4 2.6,1c0.6,0.5 0.9,1.2 1,1.9l0,21.1l-7,-10.5zm-4.6,-47.6l-3.5,0l0,-15.6l0,0l0,0l0,0l-1.1,-1.9l0,-6.2l1.5,0l0,-1.7l-1.5,0l0,-1.5l-1.7,0l0,1.5l-1.5,0l0,1.7l1.5,0l0,6.2l-1.1,1.8l0,0l0,16.1l-10.1,15l0,-40.7c5.7,-2 11.5,-3.5 17.5,-4.7l0,30zm-7.5,3.6l0,32.4l-4.2,-6.3l0,-5l1.6,0l0,-1.7l-1.6,0l0,-1.5l-1.7,0l0,1.5l-1.5,0l0,1.7l1.5,0l0,5l-4.2,6.3l0,-17.3l10.1,-15.1zm-5,27.9l5,7.6l0,4.2c-0.6,-0.4 -1.4,-0.6 -2.2,-0.6c-1.2,0 -2.2,0.5 -2.9,1.3c-0.7,-0.8 -1.7,-1.3 -2.9,-1.3c-0.8,0 -1.5,0.2 -2.1,0.6l0,-4.2l5.1,-7.6zm-2.9,12.8c1.1,0 2.1,0.9 2.1,1.9l0,33.2l-4.2,6.3l0,-39.5c0,-1 0.9,-1.9 2.1,-1.9m2.9,36.9l5,7.6l0,14.5c-0.6,-0.4 -1.3,-0.6 -2,-0.6c-1.2,0 -2.3,0.5 -3,1.4c-0.7,-0.8 -1.8,-1.4 -3,-1.4c-0.8,0 -1.5,0.2 -2.1,0.6l0,-14.5l5.1,-7.6zm-3,23.2c1.1,0 2.1,0.9 2.1,1.9l0,37.3l-4.2,0l0,-37.4c0.1,-0.9 1,-1.8 2.1,-1.8m2.1,43.1l0,37.6c0,0 -0.1,0.1 -0.1,0.1l0,-3.9l-4,-7.1l0,-26.7l4.1,0zm-2.7,34.4l0,15.2l-2.1,1.8l0,-20.6l2.1,3.6zm79.5,15.2l0,-15.2l2,-3.6l0,20.6l-2,-1.8zm1.4,-181.7l-10.1,-15l0,-15.9l0,0l0,0l0,0l0,0l-1.1,-1.8l0,-6.2l1.6,0l0,-1.7l-1.6,0l0,-1.7l-1.7,0l0,1.5l-1.6,0l0,1.7l1.6,0l0,6.2l-1.1,1.8l0,0l0,15.6l-3.5,0l0,-29.8c6,1.1 11.9,2.7 17.5,4.7l0,40.6zm-14,-6.2l-15.1,0l0,-7.5l15.1,0l0,7.5zm-15.1,-9.2l0,-12.2l0,0c0,-1.1 0.8,-1.9 1.6,-1.9c0.4,0 0.8,0.2 1.1,0.5c0.3,0.3 0.5,0.8 0.5,1.4l0,12.2l-3.2,0zm4.9,0l0,-12.2l0,0c0,-1.1 0.9,-1.9 1.9,-1.9c0.5,0 1.1,0.2 1.5,0.6c0.4,0.4 0.6,0.8 0.6,1.4l0,0l0,12.1l-4,0zm4.1,-18.4l0,3.2c-0.6,-0.4 -1.3,-0.6 -2.1,-0.6c-1.1,0 -2.1,0.5 -2.8,1.3c-0.6,-0.8 -1.5,-1.3 -2.5,-1.3c-0.8,0 -1.5,0.3 -2.1,0.8l0,-4l4.5,-6.8l5,7.4zm-9.5,-16.6c0.1,-1 0.9,-1.8 1.8,-1.8c1,0 1.8,0.8 1.8,1.9l0,7.2l-3.7,5.5l0,-12.7l0,0c0.1,0 0.1,0 0.1,-0.1m-5.4,-26.2c3,0.1 6.1,0.3 9.1,0.6l0,16.2l-4.5,-11.4l-4.6,11.5l0,-16.9zm0,22.7l0,0c0,-0.1 0,-0.2 0,-0.2l0,-0.8l4.6,-11.5l4.5,11.4l0,1.8c-0.5,-0.3 -1.2,-0.5 -1.8,-0.5c-1.1,0 -2,0.5 -2.7,1.3c-0.7,-0.8 -1.6,-1.3 -2.7,-1.3c-0.7,0 -1.3,0.2 -1.8,0.5l0,-0.7l-0.1,0zm0,3.6c0,-1.1 0.9,-1.9 1.8,-1.9c1,0 1.8,0.8 1.8,1.8c0,0 0,0.1 0,0.1l0,12.7l-3.7,-5.5l0,-7.2l0.1,0zm3.7,15.9l0,4.1c-0.6,-0.5 -1.3,-0.9 -2.2,-0.9c-1,0 -1.8,0.5 -2.4,1.2c-0.6,-0.7 -1.6,-1.2 -2.6,-1.2c-0.7,0 -1.3,0.2 -1.8,0.5l0,-3.9l4.4,-6.6l4.6,6.8zm-9,-3.3l0,-16.2c0,-1.1 0.8,-1.9 1.8,-1.9c0.9,0 1.7,0.8 1.8,1.8l0,11l-3.6,5.3zm-5.3,-39c1.5,0 3,-0.1 4.5,-0.1c1.5,0 2.9,0 4.4,0.1l0,12.1l-4.5,-11.4l-4.4,11.2l0,-11.9zm0,16.6l4.4,-11.2l4.5,11.4l0,2.9c-0.5,-0.3 -1.1,-0.5 -1.8,-0.5c-1.1,0 -2,0.5 -2.7,1.3c-0.6,-0.8 -1.6,-1.3 -2.7,-1.3c-0.7,0 -1.3,0.2 -1.8,0.5l0,-3.1l0.1,0zm0,6c0.1,-1 0.9,-1.7 1.8,-1.7c1,0 1.8,0.8 1.8,1.9l0,0l0,16.4l-3.7,-5.5l0,-11.1l0.1,0zm3.6,19.7l0,3.7c-0.5,-0.3 -1.2,-0.5 -1.8,-0.5c-1.1,0 -2,0.5 -2.7,1.3c-0.6,-0.7 -1.5,-1.2 -2.5,-1.3c-0.8,0 -1.5,0.3 -2.1,0.8l0,-4l4.5,-6.8l4.6,6.8zm-9,-3.1l0,-12.8c0,-1.1 0.9,-1.9 1.8,-1.9c1,0 1.8,0.8 1.8,1.9l0,7.2l-3.6,5.6zm-5.4,-38.5c3,-0.3 6,-0.5 9.1,-0.6l0,16.8l-4.5,-11.4l-4.6,11.6l0,-16.4zm0,21l4.6,-11.6l4.5,11.4l0,1.1c0,0.1 0,0.1 0,0.2l0,0l0,0.5c-0.5,-0.3 -1.2,-0.5 -1.8,-0.5c-1.1,0 -2,0.5 -2.7,1.3c-0.6,-0.8 -1.6,-1.3 -2.7,-1.3c-0.7,0 -1.3,0.2 -1.8,0.5l0,-1.6l-0.1,0zm0,4.7c0,-1.1 0.8,-1.9 1.8,-1.9c1,0 1.8,0.8 1.8,1.9c0,0 0,0 0,0l0,0l0,12.7l-3.7,-5.5l0,-7.2l0.1,0zm3.6,15.9l0,4.1c-0.6,-0.5 -1.3,-0.9 -2.2,-0.9c-1,0 -1.9,0.5 -2.4,1.2c-0.7,-0.7 -1.6,-1.2 -2.7,-1.2c-0.8,0 -1.5,0.2 -2.1,0.6l0,-3.2l4.9,-7.4l4.5,6.8zm-9.4,-2.5l0,-8.8c1.3,-0.2 2.7,-0.4 4,-0.6l0,3.3l-4,6.1zm-80.3,140.5l-4.3,0c1.4,-0.7 2.3,-2.1 2.3,-3.7c0,-1.6 -1,-3 -2.4,-3.7l4.3,0l0,7.4l0.1,0zm-8,-7.4c-1.4,0.7 -2.4,2.1 -2.4,3.7c0,1.6 1,3 2.3,3.7l-3.9,0l0,-7.4l4,0zm-3.9,-2.6l0,-7.9l0,0c0,-0.5 0.3,-1 0.7,-1.4c0.5,-0.4 1.1,-0.7 1.8,-0.6c1.4,0 2.4,1 2.4,2.1l0,7.9l-4.9,0l0,-0.1zm2.4,6.3c0,-1.8 1.5,-3.3 3.3,-3.3c1.8,0 3.3,1.5 3.3,3.3c0,1.8 -1.5,3.3 -3.3,3.3c-1.8,0 -3.3,-1.5 -3.3,-3.3m9.5,-6.3l-5.2,0l0,-7.9c0,-1.1 1,-2.1 2.5,-2.1c0.7,0 1.4,0.3 1.9,0.7c0.5,0.4 0.8,0.9 0.8,1.4l0,0l0,7.9zm0,-10.9c-0.8,-0.5 -1.7,-0.8 -2.7,-0.8c-1.3,0 -2.6,0.6 -3.3,1.5c-0.8,-0.9 -2,-1.5 -3.3,-1.5c-0.9,0 -1.9,0.3 -2.6,0.8l0,-4.1l5.9,-8.9l6,9l0.1,0l0,4l-0.1,0zm0,-7l-5.2,-7.8l0,-3.2l1.5,0l0,-1.7l-1.5,0l0,-1.5l-1.7,0l0,1.5l-1.5,0l0,1.7l1.5,0l0,3.3l-5,7.6l0,-12.1l11.9,-16.8l0,29zm0,-32.1l-11.9,16.8l0,-20.2l-1.3,-2.1l-1.3,2.1l0,0l0,0l0,66l14.5,0l0,38.1c-14.1,-19.7 -22.3,-43.8 -22.3,-69.8c0,-26 8.2,-50.1 22.3,-69.9l0,39zm0,-47.7l0,0l0,0l0,0l0,0l0,5.8c-15.1,20.4 -24,45.6 -24,72.8c0,27.2 8.9,52.4 24,72.8l0,40.5c-2.4,-2.1 -4.7,-4.2 -7,-6.4c-27.7,-27.4 -44.9,-65.1 -44.9,-106.9c0,-41.8 17.1,-79.5 44.9,-106.9c24,-23.6 55.8,-39.5 91.3,-43.3l0,27.7c-1.3,0.2 -2.7,0.4 -4,0.6l0,-20.3l0,0l-1.3,-1.6l-1.3,1.6l0,0l0,0l0,0l0,0l0,20.7c-6,1.1 -11.9,2.7 -17.5,4.6l0,-4.5l0,0l-1.9,-3.2l-2,3.2l0,0l0,5.9c-3.9,1.5 -7.7,3.1 -11.3,5l0,-4.5l-2.6,4.2l0,1.7c-8.7,4.6 -16.8,10.2 -24.2,16.6l0,-4.5l-2.6,4l0,2.9c-4.1,3.8 -8,7.9 -11.5,12.2l0,-0.8l0,0l-1.9,-3.2l-2.2,3.3zm39.6,195.1l0,-1.7l1.7,0l0,-1.7l1.8,0l0,1.7l1.7,0l0,1.7l-1.7,0l0,1.7l-1.8,0l0,-1.7l-1.7,0zm-35.7,-4.8l0,-2.6l49.2,0l3,2.6l-52.2,0zm27.3,4.8l0,-1.7l1.7,0l0,-1.7l1.8,0l0,1.7l1.7,0l0,1.7l-1.7,0l0,1.7l-1.8,0l0,-1.7l-1.7,0zm-8.3,0l0,-1.7l1.7,0l0,-1.7l1.7,0l0,1.7l1.7,0l0,1.7l-1.7,0l0,1.7l-1.7,0l0,-1.7l-1.7,0zm-8.3,0l0,-1.7l1.7,0l0,-1.7l1.7,0l0,1.7l1.7,0l0,1.7l-1.7,0l0,1.7l-1.7,0l0,-1.7l-1.7,0zm7.5,-183.2l3.2,4.8l0,16.9l-2.3,0l0,-14l0.8,-1.3l-1.7,-2.6l-1.7,2.6l0.8,1.3l0,14l-3.2,0l0,-15.8l4.1,-5.9zm-4,2.9l0,-26.4c1,-0.9 2.1,-1.9 3.2,-2.8l0,24.4l-3.2,4.8zm24.1,3l0,15.7l-3.2,0l0,-14l0.8,-1.3l-1.7,-2.6l-1.7,2.6l0.8,1.3l0,14l-2.3,0l0,-16.9l3.2,-4.8l4.1,6zm-3.1,-7.7l0,-36.9c1.1,-0.6 2.1,-1.2 3.2,-1.8l0,43.3l-3.2,-4.6zm-3.1,74.5l0,3.3c-1.4,-0.2 -2.9,-0.4 -4.5,-0.4l0,-0.1l5.4,-8.1l5.4,8.1l0,2.3c-1.4,-0.6 -2.9,-1.1 -4.5,-1.5l0,-3.6l-1.8,0zm-4.5,-0.4l0,-22.7c0.4,-0.5 1.2,-0.9 2,-0.9c1.5,0 2.5,1 2.5,2.1l0,14.7l-4.5,6.8zm6.2,-6.8l0,-14.7l0,0c0,-1.1 1,-2.1 2.2,-2.1c0.6,0 1.2,0.2 1.6,0.6c0.4,0.4 0.7,0.9 0.7,1.4l0,0l0,21.5l-4.5,-6.7zm2.2,-18.5c-1.2,0 -2.3,0.6 -3.1,1.5c-0.8,-0.9 -2,-1.5 -3.3,-1.5c-0.7,0 -1.4,0.2 -2,0.5l0,-1l5.2,-14.2l5.6,15.2l0,0.3c-0.7,-0.5 -1.6,-0.8 -2.4,-0.8m-3.2,-19.7l-5.2,14.2l0,-18.2l10.8,0l0,19.1l-5.6,-15.1zm0.6,-45.9l-3.2,-4.8l-3.1,4.7l0,-15c2.1,-1.4 4.2,-2.8 6.3,-4l0,19.1zm-3.1,-1.7l3.2,4.7l0,13.7l-2.3,3.5l0,-11.9l1.6,0l0,-1.7l-1.6,0l0,-3.3l-1.7,0l0,3.3l-1.5,0l0,1.7l1.5,0l0,11.9l-2.3,-3.5l0,-13.7l3.1,-4.7zm-0.9,25l0,16.9l-2.3,0l0,-14l0.8,-1.3l-1.7,-2.6l-1.7,2.6l0.8,1.3l0,14l-2.3,0l0,-16.9l3.2,-4.8l3.2,4.8zm-4,-23.3l-3.2,-4.8l-3.2,4.8l0,-9c2.1,-1.7 4.2,-3.3 6.3,-4.8l0,13.8l0.1,0zm-3.2,-1.7l3.2,4.7l0,13.7l-2.3,3.5l0,-11.9l1.7,0l0,-1.7l-1.7,0l0,-3.3l-1.7,0l0,3.3l-1.4,0l0,1.7l1.4,0l0,11.9l-2.3,-3.5l0,-13.7l3.1,-4.7zm2.7,43.6l0,18.7l-5.4,-14.7l-5.4,14.7l0,-18.8l10.8,0l0,0.1zm-5.3,9l5.4,14.7l0,0.5c-0.6,-0.3 -1.3,-0.5 -2,-0.5c-1.3,0 -2.6,0.6 -3.3,1.5c-0.8,-0.9 -1.9,-1.5 -3.2,-1.5c-0.8,0 -1.6,0.3 -2.2,0.7l0,-0.6l5.3,-14.8zm5.3,17.3l0,22.7l-4.5,-6.8l0,-14.7c0,-1.1 1,-2.1 2.5,-2.1c0.9,0 1.6,0.4 2,0.9m-8.5,-0.9c1.2,0 2.3,1 2.3,2.1l0,14.7l-4.5,6.8l0,-21.7c0.1,-1 1,-1.9 2.2,-1.9m3.1,18.6l5.4,8.1l0,0.1c-1.6,0 -3.1,0.2 -4.5,0.4l0,-3.3l-1.7,0l0,3.7c-1.6,0.4 -3.1,0.9 -4.5,1.4l0,-2.3l5.3,-8.1zm6.7,9.9c12,0 18.4,5.4 22,11c1.9,3 3,6.2 3.6,8.6c-0.8,-0.4 -1.7,-0.7 -2.6,-0.7l0,0l-0.2,0l0,0c-1.3,0.1 -2.5,0.5 -3.5,1.3c-0.7,-4.2 -2.8,-8.3 -5.7,-11.7c-3.4,-3.8 -7.8,-6.7 -12.5,-7c-0.2,0 -0.4,0 -0.5,0c-0.1,0 -0.2,0 -0.3,0l-0.1,0l0,0l0,0l0,0c-0.7,0 -1.4,0.1 -2,0.2c-4.3,0.7 -8.4,3.3 -11.5,6.8c-3,3.3 -5.2,7.4 -5.9,11.6c-0.9,-0.8 -2.2,-1.2 -3.6,-1.2l0,0c-0.9,0 -1.8,0.2 -2.5,0.5c0.6,-2.3 1.7,-5.4 3.6,-8.3c3.4,-5.7 9.8,-11.1 21.7,-11.1m23.8,36l0,-15.3c0.5,0.1 1,0.4 1.3,0.7c0.6,0.5 0.9,1 1,1.7l0,50.8l-2.3,4.1l0,-28.5c0,-0.1 0,-0.1 0,-0.2l0,-13.3l0,0zm-4.5,-34.7l0,3.8c-1.2,-1.2 -2.7,-2.2 -4.3,-3.2l5.2,-7.9l6,8.9l0,12.5c-0.6,-1.7 -1.5,-3.6 -2.7,-5.4c-0.7,-1.1 -1.5,-2.2 -2.4,-3.2l0,-5.6l-1.8,0l0,0.1zm1.7,-9l0,-18.7c0,-1.1 1,-2.1 2.5,-2.1c0.7,0 1.4,0.3 1.9,0.7c0.5,0.4 0.7,0.9 0.7,1.4l0,26.4l-5.1,-7.7zm5.1,-21.7c-0.7,-0.5 -1.6,-0.8 -2.6,-0.8c-1.3,0 -2.5,0.6 -3.3,1.5c-0.7,-0.9 -1.9,-1.5 -3.1,-1.5c-0.8,0 -1.5,0.2 -2.2,0.6l5.6,-15.2l5.6,15.4zm-4.9,-18.3l0,-74.4c1.6,-0.7 3.2,-1.4 4.9,-2l0,89.7l-4.9,-13.3zm-1.7,0.5l-4.8,12.9l0,-84.8c1.6,-0.8 3.1,-1.6 4.8,-2.3l0,74.2zm-2.5,18.7c1.2,0 2.3,1 2.3,2.1l0,18.7l-4.5,6.9l0,-25.7c0,-1 1,-2 2.2,-2m-11.2,118c0,0.6 0,1.1 0,1.4c0,0.2 0,0.3 0,0.4c0,0 0,0 0,0.1c-0.1,0.1 -0.1,0.2 -0.2,0.3l0,-8.6c0.1,-1.5 0.2,-3.2 0.2,-5c0.1,0.1 0.2,0.2 0.2,0.3l0,0l0,0c0.1,0.1 0.2,0.2 0.3,0.3c0.3,0.4 0.3,0.6 0.3,0.9c0.1,0.7 -0.9,2.1 -0.9,5c0,1.5 0.1,3.4 0.1,4.9m-20.3,-4.7c0,0.1 -0.4,-2.2 0.1,-3.2c0.2,0.1 0.5,0.2 0.8,0.3c0.5,0.2 1.1,0.2 1.6,0.2c1.3,0 2.4,-0.3 3.6,-0.3c0.3,0 0.6,0 0.8,0.1c1.2,0.1 2.2,0.6 3,1.1c0.4,0.2 0.7,0.4 0.9,0.6l0.4,4.8c-2,-0.7 -7.7,-2.2 -11.2,-3.6m8.9,4.4l0,6.9l-3,0l0,-7.7c1.1,0.2 2.1,0.5 3,0.8m-4.7,-1.4l0,8.3l-3,0l0,-9.4c0.1,0 0.2,0.1 0.2,0.1c0.8,0.3 1.8,0.6 2.8,1m-6,-8.9c-0.6,-0.2 -1.1,-0.4 -1.6,-0.4l0,-55.3c0,-0.7 0.4,-1.3 1,-1.9c0.5,-0.4 1.2,-0.7 1.9,-0.8l0,58.9c-0.3,-0.1 -0.7,-0.2 -1.3,-0.5m1.3,10.4l0,3.5l-0.4,-1.6c0.1,-0.3 0.2,-1.1 0.4,-1.9m-2.1,2.2l0.9,3.5c-0.7,-0.2 -1.5,-0.6 -2.4,-1.5c-0.7,-0.7 -1.1,-1.7 -1.1,-3.1l0,-0.2c0,-0.9 0.3,-2.5 0.6,-3.7c0.3,-1.2 0.5,-2.2 0.5,-2.2c0,-0.2 0,-0.3 0,-0.5c0,0 -0.1,-0.4 -0.3,-0.9c-0.1,-0.5 -0.3,-1.2 -0.3,-1.7c0,-0.3 0.1,-0.5 0.1,-0.5c0.4,-0.5 0.4,-0.5 0.8,-0.6l0,0c0.3,0 0.7,0.1 1.3,0.3c0.4,0.1 0.7,0.3 1,0.4c-0.2,0.5 -0.3,1.1 -0.3,1.9c0,0.8 0.1,1.7 0.5,2.7c-0.1,0.2 -0.2,0.4 -0.2,0.6c-0.2,0.9 -1.1,5 -1.1,5c-0.1,0.2 -0.1,0.4 0,0.5m-3.2,-7.4c-0.2,0.9 -1.1,4.1 -1.1,6.1c0,0.1 0,0.1 0,0.2c0,1.7 0.5,3.3 1.6,4.3c0.6,0.6 1.2,1 1.8,1.3l-3.8,0l0,-75.3c1.5,0.4 2.3,1.4 2.3,2.6l0,55.6c-0.4,0.3 -0.7,0.6 -0.9,1c-0.3,0.5 -0.3,0.9 -0.3,1.4c-0.2,1.1 0.2,2.3 0.4,2.8m2.7,-64.3c0.8,-3.6 2.7,-7.2 5.4,-10.2c1.4,-1.5 2.9,-2.8 4.5,-3.9c-0.6,1 -1,2.1 -1.4,3.2c-1,3.3 -1.2,7.3 -1.2,11.1c-1,-0.8 -2.4,-1.2 -3.8,-1.2l0,0c-1.3,0.1 -2.5,0.4 -3.5,1m38.7,17.9l-1.6,1.2l-1.6,-1.2l3.2,0zm-1.6,-1.7l0,-12.8c0,-0.7 0.4,-1.3 1,-1.9c0.4,-0.4 1,-0.6 1.6,-0.8l0,15.4l-2.6,0l0,0.1zm-0.7,3.5l-2.7,2.1l-2.6,-2l2.3,-1.8l0.8,0l2.2,1.7zm-4,32.2l0,-13.1c0.6,-0.1 1.1,-0.1 1.6,-0.2c0.5,-0.1 0.9,-0.2 1.3,-0.4l0,34.7c-1,-0.2 -2,-0.4 -2.8,-0.6c0,0 -0.1,0 -0.1,0l0,-9.8c0.9,-2.6 1.6,-5 1.6,-6.2c0,-2.4 -1.1,-3.8 -1.6,-4.4m2.2,-15.2c0,0 0,0 0,0c-0.4,0.2 -1.7,0.4 -2.8,0.5c-0.6,0.1 -1.1,0.1 -1.4,0.1l-1,-2.4c0,-0.2 0.1,-0.6 0.9,-1.1c0.8,-0.5 2.5,-1.2 3.5,-1.4c0.2,0 0.3,-0.1 0.4,-0.1c0.3,0 0.5,0.1 0.6,0.2c0,0 0,0 0,0c0,0 -0.1,0.1 -0.2,0.1c-0.6,0.3 -1.1,0.5 -1.6,0.7c-0.2,0.1 -0.5,0.2 -0.7,0.4c-0.2,0.1 -0.6,0.5 -0.6,1c0,0.1 0,0.2 0,0.3c0.1,0.3 0.3,0.5 0.5,0.7c0.2,0.1 0.5,0.1 0.6,0.1c0.9,0 1.7,-0.5 2.5,-0.8c1,-0.5 2.9,-1.3 3.4,-1.3c0.1,0.1 0,0 0,0.1c0,0.1 -0.1,0.3 -0.3,0.6c-0.2,0.2 -1.1,0.8 -2,1.3c-0.8,0.4 -1.6,0.9 -1.8,1m-3.4,24l-5.3,-1.2c-0.1,-0.4 -0.2,-0.8 -0.4,-1.1l6.1,-4.8c0.2,0.3 0.3,0.6 0.5,1l0.2,2.5l0.1,-0.6c0,0.2 -0.1,0.4 -0.1,0.7l0,0c0,0 0,0 0,0c-0.1,0.3 -0.1,0.5 -0.2,0.8l0.1,-0.5c-0.4,0.9 -0.9,2.9 -1,3.2m-3.1,9.8c0,0 -2.9,0.8 -2.9,0.8c-0.1,0 -0.1,0 -0.2,0c0,-0.4 0,-1 0,-1.6c0,-1.6 -0.1,-3.5 -0.1,-4.9c0,-1.8 0.4,-2.8 0.6,-3.7l5.1,1.2l-2.5,8.2zm2.6,1c-0.5,-0.4 -0.9,-0.7 -1.3,-0.9c0.3,-0.8 0.8,-2 1.3,-3.3l0,4.2zm-7.3,-18.8l0.7,-0.9l0,-1.7l2.7,-1.9l3.7,4.1l-6.2,4.8c-0.3,-0.3 -0.6,-0.5 -0.9,-0.8c0,-0.9 0,-3 0,-3.6m-12.9,2.3c0.3,0.3 0.7,0.4 0.9,0.5c0.1,0.3 0.1,0.6 0.2,1.2c0.2,1.1 0.9,3 1.4,4.5c-0.8,-0.4 -1.7,-0.7 -2.8,-0.8c-0.4,0 -0.7,-0.1 -1.1,-0.1c-0.1,0 -0.1,0 -0.2,0l0,-24.4c0.3,0.7 0.6,1.4 0.8,2.2c0.7,1.9 1.4,3.7 1.6,4.1c0,0.1 0.1,0.5 0.1,0.8c0,0.5 -0.1,1 -0.2,1.1c-1.1,1.9 -1.7,4.7 -1.7,8.2c0.1,1.2 0.4,2.1 1,2.7m-0.4,-21.1c-0.2,-0.6 -0.4,-1 -0.5,-1.2c0,-0.1 -0.4,-0.9 -0.6,-2c-0.3,-1 -0.5,-2.3 -0.5,-3.4c0,-0.8 0.1,-1.6 0.4,-1.9c1.1,-1.7 2,-2.9 2.3,-3.3c0.2,-0.1 0.4,-0.2 0.7,-0.3c0.3,-0.1 0.6,-0.2 0.9,-0.3c0.1,0.3 0.3,0.7 0.6,1.1c0.6,0.9 1.4,2 2.9,2.4c0.6,0.1 1.2,0.2 1.8,0.2c1.1,0 2.1,-0.2 2.6,-0.3c0.3,0.3 0.6,0.7 1.1,1.3c1.2,1.4 1.9,6.9 1.9,8l-1.8,0.5c0,0 -2,-1.9 -2,-2c-1.2,-1.2 -2.6,-2.9 -5.5,-6.5l-1.3,1.1c1,1.1 3.5,4.3 4.2,5.1l-5.1,4.7l-2.1,-3.2zm-1.1,-11.8l0,-3.5c0.2,0.1 0.4,0.3 0.6,0.4c0.8,0.4 1.7,0.6 2.6,0.6c0.1,0 0.1,0 0.2,0l0,0.1c-1.1,0.3 -2.2,0.9 -2.2,0.9c-0.1,0.1 -0.2,0.1 -0.3,0.2c0,0.1 -0.3,0.6 -0.9,1.3m8,-0.9c0.7,0.2 1.6,0.2 2.3,0.2c0.4,0 0.7,0 1,0l-0.2,1.7c-0.1,0 -0.2,0 -0.2,0c-0.5,0.1 -1.2,0.2 -1.9,0.2c-0.5,0 -1,0 -1.4,-0.1c-0.6,-0.1 -1.3,-0.8 -1.8,-1.6c-0.2,-0.4 -0.4,-0.8 -0.5,-1c-0.1,-0.1 -0.1,-0.2 -0.1,-0.3l0,-0.1c0.6,0.3 1.5,0.7 2.8,1m-1.7,-2.3c0.4,-0.2 0.8,-0.5 1.1,-0.9c0.1,0.3 0.3,0.7 0.4,1c0.1,0.2 0.1,0.3 0.2,0.5c-0.7,-0.2 -1.2,-0.4 -1.7,-0.6m7.8,6.1l0,-3.8l0.1,0c0.3,0 0.7,0 1.1,-0.1c0.4,-0.1 1,-0.5 1.1,-1.1c0,-0.2 0.1,-0.3 0.1,-0.5c0,-0.4 -0.2,-0.7 -0.2,-0.9c-0.1,-0.2 -0.2,-0.3 -0.2,-0.5c0,-0.2 -0.1,-0.5 -0.1,-0.8c0,-0.2 0,-0.5 0,-0.6c0,-0.1 0,-0.2 0.1,-0.2c0,0 0,0 0,-0.1c0.3,-0.4 0.4,-0.5 0.7,-0.9c0.1,-0.1 0.1,-0.1 0.2,-0.2l0,18.2l-0.8,0.2l-0.4,-1.9l0,-0.2c0,-1.1 -0.1,-4.4 -1.7,-6.6m2.6,-12.8c-0.1,-0.2 -0.2,-0.4 -0.2,-0.5c0,0 0,-0.1 0,-0.1c0.1,-0.4 0.2,-0.7 0.3,-1.3c0,-0.4 -0.1,-0.8 -0.4,-1.1c-0.3,-0.4 -0.6,-0.8 -0.9,-1.2c0.4,-0.7 0.6,-1.4 0.6,-2.1c0,-1 -0.4,-2 -1.3,-2.6c-0.3,-0.2 -0.5,-0.3 -0.8,-0.4l0,-2c0.8,0.1 1.4,0.4 1.9,0.8c0.7,0.5 1,1.2 1,1.9l0,9.3c0,-0.3 -0.1,-0.5 -0.2,-0.7m-1.7,-2.1c0.1,0.1 0,0.1 0.1,0.1c0,0.1 -0.1,0.5 -0.3,1.1c0,0.1 0,0.1 0,0.1c-0.8,0.3 -1.2,0.9 -1.2,1.5c0.4,-0.1 0.8,-0.2 1.6,-0.2c0.2,0.4 0.4,0.9 0.6,1.2c0,0 0,0.1 0,0.1c-0.1,0 -0.1,0.1 -0.2,0.2c0,0 -0.1,0.1 -0.1,0.1l-1.4,0.7c0.2,0.3 0.2,0.6 0.2,0.9c0,0.5 -0.2,1 -1.1,1.7l1,1.3c0.1,-0.1 0.2,-0.2 0.3,-0.2c0.1,0.2 0.1,0.3 0.2,0.4c0.1,0.2 0.1,0.2 0.1,0.2c0,0 0,0 0,0c-0.1,0 -0.3,0.1 -0.6,0.1l-0.3,0c-0.2,0 -0.2,0 -0.4,0c-0.3,0 -0.6,0 -2.6,0.2l0,0c-0.2,0 -0.3,0 -0.5,0c0,0 0,0 -0.1,0c-0.2,-0.1 -0.4,-0.3 -0.5,-0.4c0,0 0,0 0,0c-0.2,-0.2 -0.4,-1 -0.7,-1.8c0.6,-0.3 1.3,-0.8 2.2,-1.5c2.1,-1.9 2.6,-5.1 3,-6.7c0.2,0.3 0.5,0.7 0.7,0.9m-10.4,28l4.8,-4.6c0.1,0.1 0.2,0.2 0.3,0.3c0.2,0.2 1.9,1.8 2,2l-2.1,5.5c-0.7,-0.5 -4.7,-2.9 -5,-3.2m2.4,3.6l-2.9,0l0,-0.1c0,0 -0.4,-1.1 -1,-2.5c0,0 0,0 0.1,0c0.7,0.7 2.3,1.7 3.8,2.6l0,0zm-3.2,3.2c0.3,-0.5 0.4,-1 0.4,-1.5l5.7,0l0.3,0.2l0,0c0.2,0.1 0.5,0.3 0.8,0.5c0.7,0.4 1.4,1.1 1.6,1.4c0.1,0.1 0.1,0.2 0.1,0.3c-1.1,0.4 -3.2,1 -4.7,1.4c-1.5,0.4 -4,0.9 -5.4,1.2c0.3,-1.4 0.7,-2.6 1.2,-3.5m7.8,-3.7l1.7,-5.1l5.4,-1.6l1.1,3.4l-8.2,3.3zm10.1,-25l-3,0l0,-12.8l0,0c0,-0.7 0.4,-1.3 1,-1.8c0.5,-0.4 1.2,-0.7 1.9,-0.8l0,15.4l0.1,0zm1.2,1.7l-1.6,1.2l-1.6,-1.2l3.2,0zm-2.3,1.8l-1.9,1.5l0,-2.9l1.9,1.4zm0.8,0.6l2.6,2l-2.8,2.1l-2.5,-1.9l0,-0.2l2.7,-2zm-0.9,4.6l-1.8,1.4l0,-2.7l1.8,1.3zm0.7,0.5l2.7,2.1l-2.9,2.2l-2.3,-1.8l0,-0.5l2.5,-2zm-1.4,7.3c-0.1,-0.2 -0.3,-0.4 -0.4,-0.7l1.7,-1.3l1,0.7c-0.6,0.3 -1.2,0.5 -1.7,0.8c-0.3,0.3 -0.4,0.4 -0.6,0.5m1.9,6.3l0,10.9c-1,-1.2 -2.3,-2.6 -3,-3.3l0,-6.5l3,-1.1zm-1.3,-8.8l-1.3,1c-0.2,-0.6 -0.3,-1.2 -0.3,-1.8l0,-0.4l1.6,1.2zm-3.9,10.9l0.5,-0.2l0,3.6c-0.3,-0.5 -0.5,-1 -0.5,-1l0,-2.4zm11.1,-8.6c0,0 0,0 0,0c0,-0.5 -0.2,-0.9 -0.4,-1.2l0.9,-0.7l1.7,1.3c-0.7,0.1 -1.5,0.3 -2.2,0.6m-1.2,-1.7c-0.4,-0.2 -0.8,-0.3 -1.2,-0.3c-0.3,0 -0.6,0 -0.9,0.1c-0.4,0.1 -0.9,0.3 -1.3,0.4l-1.2,-0.9l2.9,-2.2l2.7,2l-1,0.9zm-1.8,-3.8l-2.7,-2.1l2.8,-2.1l2.7,2l-2.8,2.2zm1.8,-10.8l-3,0l0,-15.4c0.8,0.1 1.4,0.4 1.9,0.8c0.7,0.5 1,1.2 1,1.9l0,12.7l0.1,0zm-3.8,-17.2l0,0c-1.5,0 -2.8,0.5 -3.9,1.2c0,-3.9 -0.2,-7.9 -1.2,-11.2c-0.3,-1.2 -0.8,-2.3 -1.4,-3.2c1.7,1.1 3.3,2.4 4.6,4c2.6,3 4.5,6.6 5.2,10.2c-0.8,-0.6 -2,-0.9 -3.3,-1m-5.6,1.2c-1,-0.8 -2.4,-1.2 -3.8,-1.2l0,0c-1.4,0 -2.7,0.3 -3.8,1c0,0 0,0 0,0l0,-16.6c3.7,0.3 5.4,2.5 6.5,6.1c0.9,3 1.1,6.9 1.1,10.7m-4.7,0.6l0,1.7l0,0c-0.5,0 -1,0.1 -1.6,0.2c-0.4,-0.2 -0.8,-0.3 -1.2,-0.3c0.2,-0.3 0.4,-0.6 0.8,-0.9c0.6,-0.4 1.2,-0.6 2,-0.7m-2,3.6l0.3,0.1l0.3,-0.1c0.6,-0.2 1,-0.3 1.4,-0.3c0.5,0 0.9,0.1 1.6,0.6c0.2,0.1 0.3,0.4 0.4,0.8c-0.8,-0.2 -1.7,-0.2 -2.6,-0.3c-0.3,0 -0.5,0 -0.8,0l0.1,1.7l0,0c0.2,0 0.5,0 0.7,0c0.8,0 1.7,0.1 2.2,0.2c-0.2,0.3 -0.4,0.5 -0.8,0.6l-0.2,0.1c-0.4,-0.1 -0.8,-0.1 -1.1,-0.1c-0.4,0 -0.7,0 -0.9,0l0,1.7c0.3,0 0.6,0 0.9,0c0.2,0 0.4,0 0.6,0.1c-0.4,1.7 -1,4.1 -2.3,5.2c-1.5,1.3 -2.3,1.5 -2.7,1.5c-0.1,0 -0.1,0 -0.2,0l-0.6,-0.1l-0.3,0.5c-0.1,0.3 -0.7,0.7 -1.3,1c0,0 0,0 0,0c0,-0.5 0.1,-1.1 0.6,-2l-1.5,-0.8c-0.6,1.1 -0.8,2 -0.8,2.8c0,0.1 0,0.3 0,0.4l-0.1,0c-0.2,0 -0.4,0 -0.7,-0.1c0,-0.1 0,-0.3 0,-0.5c0,-0.9 0.2,-2.1 0.8,-3l-1.4,-1c-0.8,1.2 -1.1,2.6 -1.1,3.6c-0.4,-0.4 -0.5,-1 -0.5,-1.7c0,-1 0.4,-2 0.9,-2.5l0.2,-0.2l0,-0.3c0,-0.1 0,-0.2 0,-0.3c0,-2.3 0.4,-4.6 1.7,-5.9c1.1,-1.1 3,-2.2 4.9,-2.2c0.8,0 1.6,0.1 2.3,0.5m-10.3,4.5l0,-5.5c0,-0.7 0.4,-1.3 1,-1.8c0.5,-0.4 1.2,-0.7 1.9,-0.8l0,3.2c-0.4,0.3 -0.7,0.6 -1,0.9c-1,1.1 -1.6,2.6 -1.9,4m4.7,-5.9l0,-2.2c0.8,0.1 1.5,0.3 2,0.6c0.4,0.2 0.6,0.5 0.8,0.8c-1,0.1 -2,0.4 -2.8,0.8m3,-2.9c-0.1,-0.1 -0.1,-0.1 0,0c-1.1,-0.7 -2.4,-1 -3.8,-1l0,0c-1.4,0 -2.8,0.4 -3.8,1.2c0,-3.8 0.3,-7.6 1.2,-10.6c1.1,-3.5 2.8,-5.8 6.5,-6.2l0,16.6l-0.1,0zm-9.4,31.1c0,0 0,0 0,0l0,0l0,29.3c-0.6,0.1 -1.2,0.2 -1.7,0.2c-0.4,0 -0.7,0 -1,-0.2c-0.1,0 -0.2,-0.1 -0.2,-0.1l0,-59.5c0.8,0.1 1.4,0.4 1.9,0.8c0.7,0.5 1,1.2 1,1.9l0,21.3c-0.4,0.8 -0.5,1.7 -0.6,2.6c0.1,1.2 0.3,2.5 0.6,3.7m6.4,38.6c0.4,0.1 0.7,0.2 0.8,0.2c0.1,0 0.2,0.1 0.5,0.2l0,0c0.4,0.1 1,0.3 1.7,0.5l0,5.5l-3,0l0,-6.4zm2.9,-0.8c-0.2,0 -0.4,-0.1 -0.6,-0.2l-0.4,-4.5l5.5,0.9c0,0.3 -0.1,0.5 -0.1,0.6c0,0.1 -0.4,2.6 -0.5,2.7l-1,0.9c-0.1,0 -2.7,-0.4 -2.9,-0.4m1.8,2.1c0.3,0 0.6,0.1 0.9,0.1c0.5,0 1,0 1.5,-0.4c0.2,-0.1 0.4,-0.3 0.6,-0.5l0,5.9l-3,0l0,-5.1zm2.9,-7.6l-5.9,-1.1l-0.6,-0.4l-2.1,-6.6c2.7,-0.5 8.1,-2 8.6,-2.1c0.1,0 0.2,-0.1 0.3,-0.1c0,1.1 -0.1,2.9 -0.1,4.8c0,1.9 -0.1,3.9 -0.2,5.5m-4.7,-10.7c-1.5,0.3 -2.2,0.5 -5.3,0.9c0,-0.3 0,-3.3 0.1,-3.6c1.3,-0.3 4.3,-0.8 6.1,-1.3c1.6,-0.4 3.5,-1 4.7,-1.4c0,0.3 0.1,3.4 0.1,3.7c-1.2,0.5 -4.1,1.4 -5.7,1.7m5,-10.2l2.2,-0.9l0,0.9l-2.2,0zm2.4,1.7c0.2,0.7 0.7,1.3 1.1,1.8c0.2,0.2 0.3,0.4 0.5,0.6l-1.6,1.1c-0.1,-1.2 -0.4,-2.5 -0.8,-3.3c-0.1,-0.1 -0.2,-0.2 -0.3,-0.3l1.1,0l0,0.1zm0.5,28.6c0.2,0 0.5,0.1 0.7,0.1l0,0c0.8,0 1.8,-0.2 3,-0.8c0.1,0 0.2,0 0.3,-0.1c0,0 0.1,0 0.2,0.1c0.2,0.1 0.4,0.3 0.8,0.6c0.6,0.5 1.5,0.8 2.5,1.1c2.3,0.6 5.5,1.1 7.1,1.3c0,0 0,0 0,0.1c-0.1,0.3 -0.1,0.3 -0.2,0.4c-0.4,0.2 -0.9,0.2 -1.5,0.2c-0.6,0 -1.2,-0.1 -1.8,-0.1c-2.3,-0.1 -4.6,-0.3 -5.3,-0.4c-0.2,0 -0.4,0 -0.6,0c-1.5,0 -4.9,0.5 -5.7,0.6c-0.1,-0.1 -0.3,-0.1 -0.3,-0.6c0,0 0,-0.1 0,-0.1c-0.1,-0.8 0.4,-1.7 0.8,-2.4m12.6,0.3l0,-35.9c0.1,-0.1 0.2,-0.1 0.3,-0.2c0.9,-0.5 1.8,-1 2.3,-1.5l0,38c-0.6,-0.1 -1.5,-0.3 -2.6,-0.4m2.3,-41.9l-1.6,-1.2l2,-1.5l0,0.8c-0.1,0.7 -0.2,1.4 -0.4,1.9m-2.3,-1.7l-2.7,-2l2.8,-2.1l2.6,2l0,0.1l-2.7,2zm0.7,-4.7l1.9,-1.4l0,2.9l-1.9,-1.5zm-0.7,-0.6l-2.7,-2.1l2.7,-2l2.6,2l0,0.2l-2.6,1.9zm0.7,-4.6l1.9,-1.4l0,2.8l-1.9,-1.4zm-34.9,-40.4l-4.5,-6.8l0,-18.7c0,-1.1 1,-2.1 2.2,-2.1c0.6,0 1.2,0.2 1.7,0.6c0.4,0.4 0.7,0.9 0.7,1.4l0,25.6l-0.1,0zm0,-33.4l-4.7,-12.9l0,-46.2c1.5,-1.6 3.1,-3.2 4.7,-4.8l0,63.9zm0,4.8c-0.7,-0.4 -1.5,-0.7 -2.3,-0.7c-1.2,0 -2.4,0.6 -3.1,1.5c-0.8,-0.9 -2,-1.5 -3.4,-1.5c-0.9,0 -1.8,0.3 -2.6,0.7l5.6,-15.4l5.8,15.4zm-6.4,-18.3l-5.1,13.8l0,-51.6c1.6,-2 3.3,-4 5.1,-6l0,43.8zm-4.3,20c0.5,-0.4 1.2,-0.7 2,-0.7c1.5,0 2.5,1 2.5,2.1l0,18.7l-5.3,8l0,-26.7c0,-0.5 0.3,-1 0.8,-1.4m5.3,21.9l5.2,7.8c-1.6,0.9 -3.1,2 -4.3,3.2l0,-4l-1.7,0l0,5.8c-1,1.1 -1.8,2.2 -2.5,3.3c-1.2,1.9 -2.1,3.8 -2.8,5.6l0,-12.3l6.1,-9.4zm-3.6,26.5l0,75.4l-2.5,0l0,-72.9c0.1,-1.3 0.8,-2.3 2.5,-2.5m48.5,76.1l0,-15.2l2,-3.5l0,20.5l-2,-1.8zm46.5,43.9c-37.6,0 -72,-13.3 -98.6,-35.5l6.6,0l4.8,4l31.2,0l4.5,-4l6.9,0c13.9,5.2 28.9,8 44.6,8c15.7,0 30.7,-2.9 44.6,-8l6.9,0l4.4,4l30.8,0l4.8,-4l7.2,0c-26.7,22.2 -61.1,35.5 -98.7,35.5m63.1,-217.8l3.2,4.8l0,16.9l-2.3,0l0,-14l0.8,-1.3l-1.7,-2.6l-1.7,2.6l0.8,1.3l0,14l-3.1,0l0,-15.9l4,-5.8zm-4,2.7l0,-43.2c1,0.6 2.1,1.1 3.1,1.7l0,37l-3.1,4.5zm24.2,3.4l0,15.5l-3.3,0l0,-14l0.8,-1.3l-1.7,-2.6l-1.7,2.6l0.8,1.3l0,14l-2.3,0l0,-16.9l3.2,-4.8l4.2,6.2zm-3.3,-7.9l0,-24.5c1.1,0.9 2.2,1.9 3.3,2.9l0,26.5l-3.3,-4.9zm-3,74.4l0,3.3c-1.4,-0.2 -3,-0.4 -4.6,-0.4l0,-0.1l5.4,-8.1l5.5,8.3l0,2.2c-1.4,-0.6 -2.9,-1.1 -4.6,-1.5l0,-3.7l-1.7,0zm-4.6,-0.3l0,-22.7c0.4,-0.5 1.2,-0.9 2,-0.9c1.5,0 2.5,1 2.5,2.1l0,14.7l-4.5,6.8zm6.3,-6.8l0,-14.7c0,0 0,0 0,0c0,-1.1 1,-2.1 2.2,-2.1c0.6,0 1.3,0.2 1.7,0.7c0.4,0.3 0.6,0.7 0.7,1.2l0,22l-4.6,-7.1zm2.1,-18.5c-1.2,0 -2.4,0.6 -3.1,1.5c-0.8,-0.9 -2,-1.5 -3.3,-1.5c-0.7,0 -1.4,0.2 -2,0.5l0,-0.3l5.4,-14.8l5.5,14.9l0,0.5c-0.7,-0.5 -1.6,-0.8 -2.5,-0.8m-3,-19.6l-5.4,14.8l0,-18.8l10.9,0l0,18.9l-5.5,-14.9zm0.5,-46l-3.2,-4.7l-3.2,4.7l0,-13.9c2.2,1.5 4.3,3.1 6.3,4.8l0,9.1l0.1,0zm-3.2,-1.7l3.2,4.7l0,13.7l-2.3,3.5l0,-11.9l1.5,0l0,-1.7l-1.5,0l0,-3.3l-1.7,0l0,3.3l-1.6,0l0,1.7l1.6,0l0,11.9l-2.3,-3.5l0,-13.7l3.1,-4.7zm-0.8,25l0,16.9l-2.3,0l0,-14l0.8,-1.3l-1.7,-2.6l-1.7,2.6l0.8,1.3l0,14l-2.3,0l0,-16.9l3.2,-4.8l3.2,4.8zm-4,-23.3l-3.2,-4.7l-3.2,4.7l0,-19.1c2.1,1.3 4.3,2.6 6.3,4l0,15.1l0.1,0zm-3.2,-1.7l3.2,4.7l0,13.7l-2.3,3.5l0,-11.9l1.6,0l0,-1.7l-1.6,0l0,-3.3l-1.7,0l0,3.3l-1.4,0l0,1.7l1.4,0l0,11.9l-2.3,-3.5l0,-13.7l3.1,-4.7zm2.7,43.6l0,18.6l-5.3,-14.4l-5.4,14.7l0,-18.9l10.7,0zm-5.3,9.2l5.3,14.4l0,0.6c-0.6,-0.3 -1.3,-0.5 -2,-0.5c-1.3,0 -2.5,0.6 -3.3,1.5c-0.7,-0.9 -1.8,-1.5 -3.1,-1.5c-0.8,0 -1.6,0.3 -2.2,0.7l0,-0.5l5.3,-14.7zm5.3,17.1l0,22.7l-4.5,-6.8l0,-14.7l0,0c0,-1.1 1,-2.1 2.5,-2.1c0.8,0 1.6,0.4 2,0.9m-8.4,-0.9c1.2,0 2.2,0.9 2.2,2.1l0,14.7l-4.4,6.6l0,-21.4c-0.1,-1 0.9,-2 2.2,-2m3,18.6l5.4,8.1l0,0.1c-1.6,0.1 -3.1,0.2 -4.5,0.4l0,-3.3l-1.7,0l0,3.6c-1.6,0.4 -3.1,0.8 -4.5,1.4l0,-2.5l5.3,-7.8zm6.8,9.9c11.9,0 18.3,5.4 21.9,11.1c1.8,2.9 2.9,5.9 3.5,8.2c-0.7,-0.3 -1.5,-0.5 -2.4,-0.5l0,0c-1.5,0 -2.7,0.5 -3.6,1.2c-0.7,-4.1 -2.9,-8.3 -5.9,-11.6c-2.8,-3.1 -6.4,-5.6 -10.2,-6.6c-1,-0.3 -2.1,-0.5 -3.3,-0.5l0,0l-0.1,0l0,0c0,0 0,0 0,0c0,0 0,0 0,0c-0.1,0 -0.2,0 -0.4,0c-0.2,0 -0.3,0 -0.5,0c-4.7,0.3 -9.1,3.1 -12.5,7c-2.9,3.3 -5,7.5 -5.7,11.6c-0.9,-0.8 -2.1,-1.3 -3.5,-1.3l0,0c-1,0 -1.9,0.3 -2.7,0.7c0.6,-2.3 1.6,-5.5 3.6,-8.5c3.4,-5.4 9.8,-10.8 21.8,-10.8m9.9,106l0,-1.7l1.7,0l0,-1.7l1.8,0l0,1.7l1.7,0l0,1.7l-1.7,0l0,1.7l-1.8,0l0,-1.7l-1.7,0zm-35.9,-4.8l3,-2.6l49.1,0l0,2.6l-52.1,0zm27.5,4.8l0,-1.7l1.7,0l0,-1.7l1.8,0l0,1.7l1.7,0l0,1.7l-1.7,0l0,1.7l-1.8,0l0,-1.7l-1.7,0zm-8.3,0l0,-1.7l1.7,0l0,-1.7l1.8,0l0,1.7l1.7,0l0,1.7l-1.7,0l0,1.7l-1.8,0l0,-1.7l-1.7,0zm-8.3,0l0,-1.7l1.7,0l0,-1.7l1.8,0l0,1.7l1.7,0l0,1.7l-1.7,0l0,1.7l-1.8,0l0,-1.7l-1.7,0zm4.9,-78.4l0,11.5c0,2.1 -0.7,3.5 -2.4,4.6c-0.1,0 -0.1,-0.1 -0.2,-0.1c-1.1,-0.7 -2.8,-1.3 -4,-1.7c-0.4,-0.1 -0.7,-0.2 -1.1,-0.2c-1.2,0 -2.1,0.8 -2.1,1.8l-0.1,0c-0.1,-0.1 -0.3,-0.1 -0.4,-0.2c-1.1,-0.9 -1.8,-2.4 -1.8,-4.2l0,-11.5l12.1,0zm-12,-1.7l0,-5.3c1.6,0.2 2.7,1.4 2.7,2.7l0,2.7l-2.7,0l0,-0.1zm43.5,58.7c-0.2,-0.3 -0.6,-0.5 -1,-0.7l0,0c0,0 -0.3,-0.1 -0.7,-0.3l0,-60.4l0,0c0,-1.3 0.9,-2.3 2.5,-2.6l0,75.4l-2.5,0l0,-4.8c0.5,-1 1,-1.9 1.2,-2.3c0.5,-0.9 0.8,-1.9 0.8,-2.8c0.1,-0.6 0,-1.1 -0.3,-1.5m-1.4,1c0,0 0.1,0.2 0.1,0.5c0,0.5 -0.2,1.3 -0.6,2c-0.6,1.2 -3,5.7 -3.8,7.1l-6.9,0c0,-0.1 0,-0.2 0.1,-0.3c0.1,-0.2 0.9,-0.7 1.7,-1c0.8,-0.3 1.5,-0.5 1.5,-0.5l0.4,-0.1l2.7,-5.2c0.3,-0.2 1,-0.8 1.8,-1.3c1,-0.7 2.4,-1.4 2.7,-1.3l0,0c0.2,0 0.2,0 0.3,0.1m-2,8.8l0,1.6l-0.9,0c0.2,-0.3 0.5,-0.9 0.9,-1.6m-10.8,1.6l-1.5,0l0,-9.8l3,0.7l0,6c-0.4,0.2 -0.8,0.6 -1.1,1c-0.3,0.5 -0.5,0.9 -0.4,1.4c-0.1,0.3 -0.1,0.5 0,0.7m-3.8,-12l1.7,-4.4c0.3,0 0.6,0.1 0.9,0.1c1.6,0.2 3.4,1 4.9,1.8c1.6,0.8 2.8,1.4 3.4,1.7c0.6,0.2 2.1,0.9 3.3,1.3c-0.3,0.1 -3.3,2.2 -3.5,2.4l-10.7,-2.9zm-6.5,7.2c-0.2,-1.2 -0.3,-1.6 -0.3,-2.7c0,-0.5 0,-1 0,-1.7c0,-1.2 0,-2.2 -0.1,-3.1c0.1,0.1 0.2,0.2 0.4,0.3c0.8,0.4 1.7,0.7 2.4,0.9l0,11.3l-2.7,0l0,0c0.5,-0.7 0.5,-1.4 0.5,-1.9l0,-0.1c0,-0.1 0,-0.3 0,-0.5c0,-0.7 0,-1.6 -0.2,-2.5m-12.6,-46.6c-0.7,-0.4 -1.5,-0.5 -2.4,-1c-0.1,0 -0.1,-0.1 -0.1,-0.1c0,0 0,-0.2 0.4,-0.2c0.1,0 0.3,0 0.5,0.1c1.1,0.4 2.8,1 3.6,1.5c0.7,0.4 0.8,0.9 0.8,1.1l-0.8,1.8c-0.5,0 -1.2,-0.1 -1.9,-0.1c-0.6,0 -1.3,-0.1 -1.7,-0.1c-0.2,0 -0.4,0 -0.6,-0.1c0,0 -0.1,0 -0.1,0c-0.3,-0.2 -1,-0.6 -1.8,-1.1c-0.9,-0.5 -1.9,-1.2 -2,-1.4c-0.3,-0.2 -0.3,-0.4 -0.3,-0.5c0,-0.1 0,-0.1 0,-0.2c0.3,0.1 0.8,0.3 1.3,0.5c0.7,0.3 1.5,0.8 2.1,1c0.8,0.3 1.5,0.7 2.3,0.7c0.2,0 0.4,0 0.7,-0.2c0.3,-0.1 0.5,-0.4 0.6,-0.7l0,-0.1c0,0 0,-0.1 0,-0.2c0,-0.2 -0.3,-0.5 -0.6,-0.7m12.1,3.7l-1.3,3.7l-7.5,-2.9l1.3,-2.7l7.5,1.9zm-7.4,-3.6c0.3,-0.3 0.6,-0.5 0.9,-0.8l0,1l-0.9,-0.2zm0.9,-18.8l-3,0l0,-5.3c0.8,0.1 1.4,0.4 1.9,0.8c0.7,0.5 1,1.2 1,1.9l0,2.6l0.1,0zm4.7,9.2l0,11l-2.9,-0.7l0,-22.1c0,-0.7 0.3,-1.3 1,-1.9c0.5,-0.4 1.1,-0.7 1.9,-0.8l0,8.3c-0.3,0.2 -0.6,0.4 -0.9,0.7c-0.6,0.7 -0.8,1.5 -0.8,2.3c0,1.1 0.6,2.3 1.7,3.2m2.9,-7.1c0,0.1 0,0.1 0,0.2c0,0 -0.1,0 -0.1,0c-0.3,0 -0.5,0 -0.8,0.1c-0.1,0 -0.1,0 -0.2,0.1l0,-1c0.3,0.1 0.7,0.4 1.1,0.6m-1.2,-2.4l0,-4.9c1,0.1 2.1,0.5 2.7,1.2c-0.1,0.1 -0.2,0.1 -0.3,0.2c-0.2,0.2 -0.6,0.4 -0.9,0.8c-0.6,0.9 -1,1.9 -1.5,2.7m0.6,4.3c0.2,0 0.4,-0.1 0.5,-0.1c0.6,0 0.8,0.2 1.3,0.6c0.5,0.3 1.1,0.9 2.1,1c0.1,0 0.2,0 0.3,0c1.2,0 2.1,-0.7 2.6,-1.2c0.4,0.3 0.8,0.6 1.2,0.7c-1.8,3.4 -3.8,3.8 -5.6,3.9c-0.2,0 -0.3,0 -0.5,0c0.2,-0.3 0.5,-0.6 0.7,-0.8l-1.2,-1.2c-0.5,0.5 -1,1.1 -1.4,1.7c-0.3,-0.1 -0.6,-0.2 -0.9,-0.4c0.1,-0.1 0.1,-0.2 0.2,-0.3c0.4,-0.5 0.9,-1.2 1.3,-1.6l-1.2,-1.2c-0.5,0.5 -1.1,1.2 -1.5,1.8c-0.2,-0.4 -0.3,-0.8 -0.3,-1c0,-0.5 0.1,-0.8 0.4,-1.2c0.4,-0.2 0.9,-0.5 2,-0.7m13.3,-6.1c0.2,0.1 0.8,0.6 1.1,1.4c0.4,0.8 0.7,1.7 0.7,2.6c0,0.3 0,0.5 -0.1,0.7c-0.3,-0.5 -0.6,-1.1 -0.8,-1.7l-1.6,0.5c0.4,1.2 1,2.1 1.4,2.7c-0.2,0.1 -0.4,0.2 -0.5,0.3c-0.4,-0.6 -1.1,-1.6 -1.4,-2.7l-1.7,0.5c0.3,0.9 0.7,1.7 1.1,2.3c-0.3,-0.1 -0.6,-0.2 -0.8,-0.4c-0.2,-0.1 -0.4,-0.3 -0.5,-0.4c-0.1,-0.1 -0.1,-0.1 -0.1,-0.1l-0.3,-0.3l-0.4,0.1c-0.1,0 -0.2,0 -0.2,0c-0.6,0 -1.2,-0.4 -1.4,-1.3c0,-0.1 0,-0.2 0,-0.3c0,-0.6 0.7,-1.4 1.1,-2.5l0.3,-0.7l-0.7,-0.4c-0.7,-0.3 -1.6,-0.7 -2.4,-1.2c-0.8,-0.5 -1.3,-1.1 -1.3,-2c0,0 0,-0.1 0,-0.1l0,0c0.1,-0.2 0.2,-0.5 0.6,-0.7c0.4,-0.4 1.1,-0.7 1.8,-0.8c0.7,-0.2 1.5,-0.3 2.3,-0.3c1.3,0 2.5,0.3 3.2,1.1c0.6,0.6 0.7,1 0.7,1.4c0,0.4 -0.2,0.8 -0.3,1.3l-0.1,0.6l0.3,0.4zm1.4,-2.6c0.4,-0.3 1,-0.5 1.7,-0.6l0,5c-0.1,-0.4 -0.3,-0.8 -0.5,-1.2c-0.4,-0.7 -0.8,-1.4 -1.3,-1.8c0.1,-0.3 0.1,-0.7 0.2,-1.1c0,0 0,-0.2 -0.1,-0.3m-3.8,48c-0.8,2.3 -1.8,4.6 -2.7,6.2c-0.5,1 -0.9,1.8 -1.2,2.3l-7.3,-0.6l0.7,-3.3l0.5,-2.3l1.5,-7.1l10.1,-1.1c0,0.2 -0.1,0.4 -0.2,0.6c0,1.2 -0.5,3 -1.4,5.3m0.8,2.7l0,6.7c-0.8,-0.3 -1.6,-0.5 -2.4,-0.6c-0.1,0 -0.2,0 -0.4,-0.1c0.7,-1.2 1.8,-3.5 2.8,-6m-0.3,-38.2l0.6,1l0.1,0.1c0,0 0,0 0,0l-6.6,2.1c0,-0.2 -0.1,-0.4 -0.2,-0.6l6.1,-2.6zm-2.5,-0.7c0.3,-0.4 0.6,-0.9 0.8,-1.4c0.2,0.1 0.4,0.2 0.6,0.3l0.2,0.4l-1.6,0.7zm3.5,13c-0.4,0.5 -0.8,0.9 -1.1,1.2l-5.8,-4.6l2.4,-4.7l5.6,-1.7c0.3,0.4 0.7,0.8 0.9,1.1c0.2,0.3 0.4,0.6 0.3,0.6c0,0.2 0,0.6 0,1.1c0,0.9 -0.1,2.1 -0.3,3.5c-0.3,1.2 -1.1,2.5 -2,3.5m0.6,2c-0.3,0.8 -1.4,4.4 -1.6,5l-6.5,0.7l6.2,-4.5l0.3,0.3l0.6,-0.5c0.1,0 0.4,-0.4 1,-1m-7.4,-9.3l-2.2,4.5l0.4,0.3l-0.5,0.5c-0.1,-0.4 -0.2,-0.8 -0.3,-1.2c-0.1,-0.4 -0.1,-0.6 -0.1,-0.9c0,-0.6 0.1,-0.9 0.5,-1.3c0.3,-0.4 0.9,-0.9 1.5,-1.7l0,0l0.7,-0.2zm-0.5,5.8l4.7,3.6l-5,3.8l-3.1,-4.2l3.4,-3.2zm-2.8,-5.4c-0.1,0.1 -0.3,0.3 -0.4,0.5c-0.5,0.6 -0.8,1.4 -0.8,2.3c0,0.4 0,0.8 0.1,1.2c0.1,0.7 0.4,1.7 0.6,2.2l-1.4,1.4l-1,-0.3l0,-10.5c0.3,0.1 0.6,0.2 0.9,0.2c0.6,0.1 1.2,0.2 2,0.2l0,2.8zm-1.4,10.4l2.5,3.4c-0.3,0.4 -0.7,0.8 -1.3,1l0,0l0,0c-0.1,0 -0.2,0 -0.3,0l-0.1,0l0,0c-0.8,0 -1.3,-0.3 -1.7,-0.6c-0.1,-0.1 -0.3,-0.2 -0.3,-0.3l1.2,-3.5zm0.4,6l-0.5,3.7c-0.3,0.1 -0.8,0.4 -1.4,0.7l0,-5.1c0.5,0.4 1.1,0.6 1.9,0.7m0.7,7.2l0.5,-3.6l0.4,-3.6l8.8,-0.8c0.2,0.2 0.3,0.5 0.5,0.8c0.2,0.3 0.9,2.3 1.1,2.6l0.6,3.6l-11.9,1zm11.5,4.3c0.6,-1.8 0.9,-3.1 1,-3.8l1.3,-0.1l-0.1,-0.9c0,0 -0.3,-2.3 -0.5,-4.2c-0.2,-1.9 -1.6,-3.9 -2.2,-4.7c0.1,-0.2 0.2,-0.5 0.3,-0.9c0.3,-0.9 0.8,-2.4 1.6,-4.7c0.6,-1.7 1,-3.3 1.2,-4.7c0,0 0,0 0,0l0,0c0.1,-0.9 0.2,-1.7 0.3,-2.4l0,40.3c-0.5,-0.3 -1.1,-0.6 -1.7,-0.9c-0.4,-0.2 -0.8,-0.4 -1.3,-0.6l0,-12.4l0.1,0zm2.3,-30.7c-0.8,-1.1 -2,-2.3 -2.4,-2.7l-0.8,-1.4c0.8,0 1.6,-0.3 2.4,-0.8c0.7,-0.4 1.2,-1.1 1.5,-1.7l0,8c-0.2,-0.5 -0.4,-0.9 -0.7,-1.4m-18.1,17.2l-0.1,7.3c-0.9,0.5 -1.9,1.2 -2.9,1.9l0,-10.5l3,1.3zm-4.7,-1.9l0,12.6c-1.1,0.9 -2.1,1.7 -3,2.4l0,-16.2l3,1.2zm5.3,39.9c0,0.1 0.1,0.6 0.1,0.7l-3.7,-2.3l-5.1,-13.3l5.6,-2.1c0.3,0.8 0.8,2 1.3,3.5c0.9,2.4 1.5,4.5 1.5,8.8c0,0.7 0,1.3 0,1.7c0,1.1 0,1.8 0.3,3m-5.1,-1.3c-0.6,0.4 -1.6,1.2 -3.1,1.9l0,-10.4l3.1,8.5zm1.3,-17.3l-5.5,2.1c-0.2,-0.2 -1.1,-1.5 -1.3,-1.8l0,-1.5l0.7,-1.2c0.3,-0.3 1.7,-1.7 2,-2c0.8,0.6 2.4,2 3.2,2.8c0.5,0.5 0.8,1 1,1.4l-0.1,0.2l0,0zm-6.4,3.6l0.2,0.6l0,15.7c-0.9,0.2 -1.7,0.3 -2.5,0.3c-0.1,0 -0.3,0 -0.4,0l0,-43.7c0.6,0.1 1.5,0.1 2.4,0.2c0.2,0 0.4,0 0.6,0l0,18.6l-0.1,0.1c-1.3,1.3 -2.1,2.7 -2.1,4.4c0,2 1.4,3.3 1.9,3.8m-2.3,18.3c1.3,0 3,-0.2 4.5,-0.9c2,-0.9 3.3,-1.9 4,-2.4l4.2,2.4l0,0.1c0,0 0,0.1 0,0.1l0,0l0,0c0,0.3 -0.1,0.7 -0.2,0.9c0,0 0,0.1 -0.1,0.1l0,0c-0.3,0 -1.1,-0.2 -2.4,-0.2c-0.3,0 -0.6,0 -1,0c-2.9,0.2 -4,0.7 -5.9,0.7c-0.1,0 -0.3,0 -0.5,0c-2.4,-0.1 -3.3,-0.2 -3.7,-0.8c-0.1,-0.1 -0.1,-0.1 -0.2,-0.2c0.4,0.2 0.9,0.2 1.3,0.2m12.3,-17.5c-0.4,-1 -1.1,-2.9 -1.4,-3.5c0.3,-0.1 1.8,-0.9 2.2,-1l-0.8,4.5zm-1.9,-5l-2.3,-3.1c-0.3,-0.2 -1.9,-1.6 -2.1,-1.8c0.9,-0.8 2,-1.6 3.2,-2.6c1.6,-1.3 3.4,-2.4 4.7,-3.1c0.3,-0.2 0.6,-0.3 0.9,-0.5l-0.4,3.4l0.8,-0.1l-1.5,6.4l-3.3,1.4zm5.4,10.3l-1,-0.6l-0.4,-0.8c0,-0.2 -0.3,-2 -0.3,-2.1c0,-0.1 0,-0.3 0.1,-0.5l6.6,0.7l-1.5,4.2l-1.1,-0.3l0,0c-0.2,0.1 -2.3,-0.5 -2.4,-0.6m5.4,3.2l0,10.2l-2.9,0l0,-10.9l2.9,0.7zm9.4,2.4l-1.9,3.8c-0.3,0.1 -0.6,0.2 -1,0.3l0,-4.8l2.9,0.7zm4.7,-5.2c-1.2,-0.4 -2.4,-0.9 -3,-1.2l0,-61.2c0.8,0.1 1.4,0.4 1.9,0.8c0.7,0.5 1,1.2 1,1.8l0,59.8l0.1,0zm-3.8,-64.2l0,0c-1.2,0 -2.3,0.3 -3.2,0.8c-0.1,-0.2 -0.3,-0.4 -0.5,-0.6c0,-0.1 -0.1,-0.1 -0.2,-0.1c0,-4.2 -0.2,-8.3 -1.5,-11.6c-0.1,-0.4 -0.3,-0.8 -0.5,-1.1c1.4,1 2.7,2.1 3.9,3.5c2.7,3 4.6,6.6 5.4,10.2c-0.9,-0.7 -2.1,-1 -3.4,-1.1m-5.6,-1c-0.8,-0.3 -1.7,-0.4 -2.6,-0.4c-1,0 -1.9,0.1 -2.6,0.3c-0.9,0.2 -1.7,0.6 -2.4,1.1l0,-15.6c0.5,0 0.9,0.1 1.4,0.2l0,0c0.1,0 0.2,0.1 0.3,0.1c2.3,0.6 3.6,2.2 4.5,4.3c1.1,2.7 1.4,6.3 1.4,10m-6.8,6.7c0.6,0.4 1.2,0.7 1.8,0.9c-0.4,0.6 -0.8,1.4 -0.9,2.4c0,0.2 0,0.5 0.1,0.7c0,0.1 0,0.1 0.1,0.2c-0.3,0.4 -1.1,1.1 -1.7,1c0,0 -0.1,0 -0.1,0c-0.5,-0.1 -0.8,-0.3 -1.3,-0.7c-0.2,-0.1 -0.4,-0.3 -0.6,-0.4c0.1,-0.3 0.1,-0.7 0.2,-1.1c0,-0.4 -0.1,-0.7 -0.5,-0.9c-0.2,-0.1 -0.6,-0.3 -0.9,-0.4c0.5,-0.7 0.8,-1.4 1.1,-1.9c0,0.1 0,1 -0.1,1.4c0,0.4 0.3,0.3 1.1,0.3c0.7,0 1.2,-0.2 1.2,-0.2s0,-0.2 -0.5,-0.8c-0.5,-0.5 -1.6,-0.8 -1.6,-0.8c0.1,-0.1 0.2,-0.3 0.3,-0.5c0.1,-0.2 0.2,-0.3 0.5,-0.4c0.1,-0.1 0.3,-0.2 0.5,-0.4c0.1,0.7 0.7,1.3 1.3,1.6m-6.3,-5.7l0,0c-1.5,0 -2.8,0.5 -3.8,1.2c0,-3.8 0.2,-7.7 1.1,-10.8c1.1,-3.5 2.8,-5.8 6.5,-6l0,16.6c-1.2,-0.7 -2.6,-0.9 -3.8,-1m-4.4,-10c-1,3.4 -1.2,7.4 -1.2,11.3c-1,-0.8 -2.4,-1.2 -3.8,-1.2l0,0c-1.3,0 -2.5,0.4 -3.5,1c0.7,-3.6 2.6,-7.3 5.2,-10.2c1.4,-1.6 3,-3 4.6,-4c-0.5,0.9 -1,1.9 -1.3,3.1m-7.8,12.6c0.5,-0.4 1.2,-0.7 1.9,-0.8l0,5.3l-3,0l0,-2.7c0.1,-0.6 0.4,-1.3 1.1,-1.8m-3.9,26.6c0.4,0.3 0.8,0.5 1.1,0.7l0,44.3c-0.4,-0.1 -0.9,0.2 -1,0.6c0,0.1 -0.1,0.2 -0.1,0.5c0,0.5 0.1,1.3 0.8,2l-2.4,0l0,-49c0.6,0.2 1.1,0.6 1.6,0.9m44.6,48l0,-75.4c0.7,0.1 1.2,0.4 1.5,0.7c0.4,0.3 0.6,0.8 0.7,1.3c0,0.1 0,0.1 0,0.2c0,0.1 0,0.3 0,0.4l0,72.8l-2.2,0zm-0.5,-85.8c-0.7,-1.1 -1.5,-2.2 -2.5,-3.3l0,-5.9l-1.7,0l0,4.1c-1.3,-1.2 -2.7,-2.3 -4.4,-3.2l5.2,-7.8l6.1,9.3l0,12.5c-0.6,-1.8 -1.5,-3.8 -2.7,-5.7m-2.5,-17.9l0,-18.7l0,0c0,-1.1 1.1,-2.1 2.5,-2.1c0.7,0 1.5,0.3 2,0.7c0.5,0.4 0.7,0.9 0.8,1.3l0,26.8l-5.3,-8zm5.1,-21.7c-0.8,-0.5 -1.7,-0.7 -2.6,-0.8c-1.3,0 -2.6,0.6 -3.4,1.5c-0.7,-0.9 -1.8,-1.5 -3.1,-1.5c-0.8,0 -1.6,0.2 -2.2,0.6l5.6,-15.3l5.7,15.5zm-4.7,-17.9l0,-44.1c1.7,1.9 3.3,3.8 4.8,5.7l0,51.6l-4.8,-13.2zm-1.7,-0.4l-4.9,13.2l0,-63.8c1.7,1.6 3.3,3.2 4.9,4.9l0,45.7zm-2.6,19.2c1.2,0 2.2,0.9 2.2,2.1l0,18.7l-4.4,6.6l0,-25.6c0.1,-0.9 1,-1.8 2.2,-1.8m-36.3,2.1c0,-1.1 1,-2.1 2.2,-2.1c0.6,0 1.3,0.2 1.7,0.7c0.5,0.4 0.7,0.9 0.7,1.4l0,25.8l-4.6,-7.1l0,-18.7l0,0zm4.6,-7.7l-4.9,-13.3l0,-74c1.6,0.7 3.3,1.5 4.9,2.3l0,85zm-0.1,4.6c-0.7,-0.4 -1.5,-0.7 -2.3,-0.7c-1.2,0 -2.3,0.6 -3.1,1.5c-0.8,-0.9 -2,-1.5 -3.3,-1.5c-0.9,0 -1.8,0.3 -2.5,0.7l5.6,-15.3l5.6,15.3zm-6.5,-18l-4.9,13.3l0,-89.9c1.6,0.6 3.3,1.3 4.9,2l0,74.6zm-4.1,19.7c0.5,-0.4 1.2,-0.7 1.9,-0.7c1.4,0 2.5,1 2.5,2.1l0,18.7l-5.1,7.7l0,-26.4c0,-0.6 0.2,-1 0.7,-1.4m5.2,21.9l5.1,7.9c-1.6,0.9 -3,2 -4.2,3.1l0,-3.8l-1.7,0l0,5.6c-0.9,1.1 -1.7,2.2 -2.4,3.3c-1.2,1.9 -2.1,3.8 -2.7,5.5l0,-12.6l5.9,-9zm-5.9,29.2c0,-0.7 0.3,-1.4 1,-1.9c0.3,-0.3 0.8,-0.5 1.3,-0.7l0,18.4c0,0 0,0.1 0,0.1l0,0l0,38.6l-2.2,-4l-0.1,-50.5l0,0zm1.3,58.2l0,15.2l-2,1.7l0,-20.5l2,3.6zm62,14.8c-2.3,2.3 -4.7,4.4 -7.1,6.5l0,-40.4c15.2,-20.4 24.1,-45.7 24.1,-72.9s-8.9,-52.5 -24.1,-72.9l0,-5.7l0,0l-2,-3.2l-1.9,3.2l0,0l0,0l0,0l0,0l0,0.6c-3.5,-4.3 -7.3,-8.3 -11.4,-12.1l0,-2.9l-2.6,-3.6l0,4.1c-7.3,-6.4 -15.4,-12 -24.2,-16.6l0,-2.2l-2.6,-3.8l0,4.6c-3.7,-1.9 -7.5,-3.5 -11.5,-5l0,-5.8l0,0l-2,-3.3l-2,3.3l0,0l0,4.4c-5.7,-1.9 -11.5,-3.5 -17.5,-4.6l0,-20.7l0,0l-1.3,-1.7l-1.3,1.7l0,0l0,20.3c-1.3,-0.2 -2.7,-0.4 -4,-0.6l0,-27.7c35.6,3.9 67.5,19.7 91.5,43.4c27.6,27.2 44.8,65 44.8,106.7c0,41.8 -17.2,79.6 -44.9,106.9m-0.2,-118.3l0,-1.5l-1.7,0l0,1.5l-1.6,0l0,1.7l1.6,0l0,3.3l-5.2,7.7l0,-29.2l11.9,16.8l0,12.2l-5,-7.6l0,-3.2l1.6,0l0,-1.7l-1.6,0zm-0.9,6.7l5.9,8.9l0,4.1c-0.7,-0.5 -1.7,-0.8 -2.6,-0.8c-1.3,0 -2.5,0.6 -3.3,1.5c-0.8,-0.9 -2,-1.5 -3.3,-1.5c-1,0 -1.9,0.3 -2.7,0.8l0,-3.9l6,-9.1zm4.2,30.2c0,-1.6 -1,-3 -2.4,-3.7l4,0l0,7.4l-4,0c1.5,-0.6 2.4,-2 2.4,-3.7m-4.2,3.3c-1.8,0 -3.3,-1.5 -3.3,-3.3c0,-1.8 1.5,-3.3 3.3,-3.3c1.8,0 3.3,1.5 3.3,3.3c0.1,1.8 -1.4,3.3 -3.3,3.3m0.9,-9.6l0,-7.9c0,-1.1 1,-2.1 2.4,-2.1c0.7,0 1.4,0.3 1.9,0.7c0.5,0.4 0.7,0.8 0.7,1.3l0,8l-5,0zm-6.2,-9.3c0.5,-0.4 1.2,-0.7 1.9,-0.7c1.4,0 2.5,1 2.5,2.1l0,7.9l-5.1,0l0,-8c0,-0.5 0.3,-0.9 0.7,-1.3m3.5,11.9c-1.4,0.7 -2.4,2.1 -2.4,3.7c0,1.6 0.9,3 2.3,3.7l-4.1,0l0,-7.4l4.2,0zm10.3,10l0,-66l0,0l-1.3,-2.1l-1.3,2.1l0,0l0,20.1l-11.9,-16.8l0,-39c14.1,19.8 22.4,44 22.4,70c0,26.1 -8.3,50.2 -22.4,70l0,-38.3l14.5,0zm27,-42.3c-0.6,0 -9.2,0.4 -10,0.5c-0.8,0 -0.9,-0.4 -0.9,-0.4l-0.1,0l-1.8,2.6l2.1,1.9l0.1,0c0,-0.7 0.5,-1.4 0.5,-1.4s9.6,-0.5 10.2,-0.5c0.6,0 0.8,0.4 0.8,0.4l0.1,0l1.9,-2.5c0,0 -0.8,-0.5 -2.1,-2l-0.1,0c0,-0.1 0.2,1.4 -0.7,1.4m-1.4,-10.8l0.1,1.1c0,0 -9.1,1.2 -9.7,1.3c-0.6,0.1 -0.9,-0.4 -0.9,-0.4l-0.1,0c-0.4,1.3 -1,2.8 -1.7,3.9l3,2.2l0.3,-0.4c-1,-0.7 -0.7,-1.2 -0.1,-2.7l9.6,-1.2l0.3,2.1l1.4,0.4l-0.4,-2.7l4.1,-0.5l0,-0.3c-2.2,-0.5 -4,-1.5 -5.3,-2.8l-0.6,0zm-100.7,-115.8l-3.8,-1.1l-1.2,4.1l-4.2,-1.2l-1.1,3.7l4.2,1.2l-1.2,4.1l3.8,1.1l1.2,-4.1l4.2,1.2l1.1,-3.7l-4.2,-1.2l1.2,-4.1zm68.3,140l-1.7,-2.6l-1.7,2.6l1.7,2.6l1.7,-2.6zm19,-52.8c0.5,-0.2 0.9,0.1 0.9,0.1l0.1,-0.1l0.1,-3.1l4.7,0.8c0,-0.7 0.4,-3.1 0.8,-3.9c-1.4,-0.9 -3.8,-3.4 -3.8,-3.4s-3.3,1.4 -3.9,1.7c-0.6,0.2 -1,-0.1 -1,-0.1l-0.1,0l-0.3,3.6l-5.9,-1c0.2,0.5 0,3.5 -0.2,4.1c0.5,0.2 3.6,2.5 4.1,3.2c0.2,0 4,-1.7 4.5,-1.9m0.1,-5.5l4.2,-1.8l0.2,0.1c0,0 -0.9,2.7 -1,3.9l-3.7,-0.7l0.3,-1.5zm-6.1,5.2l-0.3,-0.2c0.3,-0.9 0.4,-3.3 0.4,-3.9l4.7,0.8l-0.1,1.3l-4.7,2zm-68.2,-78.2l1.6,0.7l0.7,-1.5l1.6,0.7l0.7,-1.6l-1.6,-0.7l0.7,-1.5l-1.6,-0.7l-0.7,1.5l-1.6,-0.7l-0.7,1.6l1.6,0.7l-0.7,1.5zm61,31.5l-3.7,0.1c0,0 -0.5,0.7 -0.7,0.9c1.1,0.4 3.7,0.8 3.7,0.8c0.4,-0.5 0.7,-1.8 0.7,-1.8m3.7,15.3l0,0l0.2,-2.8l-2.7,-0.4l-0.1,0.1l0,1.1l-8.9,6.7l-0.4,-0.2l-0.2,-2.3c0,0 7.2,-5.5 7.9,-5.9c0.6,-0.5 1,-0.2 1,-0.2l0.1,-0.1l-0.1,-3.1l-2.8,-0.3l-0.1,0.1c0.4,0.5 0.4,1.4 0.4,1.4s-7.7,5.8 -8.1,6.1c-0.4,0.3 -0.8,0.1 -0.8,0.1l-0.1,0.1l0.5,3.9c0,0 3.2,0.8 5.5,1.8c0,0 7.4,-5.6 7.9,-6c0.4,-0.3 0.8,-0.1 0.8,-0.1m-5,11.4l3,-1.9c2.1,0.4 3.6,0.9 5.8,1.7l0.1,-0.1l2.4,-4.5c-1.3,-0.6 -2.9,-1.6 -4.4,-2.7c0,0 -7.9,5 -8.5,5.4c-0.5,0.3 -1,0.1 -1,0.1l-0.1,0.1c0.3,1.4 0.3,3.5 0.3,5.2l3.6,0.7l0.1,-0.5c-1.2,-0.3 -1.2,-1.3 -1.3,-3.5m8.7,-5.5l-2,3.9c0,0 -1.8,-0.5 -3.1,-0.7l5.1,-3.2zm4.7,37.5l-0.1,0c-0.2,1.4 -0.6,2.9 -1.1,4.1l3.2,1.7l0.3,-0.5c-1.1,-0.5 -0.9,-1.1 -0.5,-2.6l9.3,-2.5l0.6,2.1l1.4,0.2l-0.8,-2.7l4,-1.1l-0.1,-0.3c-2.2,-0.2 -4.2,-0.9 -5.7,-2.1l-0.5,0.1l0.3,1.1c0,0 -8.8,2.4 -9.4,2.6c-0.6,0.2 -0.9,-0.1 -0.9,-0.1m16.4,-9.5l-3.5,-1.3c0,0 -0.7,0.4 -1,0.5c0.8,0.7 3.2,2.1 3.2,2.1c0.4,-0.3 1.3,-1.3 1.3,-1.3m-25.1,-13.7l8.6,-4.6l0.6,0.2c-0.1,0.6 -1.7,3.1 -1.7,3.1l0.1,0.1c1.7,0.1 2.8,0.5 2.8,0.5l0.1,-0.1l1.5,-3.3l-2.6,-0.8l0.6,-2.8c0,0 -1,-0.2 -2.8,-0.9l-0.1,0.1c0.3,0.5 0.4,1.4 0.2,1.5c0,0 -8.3,4.4 -8.9,4.7c-0.5,0.3 -1,0 -1,0l-0.1,0.1c0.1,1.4 0.1,2.9 -0.1,4.3l3.5,1l0.1,-0.5c-1,-0.4 -0.9,-1 -0.8,-2.6m-9.5,-30.5c0.4,-0.4 0.8,-0.2 0.8,-0.2l0.1,-0.1l-0.2,-3.1c0,0 -0.9,0.1 -2.9,-0.2l-0.1,0.1c0,0 1,1 0.4,1.6c-0.4,0.4 -6.8,6.1 -7.4,6.6c-0.6,0.5 -1,0.2 -1,0.2l-0.1,0.1l0.3,3.1l2.8,0.1l0.1,-0.1c-0.5,-0.5 -0.5,-1.4 -0.5,-1.4s7.3,-6.3 7.7,-6.7m-70.8,40.9l-1.7,-2.6l-1.7,2.6l1.7,2.6l1.7,-2.6zm31.8,-67.2l0.1,-0.1l-2.8,-2.9l5.7,-2.1l-0.3,-0.6l-0.9,0.4c-0.8,-1 -2.1,-2.8 -2.4,-3.6c-2.1,0 -6.5,-1 -6.5,-1s-1.7,3.2 -2,3.7c-0.3,0.5 -1,0.5 -1,0.5l-0.1,0.1l3,3.5l-7.4,2.9l0.3,0.4l1.4,-0.5c1,0.9 2.7,2.9 3,3.4c0.7,-0.1 5.5,0.3 6.6,0.6c0,0 1.9,-3.7 2.2,-4.2c0.5,-0.5 1.1,-0.5 1.1,-0.5m-6.5,3.6l-0.5,0c-0.6,-1 -2.7,-3.3 -3.2,-3.8l4.9,-1.9l1.2,1.2l-2.4,4.5zm1.9,-6.7l-1.2,-1.6l2.1,-4l0.3,0c0,0 1.7,3 2.7,4.1l-3.9,1.5zm13.5,2.3l0.9,-1.4l-1.5,-1l-0.9,1.4l-1.4,-0.9l-1,1.4l1.4,0.9l-1,1.4l1.5,1l0.9,-1.4l1.4,0.9l1,-1.4l-1.3,-0.9zm-42.5,128.1c2.3,0 4.2,-1.8 4.2,-4.1c0,-2.3 -1.9,-4.1 -4.2,-4.1c-2.3,0 -4.2,1.9 -4.2,4.1c0,2.3 1.9,4.1 4.2,4.1m0,-7.4c1.8,0 3.3,1.5 3.3,3.3c0,1.8 -1.5,3.3 -3.3,3.3c-1.8,0 -3.3,-1.5 -3.3,-3.3c0,-1.8 1.5,-3.3 3.3,-3.3m67.8,-100.2l0,0l-0.7,-3.6l-2.8,-0.2l-0.5,-2.9c0,0 -1,0.2 -2.9,0l-0.1,0.1c0.4,0.4 0.8,1.2 0.7,1.3c0,0 -6.8,7 -7.3,7.5c-0.4,0.4 -0.9,0.3 -0.9,0.3l-0.1,0.1l0.3,2.7l2.7,0l0.1,-0.1l-0.2,-1.1l7.2,-7.4l1.3,0.1l0.4,1.6c0,0 -6.4,6.6 -6.9,7.1c-0.6,0.6 -1,0.3 -1,0.3l-0.1,0.1l0.5,3.1l2.8,-0.1l0.1,-0.1c-0.5,-0.5 -0.6,-1.3 -0.6,-1.3s6.7,-6.9 7.1,-7.3c0.5,-0.3 0.9,-0.2 0.9,-0.2m-17.1,-1.1c0,0 6.1,-7.7 6.5,-8.1c0.4,-0.5 0.9,-0.4 0.9,-0.4l0.1,-0.1l-0.6,-2.7l-2.7,0.3l-0.1,0.1l0.3,1l-6.4,8.1l-1.3,0l-0.5,-1.5c0,0 5.7,-7.1 6.2,-7.8c0.5,-0.6 0.9,-0.4 0.9,-0.4l0.1,-0.1l-0.8,-3l-2.8,0.4l-0.1,0.1c0.5,0.4 0.7,1.3 0.7,1.3s-6,7.5 -6.3,7.9c-0.3,0.4 -0.8,0.4 -0.8,0.4l-0.1,0.1l1.1,3.4l2.8,-0.1l0.8,2.9c0,0 1,-0.2 2.9,-0.3l0.1,-0.1c-0.6,-0.5 -1,-1.2 -0.9,-1.4m-33.3,-24.3l-1.6,-0.7l-0.7,1.5l-1.6,-0.7l-0.7,1.6l1.6,0.7l-0.7,1.5l1.6,0.7l0.7,-1.6l1.6,0.7l0.7,-1.6l-1.6,-0.7l0.7,-1.4zm-36.1,186.4l0,0c0,0 0,0 0,0l0,0zm-24.4,-144.1l1.7,0l0,-1.7l1.7,0l0,-1.7l-1.7,0l0,-1.7l-1.7,0l0,1.7l-1.7,0l0,1.7l1.7,0l0,1.7zm133.2,41.3c-0.2,-0.6 0.1,-1.4 0.1,-1.4s9,-3.4 9.5,-3.6c0.5,-0.2 0.9,0.1 0.9,0.1l0.1,0l1,-3c0,0 -0.9,-0.2 -2.6,-1.2l-0.1,0c0,0 0.6,1.3 -0.2,1.6c-0.5,0.2 -8.6,3.2 -9.3,3.5c-0.8,0.3 -1,-0.1 -1,-0.1l-0.1,0l-0.9,3l2.6,1.1l0,0zm-127.1,-41.3l1.7,0l0,-1.7l1.7,0l0,-1.7l-1.7,0l0,-1.7l-1.7,0l0,1.7l-1.7,0l0,1.7l1.7,0l0,1.7zm138.3,86.3c0.5,0 0.8,0.4 0.8,0.4l0.1,0l1.4,-2.8l3.9,2.7c0.3,-0.7 1.7,-2.6 2.5,-3.2c-0.9,-1.4 -2,-4.6 -2,-4.6s-3.6,-0.1 -4.2,-0.1c-0.6,0 -0.8,-0.5 -0.8,-0.5l-0.1,0l-1.8,3.1l-4.9,-3.3c0,0.6 -1.5,3.2 -1.9,3.6c0.4,0.4 2.2,3.7 2.4,4.6c-0.1,0 4.1,0.1 4.6,0.1m2.4,-4.9l4.6,0.1l0.1,0.2c0,0 -2,2.1 -2.5,3.2l-3.1,-2.2l0.9,-1.3zm-7.9,1.8c0.7,-0.7 1.8,-2.8 2,-3.3l3.9,2.6l-0.6,1.2l-5.1,-0.1l-0.2,-0.4zm-155.8,-83.2l1.7,0l0,-1.7l1.7,0l0,-1.7l-1.7,0l0,-1.7l-1.7,0l0,1.7l-1.7,0l0,1.7l1.7,0l0,1.7zm98,-31.2l-1.5,-1l-1,1.4l-1.4,-0.9l-1,1.4l1.4,0.9l-1,1.4l1.5,1l1,-1.4l1.4,0.9l1,-1.4l-1.4,-0.9l1,-1.4zm-61.9,176.1c0,-0.6 -0.1,-1.1 -0.3,-1.6c-0.1,-0.4 -0.6,-0.9 -1.2,-0.9c-0.8,0.1 -1.2,0.5 -1.6,0.9c-0.4,0.4 -0.9,0.9 -1.4,1.3c-1.6,1.5 -3.7,2.3 -5.7,2.3c-1.7,0 -3.5,-0.6 -4.9,-1.7c-1.1,-0.9 -1.9,-1.5 -3,-1.6c-0.7,0 -1.4,0.5 -1.6,1.1c-0.2,0.6 -0.3,1.3 -0.3,2.1l0,0.2c0,0.5 0.3,2.3 0.8,5c0.7,4 1.8,9.7 3.1,14.9c0.6,2.6 1.2,5 1.9,7c0.6,2 1.2,3.5 1.8,4.4c0.8,1.2 2,1.8 3.2,1.8l0,0c1.7,0 3.2,-1.3 3.7,-3.3c0.4,-1.6 2.6,-11.1 4.1,-19.7c0,0 0,-0.1 0,-0.1c0.4,-2.6 0.8,-5 1.1,-7.2c0,0 0,0 0,0l0,0c0.2,-1.8 0.4,-3.4 0.4,-4.6c-0.1,-0.1 -0.1,-0.2 -0.1,-0.3m-7.3,31.5c-0.4,1.5 -1.3,2.1 -2,2.1c-0.5,0 -1.2,-0.3 -1.8,-1.1c-0.1,-0.2 -0.3,-0.5 -0.5,-0.9c2,-1.7 4.1,-5.2 6,-9c0.2,-0.3 0.3,-0.7 0.5,-1c-1,5 -1.9,9 -2.2,9.9m0.2,-9.7c-1.6,3.3 -3.6,6.4 -5.1,8c-0.3,-1 -0.7,-2.1 -1.1,-3.4c0,0 0,-0.1 0,-0.1c4.8,-4.3 7.8,-9 9.8,-13.1c-0.6,2.2 -2,5.5 -3.6,8.6m5.1,-17.2c-1.2,3.9 -3.9,12.4 -11.8,19.9c-1,-4.1 -2.1,-9 -2.9,-13.2c-0.8,-4.3 -1.4,-7.9 -1.6,-8.9c1.1,3.6 3.5,7.5 6,9.7l1.1,-1.3c-1,-0.8 -2,-2.1 -2.9,-3.5c0.9,0.2 1.8,0.4 2.8,0.4c3,0 6.1,-1 7.7,-2.6l-1.2,-1.2c-1,1.1 -3.9,2.1 -6.5,2.1c-1.7,0 -3.3,-0.4 -4.2,-1.3c-0.6,-1.2 -1,-2.4 -1.3,-3.4c0.2,0.1 0.4,0.3 0.6,0.5l0,0c1.8,1.4 3.9,2.1 6,2c2.5,0 5,-0.9 6.9,-2.8c0.5,-0.5 1,-1 1.3,-1.3c0.1,-0.1 0.1,-0.1 0.2,-0.2c0,0.1 0,0.3 0,0.5c0,0.1 0,0.2 0,0.4c0.1,1 0,2.5 -0.2,4.2m-27.5,-149.5l1.7,0l0,-1.7l1.7,0l0,-1.7l-1.7,0l0,-1.7l-1.7,0l0,1.7l-1.7,0l0,1.7l1.7,0l0,1.7zm22.4,0l1.7,0l0,-1.7l1.7,0l0,-1.7l-1.7,0l0,-1.7l-1.7,0l0,1.7l-1.7,0l0,1.7l1.7,0l0,1.7zm-18.2,144.1c-1.4,8.7 -3,22.2 -9.3,33.5l1.5,0.8c6.5,-11.7 8,-25.5 9.5,-34.1l-1.7,-0.2zm27.9,5.7c1.9,12.4 2.3,24 3.7,30l1.7,-0.4c-1.3,-5.7 -1.8,-17.4 -3.7,-29.9l-1.7,0.3zm115.8,-89.1l0.1,0c-0.1,-0.6 0,-1.4 0.2,-1.5c0,0 9.7,-1.9 10.3,-2c0.6,-0.1 0.9,0.3 0.9,0.3l0.1,0c0,0 0.2,-3.3 0.4,-3.7c-1.8,-0.7 -2.3,-4.3 -4.8,-3.8c0,0 -7.7,1.5 -8.2,1.6c-0.5,0.1 -0.8,-0.2 -0.8,-0.2l-0.1,0l-1.4,3.3l2.2,1.7l-1.3,2.7c0,0 1,0.5 2.4,1.6m-0.4,-6.4l10.1,-2c-0.1,0.3 -0.3,1.6 -0.3,2.4l-9.5,1.9l-1,-0.8l0.7,-1.5zm-186.9,114.9l0,-0.1l-0.1,0.5c0,-0.2 0,-0.3 0.1,-0.4c0,0 0,0 0,0m45.4,-7.2c-0.3,7.1 -1.2,14.3 -4,17.4l1.3,1.1c3.4,-4 4.1,-11.3 4.4,-18.5c0.3,-7.2 0.1,-14.3 1.1,-17.2l-1.6,-0.5c-1.1,3.5 -0.9,10.5 -1.2,17.7m139.3,-15.7c0.6,-1.1 0.5,-1.8 0.5,-3.2c-0.9,0.4 -3.6,0.3 -4.2,0l0,4.1c0,2.2 -0.4,3.2 -0.6,3.5c-1.2,0.1 -3.2,-0.1 -3.7,-0.1l0.2,7.5c0,2.9 -0.9,4.4 -1.1,4.7c-1.9,0 -4,0 -4.8,0c-2,0.1 -3.6,0.4 -5.1,1.4c0.9,-1.8 1.7,-3.9 1.7,-6.1c0,-0.9 0,-3.1 0,-4.6c0.7,-0.5 1.8,-1.2 3.1,-1.2l3.6,0c-0.2,-1.1 -0.2,-2.7 0,-3.8c-1.3,0 -2.3,0 -3,0.3c0.6,-1.1 0.5,-1.8 0.5,-3.2c-0.9,0.4 -3.6,0.3 -4.3,0l0,4.1c0,2.7 -0.6,3.6 -0.6,3.6l0,0l-0.1,0.1c-0.7,0.8 -1.7,1 -2.9,1l0,6.4c0,1.3 0.3,4.7 -0.6,6.5l-2.2,3.3l0.5,0.3c0,0 2.2,-4.3 6.7,-4.3l10,0c-0.3,-1.3 -0.2,-2.6 0.4,-3.7c-0.5,0 -1.2,0 -2,0c0.5,-0.4 1.3,-1.2 2.1,-2.2l0,0c0,0 1.7,-1.7 3.7,-1.7l3.6,0c-0.2,-1.1 -0.2,-2.7 0,-3.8c-2.6,0 -3.6,0.2 -5.1,1.9c0.2,-0.6 0.4,-1.3 0.4,-1.9c0,0 0,-2.6 0,-4.2c0.7,-0.5 1.8,-1.2 3.1,-1.2l3.5,0c-0.2,-1.1 -0.2,-2.7 0,-3.8c-1.6,0 -2.6,0 -3.3,0.3m16.1,-48.4c0.6,-1 0.5,-1.6 0.5,-2.9c-0.8,0.3 -3.2,0.3 -3.8,0l0,3.7c0,2 -0.4,2.9 -0.5,3.1c-0.8,0.5 -2.2,1.1 -4.1,1.1c0,0.3 0,0.5 0,0.6c0.9,0 1.3,1.4 1.3,2.2c0,0.4 0.1,0.8 0.1,1.3c0,2 0,5.7 -0.8,6.9c-0.4,0.6 -1.1,1.7 -1.1,1.8l-5.4,8.1c0,0 0,0 -0.1,0.1l-3,4.4l0,0l-0.1,0.1l0,-10.3l1.4,-2.1c0.3,-0.3 1.7,-1.4 3.2,-1.4l2.5,0c-0.2,-1 -0.2,-2.4 0,-3.4c-0.8,0 -1.3,0 -1.8,0.1c0.6,-1.1 0.5,-1.8 0.5,-3.2c-0.9,0.4 -3.5,0.3 -4.2,0l0,4c0,2.1 -0.4,3.1 -0.5,3.4l-1.3,2c-0.4,0.5 -1.6,1.4 -4.7,1.4c0,0.3 0,0.5 0,0.7c0.9,0 1.3,1.4 1.3,2.2c0,0.4 0.1,9.4 0,9.9c0,2 0,5.7 -0.8,6.9c-0.4,0.6 -1.2,1.7 -1.2,1.7l0.5,0.3c0,0 1,-1.4 2.2,-3.1c0.1,-0.2 0.2,-0.3 0.3,-0.5l0,0c0,0 2.5,-3.7 6.7,-3.7l3.6,0c-0.2,-1.1 0.6,-2.4 1.3,-3.1c-4.3,0 -6.9,-0.5 -9.4,2.6l-0.2,0.4c0.4,-1.1 0.6,-2.3 0.6,-3.6l0,0l0.7,-1.1c0.6,-0.8 3.2,-4 7.5,-4l4.1,0c-0.3,-1.2 0.6,-2.7 1.4,-3.5c0.6,-0.4 1.6,-1 2.7,-1l3.1,0c-0.2,-1 -0.2,-2.3 0,-3.3c-1.2,0 -2,0 -2.7,0.3c0.5,-0.9 0.4,-1.6 0.4,-2.8c-0.8,0.3 -3.1,0.3 -3.7,0l0,3.6c0,2.4 -0.5,3.1 -0.5,3.1l0,0l-0.1,0.1c-3.3,0 -5.8,-0.2 -7.9,1.2l4,-6c0,0 0.1,-0.1 0.2,-0.3l1.7,-2.5c0.1,-0.1 0.2,-0.2 0.2,-0.4c0,0 0.1,-0.1 0.1,-0.1l0.3,-0.4c0.1,-0.1 1.7,-1.7 3.5,-1.7l3.9,0c-0.2,-1.1 -0.2,-2.6 0,-3.7c-2.9,0 -4.1,0.2 -5.9,2.4c0.5,-1.3 0.9,-2.8 0.9,-4.4c0,-0.8 0,-2.1 0,-2.9c0.7,-0.4 2.1,-1.1 3.5,-1.1l2.4,0c-0.2,-1 -0.2,-2.4 0,-3.4c-1.2,-0.1 -2.1,-0.1 -2.8,0.2m3.9,-26.5c0,0 -0.9,0.2 -1.1,0.2c0.6,1 2.4,2.9 2.4,2.9c0.5,-0.1 1.7,-0.9 1.7,-0.9l-3,-2.2zm-282,41.1c-1.9,-1 -3.2,-1.9 -5.1,-3.2l-0.1,0l-3.6,3.7c1.1,1 2.4,2.3 3.4,3.8c0,0 9.1,-2.6 9.7,-2.8c0.6,-0.2 1,0.2 1,0.2l0.1,0c0.1,-1.4 0.7,-3.5 1.2,-5.1l-3.3,-1.7l-0.2,0.5c1.2,0.5 0.8,1.5 0.3,3.6l-3.4,1zm-6.5,1.9l3,-3.2c0,0 1.6,0.9 2.7,1.6l-5.7,1.6zm-6.9,-52.9c0.1,-0.6 0.6,-1.3 0.8,-1.3c0,0 13.3,2.5 13.9,2.6c0.6,0.1 0.7,0.6 0.7,0.6l0.1,0l3.1,-3.1l-2.1,-5c0,0 -8.9,-1.7 -9.4,-1.8c-0.5,-0.1 -0.7,-0.5 -0.7,-0.5l-0.1,0l-2.9,3l1.4,2.2l-4.1,-0.8l-2.3,1.6c0,0 0.7,0.8 1.6,2.4l0,0.1zm6.6,-5.3l10.4,1.9l0.1,0.1l-1.8,2l-10,-1.9l-0.2,-0.4l1.5,-1.7zm-2.6,35.2c0,0 9.1,-0.7 9.8,-0.8c0.6,0 0.9,0.4 0.9,0.4l0.1,0l2.1,-3.8l-3.4,-4.3c0,0 -10,0.8 -10.6,0.8c-0.5,0 -0.8,-0.3 -0.8,-0.3l-0.1,0c-1.6,2.9 -3.2,5.3 -5.1,8.3c0,0 1,0.5 2.3,1.9l0.1,0c-0.1,-0.7 2.7,-5 2.7,-5l2,2.8zm-0.5,-5l11.4,-0.9l0.1,0.1l-1.2,2.4l-10.8,0.8l-0.5,-0.6l1,-1.8zm6.2,-9.7c-1.6,-1.5 -2.6,-2.7 -4,-4.5l-0.1,0l-4.5,2.5c0.8,1.2 1.6,2.9 2.2,4.6c0,0 9.4,0 10.1,0c0.6,0 0.8,0.5 0.8,0.5l0.1,0c0.5,-1.3 1.6,-3.1 2.6,-4.6l-2.7,-2.5l-0.4,0.4c1,0.8 0.3,1.7 -0.7,3.5l-3.4,0l0,0.1zm-6.8,0l3.8,-2.3c0,0 1.2,1.3 2.2,2.3l-6,0zm10.9,19.6l1.9,1.9c0,0 1.3,-0.9 1.9,-1.9l-1.9,-1.9c0.1,0 -1.3,1 -1.9,1.9m23.8,-111.3c0.3,-1.1 0.4,-3.7 0.4,-3.7c-0.4,-0.3 -1.8,-0.6 -1.8,-0.6l0.4,3.6c0.1,0.1 0.8,0.5 1,0.7m-38.6,84.7l0.1,0c0,0 0.1,-1.4 1,-1.3c0.6,0.1 13.5,1.6 14.3,1.7c0.8,0.1 0.8,0.6 0.8,0.6l0.1,0l2.2,-2.3l-1.8,-2.2l-0.1,0c-0.1,0.7 -0.7,1.3 -0.7,1.3s-13.9,-1.6 -14.5,-1.7c-0.5,-0.1 -0.7,-0.5 -0.7,-0.5l-0.1,0l-2.3,2.2c0,-0.1 0.6,0.5 1.7,2.2m14.8,-21.5c-1.1,-1.8 -1.8,-3.2 -2.7,-5.3l-0.1,0l-5,1.3c0.4,1.4 0.8,3.2 0.9,5c0,0 9.1,2.4 9.7,2.5c0.6,0.2 0.7,0.7 0.7,0.7l0.1,0c0.8,-1.1 2.4,-2.6 3.7,-3.8l-1.9,-3.1l-0.5,0.3c0.7,1 -0.1,1.7 -1.6,3.2l-3.3,-0.8zm-6.6,-1.7l4.3,-1.2c0,0 0.9,1.6 1.5,2.7l-5.8,-1.5zm86.6,-88.8c-0.6,1.2 -0.8,2.3 -0.8,3.8c0.9,-0.3 3.4,-0.3 4.1,0l0,-4.2c0,-2 0.3,-2.9 0.5,-3.2l1.5,-2.3c1.5,0 2.8,-0.2 4,-0.8c-0.6,1.1 -0.8,2.2 -0.8,3.5c0.8,-0.3 3.1,-0.3 3.7,0l0,-3.8c0,-2.4 0.5,-3.1 0.5,-3.1l2.2,-3.2l3.3,0c0.4,0 0.7,0 1,0c-0.6,0.7 -1.4,1.6 -2.2,2.5c-1.3,1.6 -1.6,2.9 -1.6,4.8c0.8,-0.3 3.3,-0.3 3.9,0l0,-4c0,-2.1 0.4,-3 0.5,-3.2c3.9,0.6 5.2,3 5.2,3l0.5,-0.3l-2.2,-3.5c-1.9,-2.3 -4,-2.8 -6.5,-2.9c-1.2,0 -9.5,0 -11,0c0.7,0.7 0.7,2.3 0.4,3.2c-0.5,0.4 -1.8,1.5 -3.2,1.5l-4.5,0c0.2,1 0.2,2.6 0,3.6c2.7,0 4.9,-0.4 6.6,-2.8l1.5,-1.9l7.6,0l-1.5,2.3c-0.2,0.2 -1.8,1.6 -3.4,1.6l-4.4,0c0.2,0.8 0.2,2.1 0.1,3.1l-1.3,1.9c0,0 0,0 0,0c0,0 -1.5,1.5 -3.3,1.5l-3.9,0c0.2,1 0.2,2.6 0,3.6c1.5,-0.2 2.6,-0.3 3.5,-0.7m25.5,269.1l2.9,-2.3c0,0 0,-0.9 0,-1.1c-1.1,0.3 -3.4,1.6 -3.4,1.6c0,0.5 0.5,1.8 0.5,1.8m-71.7,-240.3l0,0l3.6,-0.8l1,5.8c0.4,-0.4 3.3,-1.2 4,-1.1c0,-0.6 1.2,-4.2 1.7,-4.9c0,0 -2.9,-3.1 -3.2,-3.4c-0.4,-0.4 -0.2,-0.8 -0.2,-0.8l-0.1,-0.1l-3,0.9l-0.7,-4.6c-0.7,0.3 -3.1,0.6 -4,0.5c-0.4,1.6 -2,4.6 -2,4.6s2.5,2.6 2.9,3.1c0.2,0.4 0,0.8 0,0.8m5.3,-2.5l3.4,3.7l-0.1,0.4c-1,0.1 -3.3,0.7 -3.8,0.9l-0.8,-4.6l1.3,-0.4zm-6.6,-3.8c0,0 2.9,0 4.1,-0.4l0.5,3.7l-1.5,0.3l-3.1,-3.3l0,-0.3zm77.5,239.5c0.1,-0.6 1.7,-8.9 1.9,-9.7c0.2,-0.8 0.6,-0.8 0.6,-0.8l0,-0.1l-2.1,-2.3l-2.3,1.6l0,0.1c0.7,0.1 1.2,0.8 1.2,0.8s-1.8,9.4 -1.9,9.9c-0.1,0.5 -0.5,0.7 -0.5,0.7l0,0.1l2,2.4c0,0 0.7,-0.6 2.4,-1.6l0,-0.1c0,0 -1.4,-0.2 -1.3,-1m-7.6,-3.5c0,0 -3.5,0 -4.4,0c-0.6,0 -1,-0.2 -1.3,-0.5c0,-0.6 -0.1,-0.9 -0.1,-0.9c0,-0.8 -0.3,-1.5 -0.7,-2.2c0.6,0.2 1.2,0.3 2,0.3l1.7,0c0,0 -0.5,-0.7 -0.5,-1.9c0,-1 0.2,-1.9 0.2,-1.9s-4.2,0 -5.4,0c-1.3,0 -2.2,-1 -2.5,-1.5c0,-0.1 -0.1,-0.1 -0.1,-0.2l0,0c-0.6,-0.8 -1.3,-1.8 -1.6,-2.3l-6,0c0.9,-0.3 1.7,-0.9 2.5,-2c0.5,-0.7 1,-1.5 1,-1.5l-2.8,-1.5c0,0 -1.6,2.5 -2.1,3.2c-1.5,2 -3.3,1.8 -3.3,1.8l0,0l-0.6,0c-4.3,0 -6,-2.8 -6,-2.8l-0.5,0.3l2.4,3.5c0,0 0,0 0,0l2.8,4.2c0.2,0.4 1,1.9 1,4.8l0,3.6c0.8,-0.2 2.9,-0.2 3.8,0c0,-0.8 0,-2 0,-2c0,-0.9 -0.4,-1.8 -0.9,-2.7c0.7,0.3 1.4,0.5 2.3,0.5l1.9,0c0,0 -0.2,-0.7 -0.2,-1.8c0,-0.9 0.2,-1.6 0.2,-1.6s-3.8,0 -4.9,0c-1.7,0 -3,-1.6 -3,-1.6l-1.3,-1.9c1.3,0.7 3,1 5.5,1l9.8,0c0.3,0.6 1,2.4 1,5.3l0,2.2c1.4,-0.2 2.6,-0.3 4,-0.1c0,0 0,0 0,0.1c0.1,0.2 0.4,0.9 0.4,2.4l0,3.7c0.5,-0.3 2.6,-0.3 3.2,0c0,-1.3 0.1,-2.2 -0.7,-3.4c0.5,0.2 1,0.3 1.5,0.3l1.7,0c0,0 -0.4,-0.6 -0.4,-1.4c0.2,-0.9 0.4,-1.5 0.4,-1.5m-54.2,-244.3c-0.7,1.3 -0.7,2.6 -0.7,4.3c1,-0.4 3.2,-0.4 4,0l0,-4.4c0,-2.5 1.1,-4.2 1.1,-4.2l0.8,-1.2c1.1,-0.2 3,-0.2 3.6,0.1l0,-3.3c0,-2.1 0.5,-3.1 0.9,-3.6l0.9,0c3,0 5.1,-0.1 6.6,-1.2c-0.6,1.4 -1,3 -1,4.6c0,1 0,3.1 0,4.1c-0.1,0.1 -0.1,0.2 -0.2,0.2c-0.6,0.4 -1.7,1.2 -2.9,1.2l-3.9,0c0.2,1 0.2,2.6 0,3.6c1.4,0 2.5,-0.1 3.4,-0.5c-0.5,1.1 -0.6,2.2 -0.6,3.5c0.9,-0.3 3.4,-0.3 4.1,0l0,-4.2c0,-2.1 0.4,-3 0.5,-3.3c0.6,-0.1 1.9,-0.2 3.2,0.1l0,-7.2c0,-1.3 -0.3,-4.9 0.8,-6.5l1.3,-1.9l-0.5,-0.3l-0.4,0.6l-1.3,1.9l0,0c-0.1,0.1 -0.1,0.2 -0.2,0.2c-0.6,0.7 -2,1.6 -4.8,1.6l-2.6,0c-1.3,0 -2,-0.6 -2,-1c-0.5,0 -0.7,0 -0.7,0l0,4c-0.2,0.1 -0.6,0.4 -1,0.8c-0.6,0.5 -1.7,1.2 -2.9,1.2l-3.2,0c0.2,1 0.2,2.4 0,3.4c1.3,0 2.1,-0.1 2.9,-0.4c-0.2,0.6 -0.3,1.1 -0.3,2l-0.9,1.3c-0.3,0.2 -1.8,1.6 -3.3,1.6l-4.5,0c0.2,1 0.2,2.6 0,3.6c1.3,-0.1 2.6,-0.2 3.8,-0.7m-43.2,145.6c0,0 -8.8,2.9 -9.3,3.1c-0.5,0.2 -0.9,-0.1 -0.9,-0.1l-0.1,0l-1,3.3l3,1.7l-4.8,1.6l-1.3,2.5c0,0 1,0.3 2.6,1.3l0.1,0c-0.2,-0.6 -0.2,-1.4 0,-1.5c0,0 13.7,-4.5 14.3,-4.7c0.8,-0.3 1,0.1 1,0.1l0.1,0l1,-3l-2.6,-1.2l-0.1,0c0.2,0.6 -0.1,1.4 -0.1,1.4l-9.8,3.2l-1.1,-0.6l0.5,-1.6l10.1,-3.3c2.9,-1 3.5,-0.9 3.5,-0.9l0.1,-0.3c-0.1,0.1 -3.2,-1.7 -5.2,-1m-16.3,-12l2.5,1.4l0.1,0c-0.1,-0.7 0.3,-1.4 0.3,-1.4l4.6,-3.5l9.3,3.1c0,0 -1.2,-2.4 -1.3,-2.9c-5,-1.5 -14.2,-4.6 -15.2,-5.1l-0.1,0l-1.3,2.4l2.2,1.5l0.1,0c-0.1,-0.5 0.5,-1 0.5,-1l3.4,1.1l-4.3,3l-0.8,1.4zm38.3,-111.5l-0.1,-0.1l-2.8,1.4l-1.4,-4.5c-0.6,0.4 -3,1 -3.9,1.1c-0.1,1.7 -1.3,4.9 -1.3,4.9s2.8,2.2 3.3,2.6c0.5,0.4 0.4,0.9 0.4,0.9l0.1,0.1l3.4,-1.4l1.8,5.6c0.4,-0.4 3.1,-1.6 3.8,-1.7c-0.1,-0.6 0.6,-4.3 1,-5.1c0,0 -3.3,-2.6 -3.7,-2.9c-0.7,-0.5 -0.6,-0.9 -0.6,-0.9m-4.6,3.3l-3.6,-2.8l0,-0.2c0,0 2.8,-0.5 4,-1l1.1,3.6l-1.5,0.4zm7.4,3.3c-1,0.2 -3.2,1.2 -3.6,1.4l-1.5,-4.4l1.2,-0.6l3.9,3.1l0,0.5zm37.4,56.7l1.7,2.6l1.7,-2.6l-1.7,-2.6l-1.7,2.6zm15.6,2.8l1.7,-2.6l-1.7,-2.6l-1.7,2.6l1.7,2.6zm-25.4,-2.7l-1.7,-2.6l-1.7,2.6l1.7,2.6l1.7,-2.6zm-34.5,-47.3l3,-1.1l-0.7,-2.7l-0.1,-0.1c-0.4,0.6 -1.2,0.8 -1.2,0.8s-8.2,-5.1 -8.6,-5.4c-0.4,-0.3 -0.4,-0.7 -0.4,-0.7l-0.1,-0.1l-3.3,1.4l0.4,2.7l-2.8,1.1c0,0 0.4,1 0.6,2.8l0.1,0.1c0.3,-0.5 1,-1 1.2,-0.9c0,0 8.3,5.2 8.9,5.5c0.5,0.3 0.5,0.9 0.5,0.9l0.1,0.1l2.6,-0.9l-0.6,-2.6l-0.1,-0.1l-1,0.4l-8.8,-5.5l-0.1,-1.2l1.4,-0.7c0,0 7.8,4.9 8.5,5.3c0.7,0.4 0.5,0.9 0.5,0.9l0,0zm14.2,-17.6l0,0c-0.5,0.4 -1.4,0.5 -1.4,0.5s-7.2,-6.4 -7.6,-6.8c-0.4,-0.4 -0.3,-0.8 -0.3,-0.8l-0.1,-0.1l-3.1,0.5c0,0 0.2,0.9 0.1,2.9l0.1,0.1c0,0 0.9,-1.1 1.6,-0.5c0.4,0.4 6.8,6.1 7.4,6.6c0.6,0.5 0.3,0.9 0.3,0.9l0.1,0.1l3.1,-0.6l-0.2,-2.8zm-29,43.7c0.7,1.1 0.1,1.4 -1.1,2.4l-9.2,-3.2l-0.3,-0.5c0.5,-0.4 3.5,-0.9 3.5,-0.9l0,-0.1c-1.1,-1.3 -1.5,-2.4 -1.5,-2.4l-0.1,0l-3.5,1.1l1.1,2.5l-2.5,1.4c0,0 0.6,0.9 1.2,2.6l0.1,0c0.2,-0.6 0.8,-1.2 1,-1.2c0,0 8.9,3.1 9.5,3.3c0.6,0.2 0.6,0.7 0.6,0.7l0.1,0c1,-1 2.1,-2 3.3,-2.8l-1.7,-3.2l-0.5,0.3zm103.8,190c0,0.5 0.5,1.8 0.5,1.8l2.8,-2.4c0,0 0,-0.9 0,-1.1c-1,0.3 -3.3,1.7 -3.3,1.7m-104.1,-94.7c0,1.2 -0.1,2.7 0.3,4.2c-1.5,-1.3 -3.1,-1.5 -5.6,-1.5c0.2,1.2 0.2,2.8 0,4l3.5,0c2.5,0 4.6,1.5 4.8,1.7l0.9,1.3c-0.8,-0.5 -1.7,-0.6 -3.3,-0.6c0.2,1 0.2,2.3 0,3.3l3.1,0c1.1,0 2,0.6 2.6,1c0,0.8 0,2.2 0,3.1c0,3.1 1.4,5.8 2.8,7.9c0.1,0.2 0.3,0.4 0.4,0.6c-1.4,-1 -2.8,-0.9 -5.6,-0.9l-0.3,-0.4l-4.8,-7.1l0,0c-0.1,-0.2 -0.5,-1 -0.5,-3l0,-3.6c-0.9,0.3 -2.9,0.3 -3.7,0c0,1.5 0,2.3 0.9,3.6c-0.9,-0.4 -2,-0.4 -3.4,-0.4c0.2,1 0.2,2.4 0,3.3l3.8,0c1.9,0 3,1.4 3.1,1.5l1.4,2c-1.3,-1.1 -2.7,-1.2 -5.1,-1.2c0.2,1.2 0.3,2.9 0,4.1l4.3,0c1.4,0 2.7,0.8 3.4,1.4c0.4,0.9 0.5,2.2 0.3,3.4l3.1,0.1c4.2,0 6.9,3.2 7.5,4l0.5,0.7c0.1,0.9 0.2,1.7 0.5,2.5l0,0c-2.7,-3.1 -3.9,-2.9 -9.6,-2.9c0.2,1 0.3,2.6 0.1,3.4l4.9,0c4.3,0 6.7,3.7 6.7,3.7l0,0c0.1,0.2 0.2,0.4 0.3,0.5c1.2,1.8 2.2,3.1 2.2,3.1l0.5,-0.3c0,0 -0.8,-1.1 -1.2,-1.7c-0.8,-1.3 -0.9,-5 -0.9,-6.9c0,-0.5 0,-9.5 0,-9.9l0,-2.9c-1.6,0.3 -3.6,-0.1 -3.6,-0.1s0,8.1 0,10.4l-2.6,-3.9c0,0 -0.7,-1.1 -1.1,-1.7c-0.8,-1.3 -0.8,-5.1 -0.8,-7.1c0,-0.5 0.1,-0.8 0.1,-1.2c0,-0.9 0.1,-3.9 1.3,-3.9c0,-0.2 0,-0.4 0,-0.7c-2.4,0 -3.9,0 -4.5,0l-0.1,-0.2l-2.3,-3.5c0,0 -0.6,-1.4 -0.6,-3.4l0,-5.7c-0.6,0.2 -2.9,0.3 -3.7,-0.1m6.2,-106.7c-0.3,0.6 -1.1,1 -1.1,1s-9.6,-4.2 -10.1,-4.4c-0.5,-0.2 -0.5,-0.7 -0.5,-0.7l-0.1,-0.1l-3.6,2.4c0,0 0.6,1.3 0.8,5.2c0,0 8.2,3.6 8.8,3.8c0.6,0.2 0.6,0.8 0.6,0.8l0.1,0.1l3.5,-2.2l1.4,2.7l2.8,-2.2l-2.4,-6.5l-0.2,0.1zm-4.6,4.9l-9.8,-4.2l0,-0.1l2.2,-1.5l9.2,4l0.4,0.8l-2,1zm3.5,1.2l-1.2,-2.7l3.4,1.5l-2.2,1.2zm29.1,29.1l1.7,-2.6l-1.7,-2.6l-1.7,2.6l1.7,2.6zm-24.4,-43.5c0.5,1.2 -0.5,1.6 -2.4,2.7l-3.1,-1.7c-0.6,-2.1 -0.9,-3.6 -1.2,-5.8l-0.1,-0.1l-5.2,0c0,1.4 -0.1,3.3 -0.4,5.1c0,0 8.2,4.6 8.8,4.9c0.5,0.3 0.5,0.8 0.5,0.8l0.1,0.1c1.1,-0.9 3,-1.9 4.6,-2.7l-1.1,-3.5l-0.5,0.2zm-11.4,-2.3l4.4,-0.1c0,0 0.4,1.7 0.8,3l-5.2,-2.9zm129,-70l-1.7,-2.6l-1.7,2.6l1.7,2.6l1.7,-2.6zm-36.2,86.4l-1.7,-2.6l-1.7,2.6l1.7,2.6l1.7,-2.6zm37.2,51.5c-1.7,0.8 -2.2,2.4 -2.2,2.9l0,2.1l0.8,0l0,-2c0,-1 1.1,-2.5 2.7,-2.5c1.6,0 2.4,1.3 2.4,1.3l0.6,-0.6c-0.7,-0.8 -2.5,-2 -4.3,-1.2m47,45.9l0,1.5l3.9,-2.5l1.6,2l-4.6,3.4l0.8,1.2l4.7,-3.5l1.1,1.3l-1.8,1.5l1,1l3,-2.3l-1.4,-1.6l2.6,-2.3l-1.1,-3.5l0.8,-0.6l0,-0.9l-2.4,0l1.3,4.4l-0.9,0.7l-1.6,-2l0,-4.2l-3.7,0l0,1.2l0.8,0.9l-0.8,0.6l-2.4,-2.7l-1.1,0l0,0.7l3.1,3.6l-2.9,2.1zm-85.8,-37.3c2.3,0 4.2,-1.8 4.2,-4.1c0,-2.3 -1.9,-4.1 -4.2,-4.1c-2.3,0 -4.2,1.8 -4.2,4.1c0,2.3 1.9,4.1 4.2,4.1m0,-7.4c1.8,0 3.3,1.5 3.3,3.3c0,1.8 -1.5,3.3 -3.3,3.3c-1.8,0 -3.3,-1.5 -3.3,-3.3c0,-1.8 1.5,-3.3 3.3,-3.3m102.4,-25.7l-1.7,-2.6l-1.7,2.6l1.7,2.6l1.7,-2.6zm-50.8,-57.6l1.7,0l0,-1.7l1.7,0l0,-1.7l-1.7,0l0,-1.7l-1.7,0l0,1.7l-1.7,0l0,1.7l1.7,0l0,1.7zm6.6,0l1.7,0l0,-1.7l1.7,0l0,-1.7l-1.7,0l0,-1.7l-1.7,0l0,1.7l-1.7,0l0,1.7l1.7,0l0,1.7zm-3.8,21.1l1.7,2.6l1.7,-2.6l-1.7,-2.6l-1.7,2.6zm73.5,39l1.7,-2.6l-1.7,-2.6l-1.7,2.6l1.7,2.6zm-110,-39l-1.7,-2.6l-1.7,2.6l1.7,2.6l1.7,-2.6zm22.3,62.8c-1.5,0 -2.1,0.6 -2.1,1.1c0.4,0 1,0 1.7,0c-0.2,0.1 -0.4,0.3 -0.4,0.5c0,0.3 0.3,0.6 0.7,0.6c0.4,0 0.7,-0.3 0.7,-0.6c0,-0.2 -0.2,-0.4 -0.4,-0.5c0.6,0 1.2,0 1.7,0c0.1,-0.5 -0.8,-1.1 -1.9,-1.1m13.7,-111.7l-1.7,-2.6l-1.7,2.6l1.7,2.6l1.7,-2.6zm-21.4,111.6c-1.5,0 -2.1,0.6 -2.1,1.1c0.4,0 1.1,0 1.8,0c-0.2,0.1 -0.4,0.3 -0.4,0.5c0,0.3 0.3,0.6 0.7,0.6c0.4,0 0.7,-0.3 0.7,-0.6c0,-0.2 -0.1,-0.4 -0.4,-0.5c0.6,0 1.2,0 1.7,0c-0.1,-0.5 -0.9,-1.1 -2,-1.1m1.1,-1.7c-1.7,-0.8 -3.6,0.4 -4.3,1.3l0.6,0.6c0,0 0.9,-1.3 2.4,-1.3c1.5,0 2.7,1.5 2.7,2.5l0,2l0.8,0l0,-2.1c0,-0.6 -0.5,-2.2 -2.2,-3m-16.9,127.3l0,0.1c0.7,0.1 1.3,0.8 1.3,0.8s-1.4,9.4 -1.5,10c-0.1,0.5 -0.5,0.7 -0.5,0.7l0,0.1l2.1,2.3c0,0 0.6,-0.7 2.4,-1.7l0,-0.1c0,0 -1.4,-0.2 -1.3,-1c0.1,-0.6 1.3,-9 1.4,-9.8c0.1,-0.8 0.6,-0.8 0.6,-0.8l0,-0.1l-2.2,-2.2l-2.3,1.7zm34.1,11.9c0,0 -0.5,-9 -0.6,-9.7c0,-0.6 0.4,-0.9 0.4,-0.9l0,-0.1c-1.3,-0.5 -2.7,-1.2 -3.9,-1.9l-2.4,2.8l0.4,0.4c0.8,-1 1.3,-0.7 2.7,0.1l0.6,9.5l-2.2,0.1l-0.5,1.3l2.8,-0.2l0.2,4l0.3,0c0.6,-2.1 1.8,-3.8 3.2,-5l0,-0.5l-1,0.1zm-8.3,-9.3c0,-0.5 0.4,-0.8 0.4,-0.8l0,-0.1l-3.4,-1.9c0,0 -2.6,2 -4.8,3.2c0,0 0.1,9.2 0.1,9.8c0,0.6 -0.5,0.8 -0.5,0.8l0,0.1l2.2,1.7l1.9,-1.9l0,-0.1l-0.9,-0.6l-0.1,-11l0.4,-0.2l2,1.2c0,0 0.1,9 0.1,9.8c0,0.8 -0.5,0.9 -0.5,0.9l0,0.1l2.6,1.8l2,-2l0,-0.1c-0.7,0 -1.4,-0.6 -1.4,-0.6s-0.1,-9.6 -0.1,-10.1m-20.8,-239.8l-1.7,-2.6l-1.7,2.6l1.7,2.6l1.7,-2.6zm26.8,-23.1l-1.7,-2.6l-1.7,2.6l1.7,2.6l1.7,-2.6zm-17.8,273c0,0 0.8,-9 0.8,-9.6c0.1,-0.6 0.6,-0.8 0.6,-0.8l0,-0.1l-3.4,-2.7l-4.9,2.6c0,0 -0.8,9.9 -0.9,10.4c0,0.5 -0.5,0.7 -0.5,0.7l0,0.1c2.7,2.1 4.8,3.9 7.5,6.3c0,0 0.6,-0.8 2.3,-2l0,-0.1c-0.7,-0.1 -4.5,-3.4 -4.5,-3.4l3,-1.4zm-5.1,-0.3l0.9,-11.2l0.1,-0.1l2.2,1.6l-0.9,10.7l-0.6,0.3l-1.7,-1.3zm-98.5,-137.3l1.7,2.6l1.7,-2.6l-1.7,-2.6l-1.7,2.6zm135.6,131l0,-0.1l-3.4,-1.3l2.6,-5.3c-0.6,0.1 -3.4,-0.9 -3.9,-1.3c-0.4,0.4 -3.4,2.7 -4.2,3.1c0,0 0.6,4.1 0.7,4.6c0.1,0.5 -0.3,0.8 -0.3,0.8l0,0.1l3,0.9l-2.1,4.2c0.7,0.2 2.9,1.3 3.6,1.9c1.2,-1.1 4.3,-2.7 4.3,-2.7s-0.5,-3.5 -0.6,-4.2c-0.1,-0.4 0.3,-0.7 0.3,-0.7m-5.8,-0.9l-0.7,-5l0.3,-0.3c0.8,0.5 3.1,1.3 3.7,1.4l-2,4.2l-1.3,-0.3zm3.2,6.8c0,0 -2.4,-1.6 -3.6,-2l1.7,-3.3l1.4,0.7l0.6,4.5l-0.1,0.1zm29,-19.7l-0.5,-0.3l-0.7,1.1c-0.7,0.9 -2.6,3 -5.3,3c0,0 -7.5,-0.1 -7.5,-0.1c0.3,1.2 0.3,2.7 -0.2,3.9c1.3,0 2.5,0 3.7,0l-0.6,0.9l0,-0.1c0,0 -2.1,3.5 -6.3,3.5c-1.4,0 -4.2,0 -4.2,0s0.3,0.5 0.3,1.7c0,1.4 -0.6,1.8 -0.6,1.8s2,0 3.5,0c0.8,0 1.5,-0.2 2.2,-0.6c-1.1,1.6 -2.1,3.4 -2.1,5c0,0 0,0.7 0,1.7c1.1,-0.6 3.5,-0.4 4.3,-0.4l0,-3.4c0,-3.1 0.8,-5.1 1.3,-5.9l2.9,-4.3c2.1,-0.1 4,-0.5 5.4,-1.5l0,7.3l0,0c0,0 -1.4,1.5 -3.1,1.5l-3.8,0c0.2,0.9 0.2,2.3 0,3.2c1.7,0 2.9,-0.1 3.9,-0.7c-0.3,1.1 -0.3,2.1 -0.3,3.1c0.7,-0.3 2.7,-0.3 3.3,0l0,-4.4c0,-1.3 0.2,-1.9 0.3,-2.3c0.9,0 3.4,0 4.1,0c0,-0.3 0,-0.5 0,-0.7c-0.8,0 -1.1,-0.7 -1.3,-2.4c0,-0.7 -0.1,-2.8 -0.1,-3.3c0,-2.2 -0.1,-5.1 1.2,-7c0.1,-0.3 0.2,-0.3 0.2,-0.3m-46.1,-229.5l-1.7,-2.6l-1.7,2.6l1.7,2.6l1.7,-2.6zm69.5,85.3l1.7,2.6l1.7,-2.6l-1.7,-2.6l-1.7,2.6zm-27.2,0l1.7,2.6l1.7,-2.6l-1.7,-2.6l-1.7,2.6zm-52.7,-85.3l-1.7,-2.6l-1.7,2.6l1.7,2.6l1.7,-2.6zm-5.6,-23.2l-1.7,-2.6l-1.7,2.6l1.7,2.6l1.7,-2.6z" class="st2"/>
 </g>
</svg>
